<?xml version="1.0" encoding="UTF-8" standalone="no"?>
<!-- Created with Inkscape (http://www.inkscape.org/) -->

<svg
   version="1.1"
   id="svg1"
   width="532.5838"
   height="71.186836"
   viewBox="0 0 532.5838 71.186835"
   sodipodi:docname="bright.svg"
   inkscape:version="1.4.1 (1:1.4.1+202503302257+93de688d07)"
   xmlns:inkscape="http://www.inkscape.org/namespaces/inkscape"
   xmlns:sodipodi="http://sodipodi.sourceforge.net/DTD/sodipodi-0.dtd"
   xmlns="http://www.w3.org/2000/svg"
   xmlns:svg="http://www.w3.org/2000/svg">
  <defs
     id="defs1">
    <clipPath
       clipPathUnits="userSpaceOnUse"
       id="clipPath26864">
      <path
         d="M 0,0 H 3920 V 579.09 H 0 Z"
         transform="translate(2.6072628e-4,-2.6072628e-5)"
         id="path26864" />
    </clipPath>
    <clipPath
       clipPathUnits="userSpaceOnUse"
       id="clipPath26865">
      <path
         d="M 0,0 H 3920 V 579.09 H 0 Z"
         transform="translate(2.6072628e-4,-2.6072628e-5)"
         id="path26865" />
    </clipPath>
    <clipPath
       clipPathUnits="userSpaceOnUse"
       id="clipPath26873">
      <path
         d="M 0,0 H 3920 V 579.09 H 0 Z"
         transform="translate(2.6072628e-4,-2.6072628e-5)"
         id="path26873" />
    </clipPath>
    <clipPath
       clipPathUnits="userSpaceOnUse"
       id="clipPath26874">
      <path
         d="M 0,0 H 3920 V 579.09 H 0 Z"
         transform="translate(2.6072628e-4,-2.6072628e-5)"
         id="path26874" />
    </clipPath>
    <clipPath
       clipPathUnits="userSpaceOnUse"
       id="clipPath26882">
      <path
         d="M 0,0 H 3920 V 579.09 H 0 Z"
         transform="translate(2.6072628e-4,-2.6072628e-5)"
         id="path26882" />
    </clipPath>
    <clipPath
       clipPathUnits="userSpaceOnUse"
       id="clipPath26883">
      <path
         d="M 0,0 H 3920 V 579.09 H 0 Z"
         transform="translate(2.6072628e-4,-2.6072628e-5)"
         id="path26883" />
    </clipPath>
    <clipPath
       clipPathUnits="userSpaceOnUse"
       id="clipPath26891">
      <path
         d="M 0,0 H 3920 V 579.09 H 0 Z"
         transform="translate(2.6072628e-4,-2.6072628e-5)"
         id="path26891" />
    </clipPath>
    <clipPath
       clipPathUnits="userSpaceOnUse"
       id="clipPath26892">
      <path
         d="M 0,0 H 3920 V 579.09 H 0 Z"
         transform="translate(2.6072628e-4,-2.6072628e-5)"
         id="path26892" />
    </clipPath>
    <clipPath
       clipPathUnits="userSpaceOnUse"
       id="clipPath26900">
      <path
         d="M 0,0 H 3920 V 579.09 H 0 Z"
         transform="translate(2.6072628e-4,-2.6072628e-5)"
         id="path26900" />
    </clipPath>
    <clipPath
       clipPathUnits="userSpaceOnUse"
       id="clipPath26901">
      <path
         d="M 0,0 H 3920 V 579.09 H 0 Z"
         transform="translate(2.6072628e-4,-2.6072628e-5)"
         id="path26901" />
    </clipPath>
    <clipPath
       clipPathUnits="userSpaceOnUse"
       id="clipPath26909">
      <path
         d="M 0,0 H 3920 V 579.09 H 0 Z"
         transform="translate(2.6072628e-4,-2.6072628e-5)"
         id="path26909" />
    </clipPath>
    <clipPath
       clipPathUnits="userSpaceOnUse"
       id="clipPath26910">
      <path
         d="M 0,0 H 3920 V 579.09 H 0 Z"
         transform="translate(2.6072628e-4,-2.6072628e-5)"
         id="path26910" />
    </clipPath>
    <clipPath
       clipPathUnits="userSpaceOnUse"
       id="clipPath26918">
      <path
         d="M 0,0 H 3920 V 579.09 H 0 Z"
         transform="translate(2.6072628e-4,-2.6072628e-5)"
         id="path26918" />
    </clipPath>
    <clipPath
       clipPathUnits="userSpaceOnUse"
       id="clipPath26919">
      <path
         d="M 0,0 H 3920 V 579.09 H 0 Z"
         transform="translate(2.6072628e-4,-2.6072628e-5)"
         id="path26919" />
    </clipPath>
  </defs>
  <sodipodi:namedview
     id="namedview1"
     pagecolor="#ffffff"
     bordercolor="#666666"
     borderopacity="1.0"
     inkscape:showpageshadow="2"
     inkscape:pageopacity="0.0"
     inkscape:pagecheckerboard="0"
     inkscape:deskcolor="#d1d1d1"
     inkscape:zoom="2.2669698"
     inkscape:cx="18.306375"
     inkscape:cy="-14.777436"
     inkscape:window-width="1680"
     inkscape:window-height="1013"
     inkscape:window-x="1920"
     inkscape:window-y="0"
     inkscape:window-maximized="1"
     inkscape:current-layer="svg1">
    <inkscape:page
       x="0"
       y="0"
       width="532.5838"
       height="71.186836"
       id="page2"
       margin="0"
       bleed="0" />
  </sodipodi:namedview>
  <g
     id="g14"
     transform="translate(34.205258,-0.06392025)">
    <path
       d="M 567.949,404.871 404.871,567.949 H 174.219 L 11.1406,404.871 V 174.219 L 174.219,11.1406 H 404.871 L 567.949,174.219"
       style="fill:#4477aa;fill-opacity:1;fill-rule:nonzero;stroke:none"
       transform="matrix(0.127848,0,0,-0.127848,-1.3614,72.675064)"
       clip-path="none"
       id="path26927" />
    <text
       xml:space="preserve"
       transform="matrix(1.27848,0,0,1.27848,9.4483,26.476934)"
       clip-path="none"
       id="text26928"><tspan
         style="font-variant:normal;font-weight:normal;font-size:9px;font-family:Carlito;writing-mode:lr-tb;fill:#000000;fill-opacity:1;fill-rule:nonzero;stroke:none"
         x="0"
         y="0"
         id="tspan26928">68,119,170</tspan></text>
    <text
       xml:space="preserve"
       transform="matrix(1.27848,0,0,1.27848,17.3379,39.340234)"
       clip-path="none"
       id="text26929"><tspan
         style="font-variant:normal;font-weight:normal;font-size:9px;font-family:Carlito;writing-mode:lr-tb;fill:#000000;fill-opacity:1;fill-rule:nonzero;stroke:none"
         x="0"
         y="0"
         id="tspan26929">4477AA</tspan></text>
    <text
       xml:space="preserve"
       clip-path="none"
       id="text26930"
       transform="matrix(1.27848,0,0,1.27848,25.4188,51.797364)"><tspan
         style="font-variant:normal;font-weight:normal;font-size:9px;font-family:Carlito;writing-mode:lr-tb;fill:#000000;fill-opacity:1;fill-rule:nonzero;stroke:none"
         x="0"
         dx="0 0.0054687499 0 0.0054687499"
         y="0"
         id="tspan26930">blue</tspan></text>
  </g>
  <g
     id="g15"
     transform="translate(34.205258,-0.06392025)">
    <path
       d="M 1124.77,404.871 961.68,567.949 H 731.039 L 567.949,404.871 V 174.219 L 731.039,11.1406 H 961.68 l 163.09,163.0784"
       style="fill:#66ccee;fill-opacity:1;fill-rule:nonzero;stroke:none"
       transform="matrix(0.127848,0,0,-0.127848,-1.3614,72.675064)"
       clip-path="none"
       id="path26931" />
    <text
       xml:space="preserve"
       transform="matrix(1.27848,0,0,1.27848,77.7191,26.476934)"
       clip-path="none"
       id="text26932"><tspan
         style="font-variant:normal;font-weight:normal;font-size:9px;font-family:Carlito;writing-mode:lr-tb;fill:#000000;fill-opacity:1;fill-rule:nonzero;stroke:none"
         x="0"
         y="0"
         id="tspan26932">102,204,238</tspan></text>
    <text
       xml:space="preserve"
       transform="matrix(1.27848,0,0,1.27848,89.2648,39.340234)"
       clip-path="none"
       id="text26933"><tspan
         style="font-variant:normal;font-weight:normal;font-size:9px;font-family:Carlito;writing-mode:lr-tb;fill:#000000;fill-opacity:1;fill-rule:nonzero;stroke:none"
         x="0"
         y="0"
         id="tspan26933">66CCEE</tspan></text>
    <text
       xml:space="preserve"
       transform="matrix(1.27848,0,0,1.27848,96.0179,50.800014)"
       clip-path="none"
       id="text26934"><tspan
         style="font-variant:normal;font-weight:normal;font-size:9px;font-family:Carlito;writing-mode:lr-tb;fill:#000000;fill-opacity:1;fill-rule:nonzero;stroke:none"
         x="0"
         dx="0 0.0064453101 0.00517578"
         y="0"
         id="tspan26934">cyan</tspan></text>
  </g>
  <g
     id="g16"
     transform="translate(34.205258,-0.06392025)">
    <path
       d="M 1681.59,404.871 1518.5,567.949 H 1287.86 L 1124.77,404.871 V 174.219 L 1287.86,11.1406 h 230.64 l 163.09,163.0784"
       style="fill:#228833;fill-opacity:1;fill-rule:nonzero;stroke:none"
       transform="matrix(0.127848,0,0,-0.127848,-1.3614,72.675064)"
       clip-path="none"
       id="path26935" />
    <text
       xml:space="preserve"
       transform="matrix(1.27848,0,0,1.27848,154.7398,26.476934)"
       clip-path="none"
       id="text26936"><tspan
         style="font-variant:normal;font-weight:normal;font-size:9px;font-family:Carlito;writing-mode:lr-tb;fill:#000000;fill-opacity:1;fill-rule:nonzero;stroke:none"
         x="0"
         y="0"
         id="tspan26936">34,136,51</tspan></text>
    <text
       xml:space="preserve"
       transform="matrix(1.27848,0,0,1.27848,160.5338,39.340234)"
       clip-path="none"
       id="text26937"><tspan
         style="font-variant:normal;font-weight:normal;font-size:9px;font-family:Carlito;writing-mode:lr-tb;fill:#000000;fill-opacity:1;fill-rule:nonzero;stroke:none"
         x="0"
         y="0"
         id="tspan26937">228833</tspan></text>
    <text
       xml:space="preserve"
       transform="matrix(1.27848,0,0,1.27848,164.5585,50.800014)"
       clip-path="none"
       id="text26938"><tspan
         style="font-variant:normal;font-weight:normal;font-size:9px;font-family:Carlito;writing-mode:lr-tb;fill:#000000;fill-opacity:1;fill-rule:nonzero;stroke:none"
         x="0"
         dx="0 0 0 0.0059570302 0.0071289102"
         y="0"
         id="tspan26938">green</tspan></text>
  </g>
  <g
     id="g17"
     transform="translate(34.205258,-0.06392025)">
    <path
       d="M 2238.41,404.871 2075.32,567.949 H 1844.68 L 1681.59,404.871 V 174.219 L 1844.68,11.1406 h 230.64 l 163.09,163.0784"
       style="fill:#ccbb44;fill-opacity:1;fill-rule:nonzero;stroke:none"
       transform="matrix(0.127848,0,0,-0.127848,-1.3614,72.675064)"
       clip-path="none"
       id="path26939" />
    <text
       xml:space="preserve"
       transform="matrix(1.27848,0,0,1.27848,223.0119,26.476934)"
       clip-path="none"
       id="text26940"><tspan
         style="font-variant:normal;font-weight:normal;font-size:9px;font-family:Carlito;writing-mode:lr-tb;fill:#000000;fill-opacity:1;fill-rule:nonzero;stroke:none"
         x="0"
         y="0"
         id="tspan26940">204,187,68</tspan></text>
    <text
       xml:space="preserve"
       transform="matrix(1.27848,0,0,1.27848,231.0024,39.340234)"
       clip-path="none"
       id="text26941"><tspan
         style="font-variant:normal;font-weight:normal;font-size:9px;font-family:Carlito;writing-mode:lr-tb;fill:#000000;fill-opacity:1;fill-rule:nonzero;stroke:none"
         x="0"
         dx="0 0 0 -0.0056640599"
         y="0"
         id="tspan26941">CCBB44</tspan></text>
    <text
       xml:space="preserve"
       transform="matrix(1.27848,0,0,1.27848,233.9582,50.800014)"
       clip-path="none"
       id="text26942"><tspan
         style="font-variant:normal;font-weight:normal;font-size:9px;font-family:Carlito;writing-mode:lr-tb;fill:#000000;fill-opacity:1;fill-rule:nonzero;stroke:none"
         x="0"
         dx="0 0 0.0059570302"
         y="0"
         id="tspan26942">yellow</tspan></text>
  </g>
  <g
     id="g18"
     transform="translate(34.205258,-0.06392025)">
    <path
       d="M 2795.23,404.871 2632.14,567.949 H 2401.5 L 2238.41,404.871 V 174.219 L 2401.5,11.1406 h 230.64 l 163.09,163.0784"
       style="fill:#ee6677;fill-opacity:1;fill-rule:nonzero;stroke:none"
       transform="matrix(0.127848,0,0,-0.127848,-1.3614,72.675064)"
       clip-path="none"
       id="path26943" />
    <text
       xml:space="preserve"
       transform="matrix(1.27848,0,0,1.27848,291.284,26.476934)"
       clip-path="none"
       id="text26944"><tspan
         style="font-variant:normal;font-weight:normal;font-size:9px;font-family:Carlito;writing-mode:lr-tb;fill:#000000;fill-opacity:1;fill-rule:nonzero;stroke:none"
         x="0"
         y="0"
         id="tspan26944">238,102,119</tspan></text>
    <text
       xml:space="preserve"
       transform="matrix(1.27848,0,0,1.27848,303.1291,39.340234)"
       clip-path="none"
       id="text26945"><tspan
         style="font-variant:normal;font-weight:normal;font-size:9px;font-family:Carlito;writing-mode:lr-tb;fill:#000000;fill-opacity:1;fill-rule:nonzero;stroke:none"
         x="0"
         y="0"
         id="tspan26945">EE6677</tspan></text>
    <text
       xml:space="preserve"
       transform="matrix(1.27848,0,0,1.27848,312.508,51.797364)"
       clip-path="none"
       id="text26946"><tspan
         style="font-variant:normal;font-weight:normal;font-size:9px;font-family:Carlito;writing-mode:lr-tb;fill:#000000;fill-opacity:1;fill-rule:nonzero;stroke:none"
         x="0"
         dx="0 0 0.0059570302"
         y="0"
         id="tspan26946">red</tspan></text>
  </g>
  <g
     id="g19"
     transform="translate(34.205258,-0.06392025)">
    <path
       d="M 3352.05,404.871 3188.96,567.949 H 2958.32 L 2795.23,404.871 V 174.219 L 2958.32,11.1406 h 230.64 l 163.09,163.0784"
       style="fill:#aa3377;fill-opacity:1;fill-rule:nonzero;stroke:none"
       transform="matrix(0.127848,0,0,-0.127848,-1.3614,72.675064)"
       clip-path="none"
       id="path26947" />
    <text
       xml:space="preserve"
       transform="matrix(1.27848,0,0,1.27848,365.3885,26.476934)"
       clip-path="none"
       id="text26948"><tspan
         style="font-variant:normal;font-weight:normal;font-size:9px;font-family:Carlito;writing-mode:lr-tb;fill:#000000;fill-opacity:1;fill-rule:nonzero;stroke:none"
         x="0"
         y="0"
         id="tspan26948">170,51,119</tspan></text>
    <text
       xml:space="preserve"
       transform="matrix(1.27848,0,0,1.27848,373.2793,39.340234)"
       clip-path="none"
       id="text26949"><tspan
         style="font-variant:normal;font-weight:normal;font-size:9px;font-family:Carlito;writing-mode:lr-tb;fill:#000000;fill-opacity:1;fill-rule:nonzero;stroke:none"
         x="0"
         y="0"
         id="tspan26949">AA3377</tspan></text>
    <text
       xml:space="preserve"
       transform="matrix(1.27848,0,0,1.27848,376.3246,50.800014)"
       clip-path="none"
       id="text26950"><tspan
         style="font-variant:normal;font-weight:normal;font-size:9px;font-family:Carlito;writing-mode:lr-tb;fill:#000000;fill-opacity:1;fill-rule:nonzero;stroke:none"
         x="0"
         dx="0 0.0054687499 0.0066406201 0 0.0066406201"
         y="0"
         id="tspan26950">purple</tspan></text>
  </g>
  <g
     id="g20"
     transform="translate(34.205258,-0.06392025)">
    <path
       d="M 3908.86,404.871 3745.78,567.949 H 3515.13 L 3352.05,404.871 V 174.219 L 3515.13,11.1406 h 230.65 l 163.08,163.0784"
       style="fill:#bbbbbb;fill-opacity:1;fill-rule:nonzero;stroke:none"
       transform="matrix(0.127848,0,0,-0.127848,-1.3614,72.675064)"
       clip-path="none"
       id="path26951" />
    <text
       xml:space="preserve"
       transform="matrix(1.27848,0,0,1.27848,433.6594,26.476934)"
       clip-path="none"
       id="text26952"><tspan
         style="font-variant:normal;font-weight:normal;font-size:9px;font-family:Carlito;writing-mode:lr-tb;fill:#000000;fill-opacity:1;fill-rule:nonzero;stroke:none"
         x="0"
         y="0"
         id="tspan26952">187,187,187</tspan></text>
    <text
       xml:space="preserve"
       transform="matrix(1.27848,0,0,1.27848,444.0278,39.340234)"
       clip-path="none"
       id="text26953"><tspan
         style="font-variant:normal;font-weight:normal;font-size:9px;font-family:Carlito;writing-mode:lr-tb;fill:#000000;fill-opacity:1;fill-rule:nonzero;stroke:none"
         x="0"
         dx="0 0 -0.0052734399 0 -0.0056640599"
         y="0"
         id="tspan26953">BBBBBB</tspan></text>
    <text
       xml:space="preserve"
       transform="matrix(1.27848,0,0,1.27848,452.5975,50.800014)"
       clip-path="none"
       id="text26954"><tspan
         style="font-variant:normal;font-weight:normal;font-size:9px;font-family:Carlito;writing-mode:lr-tb;fill:#000000;fill-opacity:1;fill-rule:nonzero;stroke:none"
         x="0"
         dx="0 0 0 0.0059570302"
         y="0"
         id="tspan26954">grey</tspan></text>
  </g>
  <text
     xml:space="preserve"
     clip-path="none"
     id="text1"
     x="-0.80903602"
     y="38.599216"
     style="font-size:15.3418px;stroke-width:1.27848"><tspan
       style="font-variant:normal;font-weight:normal;font-size:11.5063px;font-family:Carlito;writing-mode:lr-tb;fill:#000000;fill-opacity:1;fill-rule:nonzero;stroke:none;stroke-width:1.27848"
       x="-0.80903602"
       y="38.599216"
       id="tspan1">bright</tspan></text>
</svg>
