<?xml version="1.0" encoding="UTF-8" standalone="no"?>
<!-- Created with Inkscape (http://www.inkscape.org/) -->

<svg
   version="1.1"
   id="svg1"
   width="640.08691"
   height="65.403931"
   viewBox="0 0 640.08691 65.40393"
   sodipodi:docname="BuRd.svg"
   inkscape:version="1.4.1 (1:1.4.1+202503302257+93de688d07)"
   xmlns:inkscape="http://www.inkscape.org/namespaces/inkscape"
   xmlns:sodipodi="http://sodipodi.sourceforge.net/DTD/sodipodi-0.dtd"
   xmlns="http://www.w3.org/2000/svg"
   xmlns:svg="http://www.w3.org/2000/svg">
  <sodipodi:namedview
     id="namedview1"
     pagecolor="#ffffff"
     bordercolor="#666666"
     borderopacity="1.0"
     inkscape:showpageshadow="2"
     inkscape:pageopacity="0.0"
     inkscape:pagecheckerboard="0"
     inkscape:deskcolor="#d1d1d1"
     inkscape:zoom="0.88265875"
     inkscape:cx="-96.866427"
     inkscape:cy="103.66407"
     inkscape:window-width="1680"
     inkscape:window-height="1013"
     inkscape:window-x="1920"
     inkscape:window-y="0"
     inkscape:window-maximized="1"
     inkscape:current-layer="svg1" />
  <defs
     id="defs1">
    <clipPath
       clipPathUnits="userSpaceOnUse"
       id="clipPath171">
      <path
         d="M 0,0 H 5600 V 591.762 H 0 Z"
         transform="translate(-2.9052201e-6,2.90522e-5)"
         id="path171" />
    </clipPath>
    <clipPath
       clipPathUnits="userSpaceOnUse"
       id="clipPath172">
      <path
         d="M 0,0 H 5600 V 591.762 H 0 Z"
         transform="translate(-2.9052201e-6,2.90522e-5)"
         id="path172" />
    </clipPath>
    <clipPath
       clipPathUnits="userSpaceOnUse"
       id="clipPath178">
      <path
         d="M 0,0 H 5600 V 591.762 H 0 Z"
         transform="translate(-2.9052201e-6,2.90522e-5)"
         id="path178" />
    </clipPath>
    <clipPath
       clipPathUnits="userSpaceOnUse"
       id="clipPath179">
      <path
         d="M 0,0 H 5600 V 591.762 H 0 Z"
         transform="translate(-2.9052201e-6,2.90522e-5)"
         id="path179" />
    </clipPath>
    <clipPath
       clipPathUnits="userSpaceOnUse"
       id="clipPath185">
      <path
         d="M 0,0 H 5600 V 591.762 H 0 Z"
         transform="translate(-2.9052201e-6,2.90522e-5)"
         id="path185" />
    </clipPath>
    <clipPath
       clipPathUnits="userSpaceOnUse"
       id="clipPath186">
      <path
         d="M 0,0 H 5600 V 591.762 H 0 Z"
         transform="translate(-2.9052201e-6,2.90522e-5)"
         id="path186" />
    </clipPath>
    <clipPath
       clipPathUnits="userSpaceOnUse"
       id="clipPath192">
      <path
         d="M 0,0 H 5600 V 591.762 H 0 Z"
         transform="translate(-2.9052201e-6,2.90522e-5)"
         id="path192" />
    </clipPath>
    <clipPath
       clipPathUnits="userSpaceOnUse"
       id="clipPath193">
      <path
         d="M 0,0 H 5600 V 591.762 H 0 Z"
         transform="translate(-2.9052201e-6,2.90522e-5)"
         id="path193" />
    </clipPath>
    <clipPath
       clipPathUnits="userSpaceOnUse"
       id="clipPath199">
      <path
         d="M 0,0 H 5600 V 591.762 H 0 Z"
         transform="translate(-2.9052201e-6,2.90522e-5)"
         id="path199" />
    </clipPath>
    <clipPath
       clipPathUnits="userSpaceOnUse"
       id="clipPath200">
      <path
         d="M 0,0 H 5600 V 591.762 H 0 Z"
         transform="translate(-2.9052201e-6,2.90522e-5)"
         id="path200" />
    </clipPath>
    <clipPath
       clipPathUnits="userSpaceOnUse"
       id="clipPath206">
      <path
         d="M 0,0 H 5600 V 591.762 H 0 Z"
         transform="translate(-2.9052201e-6,2.90522e-5)"
         id="path206" />
    </clipPath>
    <clipPath
       clipPathUnits="userSpaceOnUse"
       id="clipPath207">
      <path
         d="M 0,0 H 5600 V 591.762 H 0 Z"
         transform="translate(-2.9052201e-6,2.90522e-5)"
         id="path207" />
    </clipPath>
    <clipPath
       clipPathUnits="userSpaceOnUse"
       id="clipPath213">
      <path
         d="M 0,0 H 5600 V 591.762 H 0 Z"
         transform="translate(-2.9052201e-6,2.90522e-5)"
         id="path213" />
    </clipPath>
    <clipPath
       clipPathUnits="userSpaceOnUse"
       id="clipPath214">
      <path
         d="M 0,0 H 5600 V 591.762 H 0 Z"
         transform="translate(-2.9052201e-6,2.90522e-5)"
         id="path214" />
    </clipPath>
    <clipPath
       clipPathUnits="userSpaceOnUse"
       id="clipPath220">
      <path
         d="M 0,0 H 5600 V 591.762 H 0 Z"
         transform="translate(-2.9052201e-6,2.90522e-5)"
         id="path220" />
    </clipPath>
    <clipPath
       clipPathUnits="userSpaceOnUse"
       id="clipPath221">
      <path
         d="M 0,0 H 5600 V 591.762 H 0 Z"
         transform="translate(-2.9052201e-6,2.90522e-5)"
         id="path221" />
    </clipPath>
    <clipPath
       clipPathUnits="userSpaceOnUse"
       id="clipPath227">
      <path
         d="M 0,0 H 5600 V 591.762 H 0 Z"
         transform="translate(-2.9052201e-6,2.90522e-5)"
         id="path227" />
    </clipPath>
    <clipPath
       clipPathUnits="userSpaceOnUse"
       id="clipPath228">
      <path
         d="M 0,0 H 5600 V 591.762 H 0 Z"
         transform="translate(-2.9052201e-6,2.90522e-5)"
         id="path228" />
    </clipPath>
    <clipPath
       clipPathUnits="userSpaceOnUse"
       id="clipPath234">
      <path
         d="M 0,0 H 5600 V 591.762 H 0 Z"
         transform="translate(-2.9052201e-6,2.90522e-5)"
         id="path234" />
    </clipPath>
  </defs>
  <path
     d="M 553.762,408.32 394.75,567.328 H 169.871 L 10.8594,408.32 V 183.441 L 169.871,24.4297 H 394.75 L 553.762,183.441"
     style="fill:#2166ac;fill-opacity:1;fill-rule:nonzero;stroke:none"
     transform="matrix(0.114736,0,0,-0.114736,-1.1886,66.64989)"
     clip-path="none"
     id="path240" />
  <text
     xml:space="preserve"
     transform="matrix(1.14736,0,0,1.14736,7.681479,29.25983)"
     clip-path="none"
     id="text241"><tspan
       style="font-variant:normal;font-weight:normal;font-size:9px;font-family:Carlito;writing-mode:lr-tb;fill:#000000;fill-opacity:1;fill-rule:nonzero;stroke:none"
       x="0"
       y="0"
       id="tspan241">33,102,172</tspan></text>
  <text
     xml:space="preserve"
     transform="matrix(1.14736,0,0,1.14736,14.995945,40.96291)"
     clip-path="none"
     id="text242"><tspan
       style="font-variant:normal;font-weight:normal;font-size:9px;font-family:Carlito;writing-mode:lr-tb;fill:#000000;fill-opacity:1;fill-rule:nonzero;stroke:none"
       x="0"
       y="0"
       id="tspan242">2166AC</tspan></text>
  <path
     d="M 1096.66,408.32 937.641,567.328 H 712.77 L 553.762,408.32 V 183.441 L 712.77,24.4297 H 937.641 L 1096.66,183.441"
     style="fill:#4393c3;fill-opacity:1;fill-rule:nonzero;stroke:none"
     transform="matrix(0.114736,0,0,-0.114736,-1.1886,66.64989)"
     clip-path="none"
     id="path243" />
  <text
     xml:space="preserve"
     transform="matrix(1.14736,0,0,1.14736,69.971933,29.25983)"
     clip-path="none"
     id="text244"><tspan
       style="font-variant:normal;font-weight:normal;font-size:9px;font-family:Carlito;writing-mode:lr-tb;fill:#000000;fill-opacity:1;fill-rule:nonzero;stroke:none"
       x="0"
       y="0"
       id="tspan244">67,147,195</tspan></text>
  <text
     xml:space="preserve"
     transform="matrix(1.14736,0,0,1.14736,77.653393,40.96291)"
     clip-path="none"
     id="text245"><tspan
       style="font-variant:normal;font-weight:normal;font-size:9px;font-family:Carlito;writing-mode:lr-tb;fill:#000000;fill-opacity:1;fill-rule:nonzero;stroke:none"
       x="0"
       y="0"
       id="tspan245">4393C3</tspan></text>
  <path
     d="M 1639.55,408.32 1480.54,567.328 H 1255.67 L 1096.66,408.32 V 183.441 L 1255.67,24.4297 h 224.87 l 159.01,159.0113"
     style="fill:#92c5de;fill-opacity:1;fill-rule:nonzero;stroke:none"
     transform="matrix(0.114736,0,0,-0.114736,-1.1886,66.64989)"
     clip-path="none"
     id="path246" />
  <text
     xml:space="preserve"
     transform="matrix(1.14736,0,0,1.14736,129.64371,29.25983)"
     clip-path="none"
     id="text247"><tspan
       style="font-variant:normal;font-weight:normal;font-size:9px;font-family:Carlito;writing-mode:lr-tb;fill:#000000;fill-opacity:1;fill-rule:nonzero;stroke:none"
       x="0"
       y="0"
       id="tspan247">146,197,222</tspan></text>
  <text
     xml:space="preserve"
     transform="matrix(1.14736,0,0,1.14736,139.48576,40.96291)"
     clip-path="none"
     id="text248"><tspan
       style="font-variant:normal;font-weight:normal;font-size:9px;font-family:Carlito;writing-mode:lr-tb;fill:#000000;fill-opacity:1;fill-rule:nonzero;stroke:none"
       x="0"
       dx="0 0 0 0 0 -0.0050781202"
       y="0"
       id="tspan248">92C5DE</tspan></text>
  <path
     d="M 2182.45,408.32 2023.44,567.328 H 1798.57 L 1639.55,408.32 V 183.441 L 1798.57,24.4297 h 224.87 l 159.01,159.0113"
     style="fill:#d1e5f0;fill-opacity:1;fill-rule:nonzero;stroke:none"
     transform="matrix(0.114736,0,0,-0.114736,-1.1886,66.64989)"
     clip-path="none"
     id="path249" />
  <text
     xml:space="preserve"
     transform="matrix(1.14736,0,0,1.14736,191.93388,29.25983)"
     clip-path="none"
     id="text250"><tspan
       style="font-variant:normal;font-weight:normal;font-size:9px;font-family:Carlito;writing-mode:lr-tb;fill:#000000;fill-opacity:1;fill-rule:nonzero;stroke:none"
       x="0"
       y="0"
       id="tspan250">209,229,240</tspan></text>
  <text
     xml:space="preserve"
     transform="matrix(1.14736,0,0,1.14736,202.15227,40.96291)"
     clip-path="none"
     id="text251"><tspan
       style="font-variant:normal;font-weight:normal;font-size:9px;font-family:Carlito;writing-mode:lr-tb;fill:#000000;fill-opacity:1;fill-rule:nonzero;stroke:none"
       x="0"
       dx="0 -0.0062500001 0 0 0 0.0057617198"
       y="0"
       id="tspan251">D1E5F0</tspan></text>
  <path
     d="M 2725.35,408.32 2566.34,567.328 H 2341.46 L 2182.45,408.32 V 183.441 L 2341.46,24.4297 h 224.88 l 159.01,159.0113"
     style="fill:#f7f7f7;fill-opacity:1;fill-rule:nonzero;stroke:none"
     transform="matrix(0.114736,0,0,-0.114736,-1.1886,66.64989)"
     clip-path="none"
     id="path252" />
  <text
     xml:space="preserve"
     transform="matrix(1.14736,0,0,1.14736,254.22406,29.25983)"
     clip-path="none"
     id="text253"><tspan
       style="font-variant:normal;font-weight:normal;font-size:9px;font-family:Carlito;writing-mode:lr-tb;fill:#000000;fill-opacity:1;fill-rule:nonzero;stroke:none"
       x="0"
       y="0"
       id="tspan253">247,247,247</tspan></text>
  <text
     xml:space="preserve"
     transform="matrix(1.14736,0,0,1.14736,265.38443,40.96291)"
     clip-path="none"
     id="text254"><tspan
       style="font-variant:normal;font-weight:normal;font-size:9px;font-family:Carlito;writing-mode:lr-tb;fill:#000000;fill-opacity:1;fill-rule:nonzero;stroke:none"
       x="0"
       dx="0 0.0057617198 0 0.0057617198 0 0.00537109"
       y="0"
       id="tspan254">F7F7F7</tspan></text>
  <path
     d="M 3268.25,408.32 3109.24,567.328 H 2884.36 L 2725.35,408.32 V 183.441 L 2884.36,24.4297 h 224.88 l 159.01,159.0113"
     style="fill:#fddbc7;fill-opacity:1;fill-rule:nonzero;stroke:none"
     transform="matrix(0.114736,0,0,-0.114736,-1.1886,66.64989)"
     clip-path="none"
     id="path255" />
  <text
     xml:space="preserve"
     transform="matrix(1.14736,0,0,1.14736,316.51423,29.25983)"
     clip-path="none"
     id="text256"><tspan
       style="font-variant:normal;font-weight:normal;font-size:9px;font-family:Carlito;writing-mode:lr-tb;fill:#000000;fill-opacity:1;fill-rule:nonzero;stroke:none"
       x="0"
       y="0"
       id="tspan256">253,219,199</tspan></text>
  <text
     xml:space="preserve"
     transform="matrix(1.14736,0,0,1.14736,325.75622,40.96291)"
     clip-path="none"
     id="text257"><tspan
       style="font-variant:normal;font-weight:normal;font-size:9px;font-family:Carlito;writing-mode:lr-tb;fill:#000000;fill-opacity:1;fill-rule:nonzero;stroke:none"
       x="0"
       dx="0 0.0057617198 -0.0058593801 -0.0062500001"
       y="0"
       id="tspan257">FDDBC7</tspan></text>
  <path
     d="M 3811.15,408.32 3652.14,567.328 H 3427.26 L 3268.25,408.32 V 183.441 L 3427.26,24.4297 h 224.88 l 159.01,159.0113"
     style="fill:#f4a582;fill-opacity:1;fill-rule:nonzero;stroke:none"
     transform="matrix(0.114736,0,0,-0.114736,-1.1886,66.64989)"
     clip-path="none"
     id="path258" />
  <text
     xml:space="preserve"
     transform="matrix(1.14736,0,0,1.14736,378.80441,29.25983)"
     clip-path="none"
     id="text259"><tspan
       style="font-variant:normal;font-weight:normal;font-size:9px;font-family:Carlito;writing-mode:lr-tb;fill:#000000;fill-opacity:1;fill-rule:nonzero;stroke:none"
       x="0"
       y="0"
       id="tspan259">244,165,130</tspan></text>
  <text
     xml:space="preserve"
     transform="matrix(1.14736,0,0,1.14736,389.11229,40.96291)"
     clip-path="none"
     id="text260"><tspan
       style="font-variant:normal;font-weight:normal;font-size:9px;font-family:Carlito;writing-mode:lr-tb;fill:#000000;fill-opacity:1;fill-rule:nonzero;stroke:none"
       x="0"
       dx="0 0.0057617198"
       y="0"
       id="tspan260">F4A582</tspan></text>
  <path
     d="M 4354.05,408.32 4195.04,567.328 H 3970.16 L 3811.15,408.32 V 183.441 L 3970.16,24.4297 h 224.88 l 159.01,159.0113"
     style="fill:#d6604d;fill-opacity:1;fill-rule:nonzero;stroke:none"
     transform="matrix(0.114736,0,0,-0.114736,-1.1886,66.64989)"
     clip-path="none"
     id="path261" />
  <text
     xml:space="preserve"
     transform="matrix(1.14736,0,0,1.14736,446.32884,29.25983)"
     clip-path="none"
     id="text262"><tspan
       style="font-variant:normal;font-weight:normal;font-size:9px;font-family:Carlito;writing-mode:lr-tb;fill:#000000;fill-opacity:1;fill-rule:nonzero;stroke:none"
       x="0"
       y="0"
       id="tspan262">214,96,77</tspan></text>
  <text
     xml:space="preserve"
     transform="matrix(1.14736,0,0,1.14736,450.41688,40.96291)"
     clip-path="none"
     id="text263"><tspan
       style="font-variant:normal;font-weight:normal;font-size:9px;font-family:Carlito;writing-mode:lr-tb;fill:#000000;fill-opacity:1;fill-rule:nonzero;stroke:none"
       x="0"
       dx="0 -0.0058593801"
       y="0"
       id="tspan263">D6604D</tspan></text>
  <path
     d="M 4896.95,408.32 4737.93,567.328 H 4513.06 L 4354.05,408.32 V 183.441 L 4513.06,24.4297 h 224.87 l 159.02,159.0113"
     style="fill:#b2182b;fill-opacity:1;fill-rule:nonzero;stroke:none"
     transform="matrix(0.114736,0,0,-0.114736,-1.1886,66.64989)"
     clip-path="none"
     id="path264" />
  <text
     xml:space="preserve"
     transform="matrix(1.14736,0,0,1.14736,508.61901,29.25983)"
     clip-path="none"
     id="text265"><tspan
       style="font-variant:normal;font-weight:normal;font-size:9px;font-family:Carlito;writing-mode:lr-tb;fill:#000000;fill-opacity:1;fill-rule:nonzero;stroke:none"
       x="0"
       y="0"
       id="tspan265">178,24,43</tspan></text>
  <text
     xml:space="preserve"
     transform="matrix(1.14736,0,0,1.14736,513.44137,40.96291)"
     clip-path="none"
     id="text266"><tspan
       style="font-variant:normal;font-weight:normal;font-size:9px;font-family:Carlito;writing-mode:lr-tb;fill:#000000;fill-opacity:1;fill-rule:nonzero;stroke:none"
       x="0"
       y="0"
       id="tspan266">B2182B</tspan></text>
  <path
     d="m 5589.14,295.879 c 0,75.59 -30.03,148.09 -83.48,201.543 -53.45,53.449 -125.95,83.476 -201.54,83.476 -75.59,0 -148.09,-30.027 -201.54,-83.476 -53.45,-53.453 -83.48,-125.953 -83.48,-201.543 0,-75.59 30.03,-148.09 83.48,-201.5392 53.45,-53.4492 125.95,-83.4804 201.54,-83.4804 75.59,0 148.09,30.0312 201.54,83.4804 53.45,53.4492 83.48,125.9492 83.48,201.5392"
     style="fill:#ffee99;fill-opacity:1;fill-rule:evenodd;stroke:none"
     transform="matrix(0.114736,0,0,-0.114736,-1.1886,66.64989)"
     clip-path="none"
     id="path267" />
  <text
     xml:space="preserve"
     transform="matrix(1.14736,0,0,1.14736,581.2469,29.25983)"
     clip-path="none"
     id="text268"><tspan
       style="font-variant:normal;font-weight:normal;font-size:9px;font-family:Carlito;writing-mode:lr-tb;fill:#000000;fill-opacity:1;fill-rule:nonzero;stroke:none"
       x="0"
       y="0"
       id="tspan268">255,238,153</tspan></text>
  <text
     xml:space="preserve"
     transform="matrix(1.14736,0,0,1.14736,592.36138,40.96291)"
     clip-path="none"
     id="text269"><tspan
       style="font-variant:normal;font-weight:normal;font-size:9px;font-family:Carlito;writing-mode:lr-tb;fill:#000000;fill-opacity:1;fill-rule:nonzero;stroke:none"
       x="0"
       dx="0 0.0057617198"
       y="0"
       id="tspan269">FFEE99</tspan></text>
</svg>
