<?xml version="1.0" encoding="UTF-8" standalone="no"?>
<!-- Created with Inkscape (http://www.inkscape.org/) -->

<svg
   version="1.1"
   id="svg1"
   width="427.56534"
   height="89.767319"
   viewBox="0 0 427.56533 89.767317"
   sodipodi:docname="high-contrast.svg"
   inkscape:version="1.4.1 (1:1.4.1+202503302257+93de688d07)"
   xmlns:inkscape="http://www.inkscape.org/namespaces/inkscape"
   xmlns:sodipodi="http://sodipodi.sourceforge.net/DTD/sodipodi-0.dtd"
   xmlns="http://www.w3.org/2000/svg"
   xmlns:svg="http://www.w3.org/2000/svg">
  <defs
     id="defs1">
    <clipPath
       clipPathUnits="userSpaceOnUse"
       id="clipPath26994">
      <path
         d="M 0,0 H 280 V 72 H 0 Z"
         transform="matrix(1.27824,0,0,-1.27824,3472.712,326.268)"
         id="path26994" />
    </clipPath>
    <clipPath
       clipPathUnits="userSpaceOnUse"
       id="clipPath26998">
      <path
         d="M 0,0 H 280 V 72 H 0 Z"
         transform="matrix(1.27824,0,0,-1.27824,3472.712,326.268)"
         id="path26998" />
    </clipPath>
    <clipPath
       clipPathUnits="userSpaceOnUse"
       id="clipPath27000">
      <path
         d="M 0,0 H 280 V 72 H 0 Z"
         transform="matrix(1.27824,0,0,-1.27824,3472.712,326.268)"
         id="path27000" />
    </clipPath>
    <clipPath
       clipPathUnits="userSpaceOnUse"
       id="clipPath27004">
      <path
         d="M 0,0 H 280 V 72 H 0 Z"
         transform="matrix(1.27824,0,0,-1.27824,3472.712,326.268)"
         id="path27004" />
    </clipPath>
    <clipPath
       clipPathUnits="userSpaceOnUse"
       id="clipPath27006">
      <path
         d="M 0,0 H 280 V 72 H 0 Z"
         transform="matrix(1.27824,0,0,-1.27824,3472.712,326.268)"
         id="path27006" />
    </clipPath>
    <clipPath
       clipPathUnits="userSpaceOnUse"
       id="clipPath27012">
      <path
         d="M 0,0 H 280 V 72 H 0 Z"
         transform="matrix(1.27824,0,0,-1.27824,3472.712,326.268)"
         id="path27012" />
    </clipPath>
  </defs>
  <sodipodi:namedview
     id="namedview1"
     pagecolor="#ffffff"
     bordercolor="#666666"
     borderopacity="1.0"
     inkscape:showpageshadow="2"
     inkscape:pageopacity="0.0"
     inkscape:pagecheckerboard="0"
     inkscape:deskcolor="#d1d1d1"
     inkscape:zoom="3.1652832"
     inkscape:cx="75.032781"
     inkscape:cy="12.795064"
     inkscape:window-width="1680"
     inkscape:window-height="1013"
     inkscape:window-x="1920"
     inkscape:window-y="0"
     inkscape:window-maximized="1"
     inkscape:current-layer="svg1">
    <inkscape:page
       x="0"
       y="0"
       width="427.56534"
       height="89.767319"
       id="page2"
       margin="0"
       bleed="0" />
  </sodipodi:namedview>
  <g
     id="g3"
     inkscape:label="yellow"
     transform="translate(-3401.6975,-235.58063)">
    <path
       d="M 1122.22,542.84 959.5,705.559 H 729.391 L 566.672,542.84 V 312.719 L 729.391,150 H 959.5 l 162.72,162.719"
       style="fill:#ddaa33;fill-opacity:1;fill-rule:nonzero;stroke:none"
       transform="matrix(0.127824,0,0,-0.127824,3472.712,326.268)"
       clip-path="none"
       id="path27022" />
    <path
       d="m 566.672,11.1094 h 555.547 v 138.891 H 566.672 Z"
       style="fill:#b2b2b2;fill-opacity:1;fill-rule:nonzero;stroke:#b2b2b2;stroke-width:1;stroke-linecap:round;stroke-linejoin:bevel;stroke-miterlimit:3.239;stroke-dasharray:none;stroke-opacity:1"
       transform="matrix(0.127824,0,0,-0.127824,3472.712,326.268)"
       clip-path="none"
       id="path27026" />
    <text
       xml:space="preserve"
       transform="matrix(1.27824,0,0,1.27824,3561.0997,274.9427)"
       clip-path="none"
       id="text27024"><tspan
         style="font-variant:normal;font-weight:normal;font-size:9px;font-family:Carlito;writing-mode:lr-tb;fill:#000000;fill-opacity:1;fill-rule:nonzero;stroke:none"
         x="0"
         dx="0 -0.0062500001 -0.0058593801"
         y="0"
         id="tspan27024">DDAA33</tspan></text>
    <text
       xml:space="preserve"
       transform="matrix(1.27824,0,0,1.27824,3565.3933,287.21023)"
       clip-path="none"
       id="text27025"><tspan
         style="font-variant:normal;font-weight:normal;font-size:9px;font-family:Carlito;writing-mode:lr-tb;fill:#000000;fill-opacity:1;fill-rule:nonzero;stroke:none"
         x="0"
         dx="0 0 0.0059570302"
         y="0"
         id="tspan27025">yellow</tspan></text>
    <text
       xml:space="preserve"
       transform="matrix(1.27824,0,0,1.27824,3554.4479,262.1488)"
       clip-path="none"
       id="text27023"><tspan
         style="font-variant:normal;font-weight:normal;font-size:9px;font-family:Carlito;writing-mode:lr-tb;fill:#000000;fill-opacity:1;fill-rule:nonzero;stroke:none"
         x="0"
         y="0"
         id="tspan27023">221,170,51</tspan></text>
  </g>
  <g
     id="g2"
     inkscape:label="red"
     transform="translate(-3401.6975,-235.58063)">
    <path
       d="M 1677.78,542.84 1515.06,705.559 H 1284.94 L 1122.22,542.84 V 312.719 L 1284.94,150 h 230.12 l 162.72,162.719"
       style="fill:#bb5566;fill-opacity:1;fill-rule:nonzero;stroke:none"
       transform="matrix(0.127824,0,0,-0.127824,3472.712,326.268)"
       clip-path="none"
       id="path27027" />
    <path
       d="m 1122.22,11.1094 h 555.563 v 138.891 H 1122.22 Z"
       style="fill:#767676;fill-opacity:1;fill-rule:nonzero;stroke:#767676;stroke-width:1;stroke-linecap:round;stroke-linejoin:bevel;stroke-miterlimit:3.239;stroke-dasharray:none;stroke-opacity:1"
       transform="matrix(0.127824,0,0,-0.127824,3472.712,326.268)"
       clip-path="none"
       id="path27031" />
    <text
       xml:space="preserve"
       transform="matrix(1.27824,0,0,1.27824,3625.4617,262.1488)"
       clip-path="none"
       id="text27028"><tspan
         style="font-variant:normal;font-weight:normal;font-size:9px;font-family:Carlito;writing-mode:lr-tb;fill:#000000;fill-opacity:1;fill-rule:nonzero;stroke:none"
         x="0"
         y="0"
         id="tspan27028">187,85,102</tspan></text>
    <text
       xml:space="preserve"
       transform="matrix(1.27824,0,0,1.27824,3633.7498,274.9427)"
       clip-path="none"
       id="text27029"><tspan
         style="font-variant:normal;font-weight:normal;font-size:9px;font-family:Carlito;writing-mode:lr-tb;fill:#000000;fill-opacity:1;fill-rule:nonzero;stroke:none"
         x="0"
         dx="0 0 -0.0056640599"
         y="0"
         id="tspan27029">BB5566</tspan></text>
    <text
       xml:space="preserve"
       transform="matrix(1.27824,0,0,1.27824,3643.7661,288.16891)"
       clip-path="none"
       id="text27030"><tspan
         style="font-variant:normal;font-weight:normal;font-size:9px;font-family:Carlito;writing-mode:lr-tb;fill:#000000;fill-opacity:1;fill-rule:nonzero;stroke:none"
         x="0"
         dx="0 0 0.0059570302"
         y="0"
         id="tspan27030">red</tspan></text>
  </g>
  <g
     clip-path="none"
     id="g27034"
     inkscape:label="blue"
     transform="translate(-3401.6975,-235.58063)">
    <path
       d="M 2233.33,542.84 2070.61,705.559 H 1840.5 L 1677.78,542.84 V 312.719 L 1840.5,150 h 230.11 l 162.72,162.719"
       style="fill:#004488;fill-opacity:1;fill-rule:nonzero;stroke:none"
       transform="matrix(0.127824,0,0,-0.127824,3472.712,326.268)"
       clip-path="none"
       id="path27032" />
    <path
       d="m 1677.78,11.1094 h 555.551 v 138.891 H 1677.78 Z"
       style="fill:#454545;fill-opacity:1;fill-rule:nonzero;stroke:#454545;stroke-width:1;stroke-linecap:round;stroke-linejoin:bevel;stroke-miterlimit:3.239;stroke-dasharray:none;stroke-opacity:1"
       transform="matrix(0.127824,0,0,-0.127824,3472.712,326.268)"
       clip-path="none"
       id="path27036" />
    <text
       xml:space="preserve"
       transform="matrix(1.27824,0,0,1.27824,3702.3069,262.1488)"
       clip-path="none"
       id="text27033"><tspan
         style="font-variant:normal;font-weight:normal;font-size:9px;font-family:Carlito;writing-mode:lr-tb;fill:#000000;fill-opacity:1;fill-rule:nonzero;stroke:none"
         x="0"
         y="0"
         id="tspan27033">0,68,136</tspan></text>
    <text
       xml:space="preserve"
       transform="matrix(1.27824,0,0,1.27824,3705.183,274.9427)"
       clip-path="none"
       id="text27034"><tspan
         style="font-variant:normal;font-weight:normal;font-size:9px;font-family:Carlito;writing-mode:lr-tb;fill:#000000;fill-opacity:1;fill-rule:nonzero;stroke:none"
         x="0"
         y="0"
         id="tspan27034">004488</tspan></text>
    <text
       xml:space="preserve"
       transform="matrix(1.27824,0,0,1.27824,3712.4434,288.16891)"
       clip-path="none"
       id="text27035"><tspan
         style="font-variant:normal;font-weight:normal;font-size:9px;font-family:Carlito;writing-mode:lr-tb;fill:#000000;fill-opacity:1;fill-rule:nonzero;stroke:none"
         x="0"
         dx="0 0.0054687499 0 0.0054687499"
         y="0"
         id="tspan27035">blue</tspan></text>
  </g>
  <g
     id="g1"
     inkscape:label="black"
     transform="translate(-3401.6975,-235.58063)">
    <path
       d="M 2788.89,542.84 2626.17,705.559 H 2396.05 L 2233.33,542.84 V 312.719 L 2396.05,150 h 230.12 l 162.72,162.719"
       style="fill:#000000;fill-opacity:1;fill-rule:nonzero;stroke:none"
       transform="matrix(0.127824,0,0,-0.127824,3472.712,326.268)"
       clip-path="none"
       id="path27037" />
    <path
       d="m 2233.33,11.1094 h 555.559 v 138.891 H 2233.33 Z"
       style="fill:#000000;fill-opacity:1;fill-rule:nonzero;stroke:#000000;stroke-width:1;stroke-linecap:round;stroke-linejoin:bevel;stroke-miterlimit:3.239;stroke-dasharray:none;stroke-opacity:1"
       transform="matrix(0.127824,0,0,-0.127824,3472.712,326.268)"
       clip-path="none"
       id="path27041" />
    <text
       xml:space="preserve"
       transform="matrix(1.27824,0,0,1.27824,3776.1969,274.9427)"
       clip-path="none"
       id="text27039"><tspan
         style="font-variant:normal;font-weight:normal;font-size:9px;font-family:Carlito;writing-mode:lr-tb;fill:#ffffff;fill-opacity:1;fill-rule:nonzero;stroke:none"
         x="0"
         y="0"
         id="tspan27039">000000</tspan></text>
    <text
       xml:space="preserve"
       transform="matrix(1.27824,0,0,1.27824,3782.0678,262.1488)"
       clip-path="none"
       id="text27038"><tspan
         style="font-variant:normal;font-weight:normal;font-size:9px;font-family:Carlito;writing-mode:lr-tb;fill:#ffffff;fill-opacity:1;fill-rule:nonzero;stroke:none"
         x="0"
         y="0"
         id="tspan27038">0,0,0</tspan></text>
    <text
       xml:space="preserve"
       transform="matrix(1.27824,0,0,1.27824,3781.5386,288.16891)"
       clip-path="none"
       id="text27040"><tspan
         style="font-variant:normal;font-weight:normal;font-size:9px;font-family:Carlito;writing-mode:lr-tb;fill:#ffffff;fill-opacity:1;fill-rule:nonzero;stroke:none"
         x="0"
         dx="0 0.0054687499 0 0 0.0072265598"
         y="0"
         id="tspan27040">black</tspan></text>
  </g>
  <g
     id="g4"
     inkscape:label="white"
     transform="translate(-3401.6975,-235.58063)">
    <path
       d="m 3545.1463,256.88002 -20.7999,-20.79939 h -29.415 l -20.7994,20.79939 v 29.41499 l 20.7994,20.79939 h 29.415 l 20.7999,-20.79939 v -29.41499"
       style="fill:none;stroke:#000000;stroke-width:1;stroke-linecap:round;stroke-linejoin:round;stroke-miterlimit:3.239;stroke-dasharray:none;stroke-opacity:1"
       clip-path="none"
       id="path27015" />
    <path
       d="m 3545.1463,307.0944 h -71.0143 v 17.75355 h 71.0143 V 307.0944"
       style="fill:none;stroke:#000000;stroke-width:1;stroke-linecap:round;stroke-linejoin:round;stroke-miterlimit:3.239;stroke-dasharray:none;stroke-opacity:1"
       clip-path="none"
       id="path27016" />
    <text
       xml:space="preserve"
       transform="matrix(1.27824,0,0,1.27824,3496.3874,288.16891)"
       clip-path="none"
       id="text27020"><tspan
         style="font-variant:normal;font-weight:normal;font-size:9px;font-family:Carlito;writing-mode:lr-tb;fill:#000000;fill-opacity:1;fill-rule:nonzero;stroke:none"
         x="0"
         dx="0 0 0.0054687499"
         y="0"
         id="tspan27020">white</tspan></text>
    <text
       xml:space="preserve"
       transform="matrix(1.27824,0,0,1.27824,3480.5192,262.1488)"
       clip-path="none"
       id="text27018"><tspan
         style="font-variant:normal;font-weight:normal;font-size:9px;font-family:Carlito;writing-mode:lr-tb;fill:#000000;fill-opacity:1;fill-rule:nonzero;stroke:none"
         x="0"
         y="0"
         id="tspan27018">255,255,255</tspan></text>
    <text
       xml:space="preserve"
       transform="matrix(1.27824,0,0,1.27824,3493.761,274.9427)"
       clip-path="none"
       id="text27019"><tspan
         style="font-variant:normal;font-weight:normal;font-size:9px;font-family:Carlito;writing-mode:lr-tb;fill:#000000;fill-opacity:1;fill-rule:nonzero;stroke:none"
         x="0"
         dx="0 0.00537109 0 0.0057617198 0 0.0057617198"
         y="0"
         id="tspan27019">FFFFFF</tspan></text>
  </g>
  <text
     xml:space="preserve"
     clip-path="none"
     id="text1"
     x="87.904083"
     y="39.959366"
     style="font-size:15.3418px;text-align:end;text-anchor:end;stroke-width:1.27848"><tspan
       style="font-variant:normal;font-weight:normal;font-size:11.5063px;font-family:Carlito;text-align:end;writing-mode:lr-tb;text-anchor:end;fill:#000000;fill-opacity:1;fill-rule:nonzero;stroke:none;stroke-width:1.27848"
       x="61.009235"
       y="39.959366"
       id="tspan1">high-contrast</tspan></text>
</svg>
