<?xml version="1.0" encoding="UTF-8" standalone="no"?>
<!-- Created with Inkscape (http://www.inkscape.org/) -->

<svg
   version="1.1"
   id="svg1"
   width="640.9502"
   height="68.390991"
   viewBox="0 0 640.95019 68.39099"
   sodipodi:docname="iridescent.svg"
   inkscape:version="1.4.1 (1:1.4.1+202503302257+93de688d07)"
   xmlns:inkscape="http://www.inkscape.org/namespaces/inkscape"
   xmlns:sodipodi="http://sodipodi.sourceforge.net/DTD/sodipodi-0.dtd"
   xmlns="http://www.w3.org/2000/svg"
   xmlns:svg="http://www.w3.org/2000/svg">
  <defs
     id="defs1">
    <clipPath
       clipPathUnits="userSpaceOnUse"
       id="clipPath43089">
      <path
         d="M 0,0 V 879 H 8080 V 0 Z"
         transform="translate(0,4.1916768e-5)"
         id="path43089" />
    </clipPath>
    <clipPath
       clipPathUnits="userSpaceOnUse"
       id="clipPath43090">
      <path
         d="M 0,0 V 879 H 8080 V 0 Z"
         transform="translate(0,4.1916768e-5)"
         id="path43090" />
    </clipPath>
    <clipPath
       clipPathUnits="userSpaceOnUse"
       id="clipPath43096">
      <path
         d="M 0,0 V 879 H 8080 V 0 Z"
         transform="translate(0,4.1916768e-5)"
         id="path43096" />
    </clipPath>
    <clipPath
       clipPathUnits="userSpaceOnUse"
       id="clipPath43097">
      <path
         d="M 0,0 V 879 H 8080 V 0 Z"
         transform="translate(0,4.1916768e-5)"
         id="path43097" />
    </clipPath>
    <clipPath
       clipPathUnits="userSpaceOnUse"
       id="clipPath43103">
      <path
         d="M 0,0 V 879 H 8080 V 0 Z"
         transform="translate(0,4.1916768e-5)"
         id="path43103" />
    </clipPath>
    <clipPath
       clipPathUnits="userSpaceOnUse"
       id="clipPath43104">
      <path
         d="M 0,0 V 879 H 8080 V 0 Z"
         transform="translate(0,4.1916768e-5)"
         id="path43104" />
    </clipPath>
    <clipPath
       clipPathUnits="userSpaceOnUse"
       id="clipPath43110">
      <path
         d="M 0,0 V 879 H 8080 V 0 Z"
         transform="translate(0,4.1916768e-5)"
         id="path43110" />
    </clipPath>
    <clipPath
       clipPathUnits="userSpaceOnUse"
       id="clipPath43111">
      <path
         d="M 0,0 V 879 H 8080 V 0 Z"
         transform="translate(0,4.1916768e-5)"
         id="path43111" />
    </clipPath>
    <clipPath
       clipPathUnits="userSpaceOnUse"
       id="clipPath43117">
      <path
         d="M 0,0 V 879 H 8080 V 0 Z"
         transform="translate(0,4.1916768e-5)"
         id="path43117" />
    </clipPath>
    <clipPath
       clipPathUnits="userSpaceOnUse"
       id="clipPath43118">
      <path
         d="M 0,0 V 879 H 8080 V 0 Z"
         transform="translate(0,4.1916768e-5)"
         id="path43118" />
    </clipPath>
    <clipPath
       clipPathUnits="userSpaceOnUse"
       id="clipPath43124">
      <path
         d="M 0,0 V 879 H 8080 V 0 Z"
         transform="translate(0,4.1916768e-5)"
         id="path43124" />
    </clipPath>
    <clipPath
       clipPathUnits="userSpaceOnUse"
       id="clipPath43125">
      <path
         d="M 0,0 V 879 H 8080 V 0 Z"
         transform="translate(0,4.1916768e-5)"
         id="path43125" />
    </clipPath>
    <clipPath
       clipPathUnits="userSpaceOnUse"
       id="clipPath43131">
      <path
         d="M 0,0 V 879 H 8080 V 0 Z"
         transform="translate(0,4.1916768e-5)"
         id="path43131" />
    </clipPath>
    <clipPath
       clipPathUnits="userSpaceOnUse"
       id="clipPath43132">
      <path
         d="M 0,0 V 879 H 8080 V 0 Z"
         transform="translate(0,4.1916768e-5)"
         id="path43132" />
    </clipPath>
    <clipPath
       clipPathUnits="userSpaceOnUse"
       id="clipPath43138">
      <path
         d="M 0,0 V 879 H 8080 V 0 Z"
         transform="translate(0,4.1916768e-5)"
         id="path43138" />
    </clipPath>
    <clipPath
       clipPathUnits="userSpaceOnUse"
       id="clipPath43139">
      <path
         d="M 0,0 V 879 H 8080 V 0 Z"
         transform="translate(0,4.1916768e-5)"
         id="path43139" />
    </clipPath>
    <clipPath
       clipPathUnits="userSpaceOnUse"
       id="clipPath43145">
      <path
         d="M 0,0 V 879 H 8080 V 0 Z"
         transform="translate(0,4.1916768e-5)"
         id="path43145" />
    </clipPath>
    <clipPath
       clipPathUnits="userSpaceOnUse"
       id="clipPath43146">
      <path
         d="M 0,0 V 879 H 8080 V 0 Z"
         transform="translate(0,4.1916768e-5)"
         id="path43146" />
    </clipPath>
    <clipPath
       clipPathUnits="userSpaceOnUse"
       id="clipPath43152">
      <path
         d="M 0,0 V 879 H 8080 V 0 Z"
         transform="translate(0,4.1916768e-5)"
         id="path43152" />
    </clipPath>
    <clipPath
       clipPathUnits="userSpaceOnUse"
       id="clipPath43153">
      <path
         d="M 0,0 V 879 H 8080 V 0 Z"
         transform="translate(0,4.1916768e-5)"
         id="path43153" />
    </clipPath>
    <clipPath
       clipPathUnits="userSpaceOnUse"
       id="clipPath43159">
      <path
         d="M 0,0 V 879 H 8080 V 0 Z"
         transform="translate(0,4.1916768e-5)"
         id="path43159" />
    </clipPath>
    <clipPath
       clipPathUnits="userSpaceOnUse"
       id="clipPath43160">
      <path
         d="M 0,0 V 879 H 8080 V 0 Z"
         transform="translate(0,4.1916768e-5)"
         id="path43160" />
    </clipPath>
    <clipPath
       clipPathUnits="userSpaceOnUse"
       id="clipPath43166">
      <path
         d="M 0,0 V 879 H 8080 V 0 Z"
         transform="translate(0,4.1916768e-5)"
         id="path43166" />
    </clipPath>
    <clipPath
       clipPathUnits="userSpaceOnUse"
       id="clipPath43167">
      <path
         d="M 0,0 V 879 H 8080 V 0 Z"
         transform="translate(0,4.1916768e-5)"
         id="path43167" />
    </clipPath>
    <clipPath
       clipPathUnits="userSpaceOnUse"
       id="clipPath43173">
      <path
         d="M 0,0 V 879 H 8080 V 0 Z"
         transform="translate(0,4.1916768e-5)"
         id="path43173" />
    </clipPath>
    <clipPath
       clipPathUnits="userSpaceOnUse"
       id="clipPath43174">
      <path
         d="M 0,0 V 879 H 8080 V 0 Z"
         transform="translate(0,4.1916768e-5)"
         id="path43174" />
    </clipPath>
    <clipPath
       clipPathUnits="userSpaceOnUse"
       id="clipPath43180">
      <path
         d="M 0,0 V 879 H 8080 V 0 Z"
         transform="translate(0,4.1916768e-5)"
         id="path43180" />
    </clipPath>
    <clipPath
       clipPathUnits="userSpaceOnUse"
       id="clipPath43181">
      <path
         d="M 0,0 V 879 H 8080 V 0 Z"
         transform="translate(0,4.1916768e-5)"
         id="path43181" />
    </clipPath>
    <clipPath
       clipPathUnits="userSpaceOnUse"
       id="clipPath43187">
      <path
         d="M 0,0 V 879 H 8080 V 0 Z"
         transform="translate(0,4.1916768e-5)"
         id="path43187" />
    </clipPath>
    <clipPath
       clipPathUnits="userSpaceOnUse"
       id="clipPath43188">
      <path
         d="M 0,0 V 879 H 8080 V 0 Z"
         transform="translate(0,4.1916768e-5)"
         id="path43188" />
    </clipPath>
    <clipPath
       clipPathUnits="userSpaceOnUse"
       id="clipPath43194">
      <path
         d="M 0,0 V 879 H 8080 V 0 Z"
         transform="translate(0,4.1916768e-5)"
         id="path43194" />
    </clipPath>
    <clipPath
       clipPathUnits="userSpaceOnUse"
       id="clipPath43195">
      <path
         d="M 0,0 V 879 H 8080 V 0 Z"
         transform="translate(0,4.1916768e-5)"
         id="path43195" />
    </clipPath>
    <clipPath
       clipPathUnits="userSpaceOnUse"
       id="clipPath43201">
      <path
         d="M 0,0 V 879 H 8080 V 0 Z"
         transform="translate(0,4.1916768e-5)"
         id="path43201" />
    </clipPath>
    <clipPath
       clipPathUnits="userSpaceOnUse"
       id="clipPath43202">
      <path
         d="M 0,0 V 879 H 8080 V 0 Z"
         transform="translate(0,4.1916768e-5)"
         id="path43202" />
    </clipPath>
    <clipPath
       clipPathUnits="userSpaceOnUse"
       id="clipPath43208">
      <path
         d="M 0,0 V 879 H 8080 V 0 Z"
         transform="translate(0,4.1916768e-5)"
         id="path43208" />
    </clipPath>
    <clipPath
       clipPathUnits="userSpaceOnUse"
       id="clipPath43209">
      <path
         d="M 0,0 V 879 H 8080 V 0 Z"
         transform="translate(0,4.1916768e-5)"
         id="path43209" />
    </clipPath>
    <clipPath
       clipPathUnits="userSpaceOnUse"
       id="clipPath43215">
      <path
         d="M 0,0 V 879 H 8080 V 0 Z"
         transform="translate(0,4.1916768e-5)"
         id="path43215" />
    </clipPath>
    <clipPath
       clipPathUnits="userSpaceOnUse"
       id="clipPath43216">
      <path
         d="M 0,0 V 879 H 8080 V 0 Z"
         transform="translate(0,4.1916768e-5)"
         id="path43216" />
    </clipPath>
    <clipPath
       clipPathUnits="userSpaceOnUse"
       id="clipPath43222">
      <path
         d="M 0,0 V 879 H 8080 V 0 Z"
         transform="translate(0,4.1916768e-5)"
         id="path43222" />
    </clipPath>
    <clipPath
       clipPathUnits="userSpaceOnUse"
       id="clipPath43223">
      <path
         d="M 0,0 V 879 H 8080 V 0 Z"
         transform="translate(0,4.1916768e-5)"
         id="path43223" />
    </clipPath>
    <clipPath
       clipPathUnits="userSpaceOnUse"
       id="clipPath43229">
      <path
         d="M 0,0 V 879 H 8080 V 0 Z"
         transform="translate(0,4.1916768e-5)"
         id="path43229" />
    </clipPath>
    <clipPath
       clipPathUnits="userSpaceOnUse"
       id="clipPath43230">
      <path
         d="M 0,0 V 879 H 8080 V 0 Z"
         transform="translate(0,4.1916768e-5)"
         id="path43230" />
    </clipPath>
    <clipPath
       clipPathUnits="userSpaceOnUse"
       id="clipPath43236">
      <path
         d="M 0,0 V 879 H 8080 V 0 Z"
         transform="translate(0,4.1916768e-5)"
         id="path43236" />
    </clipPath>
    <clipPath
       clipPathUnits="userSpaceOnUse"
       id="clipPath43237">
      <path
         d="M 0,0 V 879 H 8080 V 0 Z"
         transform="translate(0,4.1916768e-5)"
         id="path43237" />
    </clipPath>
    <clipPath
       clipPathUnits="userSpaceOnUse"
       id="clipPath43243">
      <path
         d="M 0,0 V 879 H 8080 V 0 Z"
         transform="translate(0,4.1916768e-5)"
         id="path43243" />
    </clipPath>
    <clipPath
       clipPathUnits="userSpaceOnUse"
       id="clipPath43244">
      <path
         d="M 0,0 V 879 H 8080 V 0 Z"
         transform="translate(0,4.1916768e-5)"
         id="path43244" />
    </clipPath>
    <clipPath
       clipPathUnits="userSpaceOnUse"
       id="clipPath43250">
      <path
         d="M 0,0 V 879 H 8080 V 0 Z"
         transform="translate(0,4.1916768e-5)"
         id="path43250" />
    </clipPath>
  </defs>
  <sodipodi:namedview
     id="namedview1"
     pagecolor="#ffffff"
     bordercolor="#666666"
     borderopacity="1.0"
     inkscape:showpageshadow="2"
     inkscape:pageopacity="0.0"
     inkscape:pagecheckerboard="0"
     inkscape:deskcolor="#d1d1d1"
     inkscape:zoom="3.5258797"
     inkscape:cx="275.25046"
     inkscape:cy="10.068409"
     inkscape:window-width="1680"
     inkscape:window-height="1013"
     inkscape:window-x="1920"
     inkscape:window-y="0"
     inkscape:window-maximized="1"
     inkscape:current-layer="svg1">
    <inkscape:page
       x="0"
       y="0"
       width="640.9502"
       height="68.390991"
       id="page2"
       margin="0"
       bleed="0" />
  </sodipodi:namedview>
  <path
     d="M 472.09,336.531 336.531,472.09 H 144.82 L 9.26172,336.531 V 144.82 L 144.82,9.26172 H 336.531 L 472.09,144.82"
     style="fill:#fefbe9;fill-opacity:1;fill-rule:nonzero;stroke:none"
     transform="matrix(0.07952267,0,0,-0.07952267,-0.6974,69.08776)"
     clip-path="none"
     id="path43256" />
  <path
     d="M 472.09,336.531 336.531,472.09 H 144.82 L 9.26172,336.531 V 144.82 L 144.82,9.26172 H 336.531 L 472.09,144.82 Z"
     style="fill:none;stroke:#fefbe9;stroke-width:1;stroke-linecap:square;stroke-linejoin:bevel;stroke-miterlimit:3.239;stroke-dasharray:none;stroke-opacity:1"
     transform="matrix(0.07952267,0,0,-0.07952267,-0.6974,69.08776)"
     clip-path="none"
     id="path43257" />
  <text
     xml:space="preserve"
     transform="matrix(0.79522667,0,0,0.79522667,0.3252,49.03532)"
     clip-path="none"
     id="text43257"><tspan
       style="font-variant:normal;font-weight:normal;font-size:9px;font-family:Carlito;writing-mode:lr-tb;fill:#000000;fill-opacity:1;fill-rule:nonzero;stroke:none"
       x="0"
       y="0"
       id="tspan43257">254,251,233</tspan></text>
  <text
     xml:space="preserve"
     transform="matrix(0.79522667,0,0,0.79522667,7.8982,56.78878)"
     clip-path="none"
     id="text43258"><tspan
       style="font-variant:normal;font-weight:normal;font-size:9px;font-family:Carlito;writing-mode:lr-tb;fill:#000000;fill-opacity:1;fill-rule:nonzero;stroke:none"
       x="0"
       dx="0 0.0057617198 0 0.0057617198 -0.0052734399"
       y="0"
       id="tspan43258">FEFBE9</tspan></text>
  <path
     d="M 799.359,663.801 663.801,799.359 H 472.09 L 336.531,663.801 V 472.09 L 472.09,336.531 H 663.801 L 799.359,472.09"
     style="fill:#fcf7d5;fill-opacity:1;fill-rule:nonzero;stroke:none"
     transform="matrix(0.07952267,0,0,-0.07952267,-0.6974,69.08776)"
     clip-path="none"
     id="path43259" />
  <path
     d="M 799.359,663.801 663.801,799.359 H 472.09 L 336.531,663.801 V 472.09 L 472.09,336.531 H 663.801 L 799.359,472.09 Z"
     style="fill:none;stroke:#fcf7d5;stroke-width:1;stroke-linecap:square;stroke-linejoin:bevel;stroke-miterlimit:3.239;stroke-dasharray:none;stroke-opacity:1"
     transform="matrix(0.07952267,0,0,-0.07952267,-0.6974,69.08776)"
     clip-path="none"
     id="path43260" />
  <text
     xml:space="preserve"
     transform="matrix(0.79522667,0,0,0.79522667,26.3506,23.00994)"
     clip-path="none"
     id="text43260"><tspan
       style="font-variant:normal;font-weight:normal;font-size:9px;font-family:Carlito;writing-mode:lr-tb;fill:#000000;fill-opacity:1;fill-rule:nonzero;stroke:none"
       x="0"
       y="0"
       id="tspan43260">252,247,213</tspan></text>
  <text
     xml:space="preserve"
     transform="matrix(0.79522667,0,0,0.79522667,33.4393,30.7634)"
     clip-path="none"
     id="text43261"><tspan
       style="font-variant:normal;font-weight:normal;font-size:9px;font-family:Carlito;writing-mode:lr-tb;fill:#000000;fill-opacity:1;fill-rule:nonzero;stroke:none"
       x="0"
       dx="0 0.0057617198 0 0 0 -0.0062500001"
       y="0"
       id="tspan43261">FCF7D5</tspan></text>
  <path
     d="M 1126.63,336.531 991.07,472.09 H 799.359 L 663.801,336.531 V 144.82 L 799.359,9.26172 H 991.07 L 1126.63,144.82"
     style="fill:#f5f3c1;fill-opacity:1;fill-rule:nonzero;stroke:none"
     transform="matrix(0.07952267,0,0,-0.07952267,-0.6974,69.08776)"
     clip-path="none"
     id="path43262" />
  <path
     d="M 1126.63,336.531 991.07,472.09 H 799.359 L 663.801,336.531 V 144.82 L 799.359,9.26172 H 991.07 L 1126.63,144.82 Z"
     style="fill:none;stroke:#f5f3c1;stroke-width:1;stroke-linecap:square;stroke-linejoin:bevel;stroke-miterlimit:3.239;stroke-dasharray:none;stroke-opacity:1"
     transform="matrix(0.07952267,0,0,-0.07952267,-0.6974,69.08776)"
     clip-path="none"
     id="path43263" />
  <text
     xml:space="preserve"
     transform="matrix(0.79522667,0,0,0.79522667,52.3759,49.03532)"
     clip-path="none"
     id="text43263"><tspan
       style="font-variant:normal;font-weight:normal;font-size:9px;font-family:Carlito;writing-mode:lr-tb;fill:#000000;fill-opacity:1;fill-rule:nonzero;stroke:none"
       x="0"
       y="0"
       id="tspan43263">245,243,193</tspan></text>
  <text
     xml:space="preserve"
     transform="matrix(0.79522667,0,0,0.79522667,59.8495,56.78878)"
     clip-path="none"
     id="text43264"><tspan
       style="font-variant:normal;font-weight:normal;font-size:9px;font-family:Carlito;writing-mode:lr-tb;fill:#000000;fill-opacity:1;fill-rule:nonzero;stroke:none"
       x="0"
       dx="0 0.0057617198 0 0.0057617198"
       y="0"
       id="tspan43264">F5F3C1</tspan></text>
  <path
     d="M 1453.9,663.801 1318.34,799.359 H 1126.63 L 991.07,663.801 V 472.09 l 135.56,-135.559 h 191.71 L 1453.9,472.09"
     style="fill:#eaf0b5;fill-opacity:1;fill-rule:nonzero;stroke:none"
     transform="matrix(0.07952267,0,0,-0.07952267,-0.6974,69.08776)"
     clip-path="none"
     id="path43265" />
  <path
     d="M 1453.9,663.801 1318.34,799.359 H 1126.63 L 991.07,663.801 V 472.09 l 135.56,-135.559 h 191.71 L 1453.9,472.09 Z"
     style="fill:none;stroke:#eaf0b5;stroke-width:1;stroke-linecap:square;stroke-linejoin:bevel;stroke-miterlimit:3.239;stroke-dasharray:none;stroke-opacity:1"
     transform="matrix(0.07952267,0,0,-0.07952267,-0.6974,69.08776)"
     clip-path="none"
     id="path43266" />
  <text
     xml:space="preserve"
     transform="matrix(0.79522667,0,0,0.79522667,78.4016,23.00994)"
     clip-path="none"
     id="text43266"><tspan
       style="font-variant:normal;font-weight:normal;font-size:9px;font-family:Carlito;writing-mode:lr-tb;fill:#000000;fill-opacity:1;fill-rule:nonzero;stroke:none"
       x="0"
       y="0"
       id="tspan43266">234,240,181</tspan></text>
  <text
     xml:space="preserve"
     transform="matrix(0.79522667,0,0,0.79522667,85.4837,30.7634)"
     clip-path="none"
     id="text43267"><tspan
       style="font-variant:normal;font-weight:normal;font-size:9px;font-family:Carlito;writing-mode:lr-tb;fill:#000000;fill-opacity:1;fill-rule:nonzero;stroke:none"
       x="0"
       y="0"
       id="tspan43267">EAF0B5</tspan></text>
  <path
     d="M 1781.17,336.531 1645.61,472.09 H 1453.9 L 1318.34,336.531 V 144.82 L 1453.9,9.26172 h 191.71 L 1781.17,144.82"
     style="fill:#ddecbf;fill-opacity:1;fill-rule:nonzero;stroke:none"
     transform="matrix(0.07952267,0,0,-0.07952267,-0.6974,69.08776)"
     clip-path="none"
     id="path43268" />
  <path
     d="M 1781.17,336.531 1645.61,472.09 H 1453.9 L 1318.34,336.531 V 144.82 L 1453.9,9.26172 h 191.71 L 1781.17,144.82 Z"
     style="fill:none;stroke:#ddecbf;stroke-width:1;stroke-linecap:square;stroke-linejoin:bevel;stroke-miterlimit:3.239;stroke-dasharray:none;stroke-opacity:1"
     transform="matrix(0.07952267,0,0,-0.07952267,-0.6974,69.08776)"
     clip-path="none"
     id="path43269" />
  <text
     xml:space="preserve"
     transform="matrix(0.79522667,0,0,0.79522667,104.4268,49.03532)"
     clip-path="none"
     id="text43269"><tspan
       style="font-variant:normal;font-weight:normal;font-size:9px;font-family:Carlito;writing-mode:lr-tb;fill:#000000;fill-opacity:1;fill-rule:nonzero;stroke:none"
       x="0"
       y="0"
       id="tspan43269">221,236,191</tspan></text>
  <text
     xml:space="preserve"
     transform="matrix(0.79522667,0,0,0.79522667,110.9007,56.78878)"
     clip-path="none"
     id="text43270"><tspan
       style="font-variant:normal;font-weight:normal;font-size:9px;font-family:Carlito;writing-mode:lr-tb;fill:#000000;fill-opacity:1;fill-rule:nonzero;stroke:none"
       x="0"
       dx="0 -0.0062500001 -0.0062500001"
       y="0"
       id="tspan43270">DDECBF</tspan></text>
  <path
     d="M 2108.44,663.801 1972.88,799.359 H 1781.17 L 1645.61,663.801 V 472.09 l 135.56,-135.559 h 191.71 l 135.56,135.559"
     style="fill:#d0e7ca;fill-opacity:1;fill-rule:nonzero;stroke:none"
     transform="matrix(0.07952267,0,0,-0.07952267,-0.6974,69.08776)"
     clip-path="none"
     id="path43271" />
  <path
     d="M 2108.44,663.801 1972.88,799.359 H 1781.17 L 1645.61,663.801 V 472.09 l 135.56,-135.559 h 191.71 l 135.56,135.559 z"
     style="fill:none;stroke:#d0e7ca;stroke-width:1;stroke-linecap:square;stroke-linejoin:bevel;stroke-miterlimit:3.239;stroke-dasharray:none;stroke-opacity:1"
     transform="matrix(0.07952267,0,0,-0.07952267,-0.6974,69.08776)"
     clip-path="none"
     id="path43272" />
  <text
     xml:space="preserve"
     transform="matrix(0.79522667,0,0,0.79522667,130.4522,23.00994)"
     clip-path="none"
     id="text43272"><tspan
       style="font-variant:normal;font-weight:normal;font-size:9px;font-family:Carlito;writing-mode:lr-tb;fill:#000000;fill-opacity:1;fill-rule:nonzero;stroke:none"
       x="0"
       y="0"
       id="tspan43272">208,231,202</tspan></text>
  <text
     xml:space="preserve"
     transform="matrix(0.79522667,0,0,0.79522667,137.0192,30.7634)"
     clip-path="none"
     id="text43273"><tspan
       style="font-variant:normal;font-weight:normal;font-size:9px;font-family:Carlito;writing-mode:lr-tb;fill:#000000;fill-opacity:1;fill-rule:nonzero;stroke:none"
       x="0"
       dx="0 -0.0058593801"
       y="0"
       id="tspan43273">D0E7CA</tspan></text>
  <path
     d="M 2435.71,336.531 2300.15,472.09 H 2108.44 L 1972.88,336.531 V 144.82 L 2108.44,9.26172 h 191.71 L 2435.71,144.82"
     style="fill:#c2e3d2;fill-opacity:1;fill-rule:nonzero;stroke:none"
     transform="matrix(0.07952267,0,0,-0.07952267,-0.6974,69.08776)"
     clip-path="none"
     id="path43274" />
  <path
     d="M 2435.71,336.531 2300.15,472.09 H 2108.44 L 1972.88,336.531 V 144.82 L 2108.44,9.26172 h 191.71 L 2435.71,144.82 Z"
     style="fill:none;stroke:#c2e3d2;stroke-width:1;stroke-linecap:square;stroke-linejoin:bevel;stroke-miterlimit:3.239;stroke-dasharray:none;stroke-opacity:1"
     transform="matrix(0.07952267,0,0,-0.07952267,-0.6974,69.08776)"
     clip-path="none"
     id="path43275" />
  <text
     xml:space="preserve"
     transform="matrix(0.79522667,0,0,0.79522667,156.4776,49.03532)"
     clip-path="none"
     id="text43275"><tspan
       style="font-variant:normal;font-weight:normal;font-size:9px;font-family:Carlito;writing-mode:lr-tb;fill:#000000;fill-opacity:1;fill-rule:nonzero;stroke:none"
       x="0"
       y="0"
       id="tspan43275">194,227,210</tspan></text>
  <text
     xml:space="preserve"
     transform="matrix(0.79522667,0,0,0.79522667,163.299,56.78878)"
     clip-path="none"
     id="text43276"><tspan
       style="font-variant:normal;font-weight:normal;font-size:9px;font-family:Carlito;writing-mode:lr-tb;fill:#000000;fill-opacity:1;fill-rule:nonzero;stroke:none"
       x="0"
       dx="0 0 0 0 0 -0.0050781202"
       y="0"
       id="tspan43276">C2E3D2</tspan></text>
  <path
     d="M 2762.98,663.801 2627.42,799.359 H 2435.71 L 2300.15,663.801 V 472.09 l 135.56,-135.559 h 191.71 l 135.56,135.559"
     style="fill:#b5ddd8;fill-opacity:1;fill-rule:nonzero;stroke:none"
     transform="matrix(0.07952267,0,0,-0.07952267,-0.6974,69.08776)"
     clip-path="none"
     id="path43277" />
  <path
     d="M 2762.98,663.801 2627.42,799.359 H 2435.71 L 2300.15,663.801 V 472.09 l 135.56,-135.559 h 191.71 l 135.56,135.559 z"
     style="fill:none;stroke:#b5ddd8;stroke-width:1;stroke-linecap:square;stroke-linejoin:bevel;stroke-miterlimit:3.239;stroke-dasharray:none;stroke-opacity:1"
     transform="matrix(0.07952267,0,0,-0.07952267,-0.6974,69.08776)"
     clip-path="none"
     id="path43278" />
  <text
     xml:space="preserve"
     transform="matrix(0.79522667,0,0,0.79522667,182.5029,23.00994)"
     clip-path="none"
     id="text43278"><tspan
       style="font-variant:normal;font-weight:normal;font-size:9px;font-family:Carlito;writing-mode:lr-tb;fill:#000000;fill-opacity:1;fill-rule:nonzero;stroke:none"
       x="0"
       y="0"
       id="tspan43278">181,221,216</tspan></text>
  <text
     xml:space="preserve"
     transform="matrix(0.79522667,0,0,0.79522667,188.4489,30.7634)"
     clip-path="none"
     id="text43279"><tspan
       style="font-variant:normal;font-weight:normal;font-size:9px;font-family:Carlito;writing-mode:lr-tb;fill:#000000;fill-opacity:1;fill-rule:nonzero;stroke:none"
       x="0"
       dx="0 0 0 -0.0062500001 -0.0050781202 -0.0062500001"
       y="0"
       id="tspan43279">B5DDD8</tspan></text>
  <path
     d="M 3090.25,336.531 2954.69,472.09 H 2762.98 L 2627.42,336.531 V 144.82 L 2762.98,9.26172 h 191.71 L 3090.25,144.82"
     style="fill:#a8d8dd;fill-opacity:1;fill-rule:nonzero;stroke:none"
     transform="matrix(0.07952267,0,0,-0.07952267,-0.6974,69.08776)"
     clip-path="none"
     id="path43280" />
  <path
     d="M 3090.25,336.531 2954.69,472.09 H 2762.98 L 2627.42,336.531 V 144.82 L 2762.98,9.26172 h 191.71 L 3090.25,144.82 Z"
     style="fill:none;stroke:#a8d8dd;stroke-width:1;stroke-linecap:square;stroke-linejoin:bevel;stroke-miterlimit:3.239;stroke-dasharray:none;stroke-opacity:1"
     transform="matrix(0.07952267,0,0,-0.07952267,-0.6974,69.08776)"
     clip-path="none"
     id="path43281" />
  <text
     xml:space="preserve"
     transform="matrix(0.79522667,0,0,0.79522667,208.5283,49.03532)"
     clip-path="none"
     id="text43281"><tspan
       style="font-variant:normal;font-weight:normal;font-size:9px;font-family:Carlito;writing-mode:lr-tb;fill:#000000;fill-opacity:1;fill-rule:nonzero;stroke:none"
       x="0"
       y="0"
       id="tspan43281">168,216,220</tspan></text>
  <text
     xml:space="preserve"
     transform="matrix(0.79522667,0,0,0.79522667,214.642,56.78878)"
     clip-path="none"
     id="text43282"><tspan
       style="font-variant:normal;font-weight:normal;font-size:9px;font-family:Carlito;writing-mode:lr-tb;fill:#000000;fill-opacity:1;fill-rule:nonzero;stroke:none"
       x="0"
       dx="0 0 0 -0.0058593801 0 -0.0054687499"
       y="0"
       id="tspan43282">A8D8DC</tspan></text>
  <path
     d="M 3417.52,663.801 3281.96,799.359 H 3090.25 L 2954.69,663.801 V 472.09 l 135.56,-135.559 h 191.71 l 135.56,135.559"
     style="fill:#9bd2e1;fill-opacity:1;fill-rule:nonzero;stroke:none"
     transform="matrix(0.07952267,0,0,-0.07952267,-0.6974,69.08776)"
     clip-path="none"
     id="path43283" />
  <path
     d="M 3417.52,663.801 3281.96,799.359 H 3090.25 L 2954.69,663.801 V 472.09 l 135.56,-135.559 h 191.71 l 135.56,135.559 z"
     style="fill:none;stroke:#9bd2e1;stroke-width:1;stroke-linecap:square;stroke-linejoin:bevel;stroke-miterlimit:3.239;stroke-dasharray:none;stroke-opacity:1"
     transform="matrix(0.07952267,0,0,-0.07952267,-0.6974,69.08776)"
     clip-path="none"
     id="path43284" />
  <text
     xml:space="preserve"
     transform="matrix(0.79522667,0,0,0.79522667,234.5537,23.00994)"
     clip-path="none"
     id="text43284"><tspan
       style="font-variant:normal;font-weight:normal;font-size:9px;font-family:Carlito;writing-mode:lr-tb;fill:#000000;fill-opacity:1;fill-rule:nonzero;stroke:none"
       x="0"
       y="0"
       id="tspan43284">155,210,225</tspan></text>
  <text
     xml:space="preserve"
     transform="matrix(0.79522667,0,0,0.79522667,241.3386,30.7634)"
     clip-path="none"
     id="text43285"><tspan
       style="font-variant:normal;font-weight:normal;font-size:9px;font-family:Carlito;writing-mode:lr-tb;fill:#000000;fill-opacity:1;fill-rule:nonzero;stroke:none"
       x="0"
       dx="0 0 0 -0.0062500001"
       y="0"
       id="tspan43285">9BD2E1</tspan></text>
  <path
     d="M 3744.79,336.531 3609.23,472.09 H 3417.52 L 3281.96,336.531 V 144.82 L 3417.52,9.26172 h 191.71 L 3744.79,144.82"
     style="fill:#8dcbe4;fill-opacity:1;fill-rule:nonzero;stroke:none"
     transform="matrix(0.07952267,0,0,-0.07952267,-0.6974,69.08776)"
     clip-path="none"
     id="path43286" />
  <path
     d="M 3744.79,336.531 3609.23,472.09 H 3417.52 L 3281.96,336.531 V 144.82 L 3417.52,9.26172 h 191.71 L 3744.79,144.82 Z"
     style="fill:none;stroke:#8dcbe4;stroke-width:1;stroke-linecap:square;stroke-linejoin:bevel;stroke-miterlimit:3.239;stroke-dasharray:none;stroke-opacity:1"
     transform="matrix(0.07952267,0,0,-0.07952267,-0.6974,69.08776)"
     clip-path="none"
     id="path43287" />
  <text
     xml:space="preserve"
     transform="matrix(0.79522667,0,0,0.79522667,260.5791,49.03532)"
     clip-path="none"
     id="text43287"><tspan
       style="font-variant:normal;font-weight:normal;font-size:9px;font-family:Carlito;writing-mode:lr-tb;fill:#000000;fill-opacity:1;fill-rule:nonzero;stroke:none"
       x="0"
       y="0"
       id="tspan43287">141,203,228</tspan></text>
  <text
     xml:space="preserve"
     transform="matrix(0.79522667,0,0,0.79522667,267.2701,56.78878)"
     clip-path="none"
     id="text43288"><tspan
       style="font-variant:normal;font-weight:normal;font-size:9px;font-family:Carlito;writing-mode:lr-tb;fill:#000000;fill-opacity:1;fill-rule:nonzero;stroke:none"
       x="0"
       dx="0 0 -0.0050781202 0 -0.0052734399"
       y="0"
       id="tspan43288">8DCBE4</tspan></text>
  <path
     d="M 4072.06,663.801 3936.5,799.359 H 3744.79 L 3609.23,663.801 V 472.09 l 135.56,-135.559 h 191.71 l 135.56,135.559"
     style="fill:#81c4e7;fill-opacity:1;fill-rule:nonzero;stroke:none"
     transform="matrix(0.07952267,0,0,-0.07952267,-0.6974,69.08776)"
     clip-path="none"
     id="path43289" />
  <path
     d="M 4072.06,663.801 3936.5,799.359 H 3744.79 L 3609.23,663.801 V 472.09 l 135.56,-135.559 h 191.71 l 135.56,135.559 z"
     style="fill:none;stroke:#81c4e7;stroke-width:1;stroke-linecap:square;stroke-linejoin:bevel;stroke-miterlimit:3.239;stroke-dasharray:none;stroke-opacity:1"
     transform="matrix(0.07952267,0,0,-0.07952267,-0.6974,69.08776)"
     clip-path="none"
     id="path43290" />
  <text
     xml:space="preserve"
     transform="matrix(0.79522667,0,0,0.79522667,286.6045,23.00994)"
     clip-path="none"
     id="text43290"><tspan
       style="font-variant:normal;font-weight:normal;font-size:9px;font-family:Carlito;writing-mode:lr-tb;fill:#000000;fill-opacity:1;fill-rule:nonzero;stroke:none"
       x="0"
       y="0"
       id="tspan43290">129,196,231</tspan></text>
  <text
     xml:space="preserve"
     transform="matrix(0.79522667,0,0,0.79522667,293.8116,30.7634)"
     clip-path="none"
     id="text43291"><tspan
       style="font-variant:normal;font-weight:normal;font-size:9px;font-family:Carlito;writing-mode:lr-tb;fill:#000000;fill-opacity:1;fill-rule:nonzero;stroke:none"
       x="0"
       y="0"
       id="tspan43291">81C4E7</tspan></text>
  <path
     d="M 4399.33,336.531 4263.77,472.09 H 4072.06 L 3936.5,336.531 V 144.82 L 4072.06,9.26172 h 191.71 L 4399.33,144.82"
     style="fill:#7bbce7;fill-opacity:1;fill-rule:nonzero;stroke:none"
     transform="matrix(0.07952267,0,0,-0.07952267,-0.6974,69.08776)"
     clip-path="none"
     id="path43292" />
  <path
     d="M 4399.33,336.531 4263.77,472.09 H 4072.06 L 3936.5,336.531 V 144.82 L 4072.06,9.26172 h 191.71 L 4399.33,144.82 Z"
     style="fill:none;stroke:#7bbce7;stroke-width:1;stroke-linecap:square;stroke-linejoin:bevel;stroke-miterlimit:3.239;stroke-dasharray:none;stroke-opacity:1"
     transform="matrix(0.07952267,0,0,-0.07952267,-0.6974,69.08776)"
     clip-path="none"
     id="path43293" />
  <text
     xml:space="preserve"
     transform="matrix(0.79522667,0,0,0.79522667,312.6299,49.03532)"
     clip-path="none"
     id="text43293"><tspan
       style="font-variant:normal;font-weight:normal;font-size:9px;font-family:Carlito;writing-mode:lr-tb;fill:#000000;fill-opacity:1;fill-rule:nonzero;stroke:none"
       x="0"
       y="0"
       id="tspan43293">123,188,231</tspan></text>
  <text
     xml:space="preserve"
     transform="matrix(0.79522667,0,0,0.79522667,319.5762,56.78878)"
     clip-path="none"
     id="text43294"><tspan
       style="font-variant:normal;font-weight:normal;font-size:9px;font-family:Carlito;writing-mode:lr-tb;fill:#000000;fill-opacity:1;fill-rule:nonzero;stroke:none"
       x="0"
       y="0"
       id="tspan43294">7BBCE7</tspan></text>
  <path
     d="M 4726.6,663.801 4591.04,799.359 H 4399.33 L 4263.77,663.801 V 472.09 l 135.56,-135.559 h 191.71 L 4726.6,472.09"
     style="fill:#7eb1e4;fill-opacity:1;fill-rule:nonzero;stroke:none"
     transform="matrix(0.07952267,0,0,-0.07952267,-0.6974,69.08776)"
     clip-path="none"
     id="path43295" />
  <path
     d="M 4726.6,663.801 4591.04,799.359 H 4399.33 L 4263.77,663.801 V 472.09 l 135.56,-135.559 h 191.71 L 4726.6,472.09 Z"
     style="fill:none;stroke:#7eb1e4;stroke-width:1;stroke-linecap:square;stroke-linejoin:bevel;stroke-miterlimit:3.239;stroke-dasharray:none;stroke-opacity:1"
     transform="matrix(0.07952267,0,0,-0.07952267,-0.6974,69.08776)"
     clip-path="none"
     id="path43296" />
  <text
     xml:space="preserve"
     transform="matrix(0.79522667,0,0,0.79522667,338.6552,23.00994)"
     clip-path="none"
     id="text43296"><tspan
       style="font-variant:normal;font-weight:normal;font-size:9px;font-family:Carlito;writing-mode:lr-tb;fill:#000000;fill-opacity:1;fill-rule:nonzero;stroke:none"
       x="0"
       y="0"
       id="tspan43296">126,178,228</tspan></text>
  <text
     xml:space="preserve"
     transform="matrix(0.79522667,0,0,0.79522667,345.8934,30.7634)"
     clip-path="none"
     id="text43297"><tspan
       style="font-variant:normal;font-weight:normal;font-size:9px;font-family:Carlito;writing-mode:lr-tb;fill:#000000;fill-opacity:1;fill-rule:nonzero;stroke:none"
       x="0"
       y="0"
       id="tspan43297">7EB2E4</tspan></text>
  <path
     d="M 5053.87,336.531 4918.31,472.09 H 4726.6 L 4591.04,336.531 V 144.82 L 4726.6,9.26172 h 191.71 L 5053.87,144.82"
     style="fill:#87a5dd;fill-opacity:1;fill-rule:nonzero;stroke:none"
     transform="matrix(0.07952267,0,0,-0.07952267,-0.6974,69.08776)"
     clip-path="none"
     id="path43298" />
  <path
     d="M 5053.87,336.531 4918.31,472.09 H 4726.6 L 4591.04,336.531 V 144.82 L 4726.6,9.26172 h 191.71 L 5053.87,144.82 Z"
     style="fill:none;stroke:#87a5dd;stroke-width:1;stroke-linecap:square;stroke-linejoin:bevel;stroke-miterlimit:3.239;stroke-dasharray:none;stroke-opacity:1"
     transform="matrix(0.07952267,0,0,-0.07952267,-0.6974,69.08776)"
     clip-path="none"
     id="path43299" />
  <text
     xml:space="preserve"
     transform="matrix(0.79522667,0,0,0.79522667,364.6814,49.03532)"
     clip-path="none"
     id="text43299"><tspan
       style="font-variant:normal;font-weight:normal;font-size:9px;font-family:Carlito;writing-mode:lr-tb;fill:#000000;fill-opacity:1;fill-rule:nonzero;stroke:none"
       x="0"
       y="0"
       id="tspan43299">136,165,221</tspan></text>
  <text
     xml:space="preserve"
     transform="matrix(0.79522667,0,0,0.79522667,370.8874,56.78878)"
     clip-path="none"
     id="text43300"><tspan
       style="font-variant:normal;font-weight:normal;font-size:9px;font-family:Carlito;writing-mode:lr-tb;fill:#000000;fill-opacity:1;fill-rule:nonzero;stroke:none"
       x="0"
       dx="0 0 0 0 0 -0.0062500001"
       y="0"
       id="tspan43300">88A5DD</tspan></text>
  <path
     d="M 5381.14,663.801 5245.58,799.359 H 5053.87 L 4918.31,663.801 V 472.09 l 135.56,-135.559 h 191.71 l 135.56,135.559"
     style="fill:#9298d2;fill-opacity:1;fill-rule:nonzero;stroke:none"
     transform="matrix(0.07952267,0,0,-0.07952267,-0.6974,69.08776)"
     clip-path="none"
     id="path43301" />
  <path
     d="M 5381.14,663.801 5245.58,799.359 H 5053.87 L 4918.31,663.801 V 472.09 l 135.56,-135.559 h 191.71 l 135.56,135.559 z"
     style="fill:none;stroke:#9298d2;stroke-width:1;stroke-linecap:square;stroke-linejoin:bevel;stroke-miterlimit:3.239;stroke-dasharray:none;stroke-opacity:1"
     transform="matrix(0.07952267,0,0,-0.07952267,-0.6974,69.08776)"
     clip-path="none"
     id="path43302" />
  <text
     xml:space="preserve"
     transform="matrix(0.79522667,0,0,0.79522667,390.7068,23.00994)"
     clip-path="none"
     id="text43302"><tspan
       style="font-variant:normal;font-weight:normal;font-size:9px;font-family:Carlito;writing-mode:lr-tb;fill:#000000;fill-opacity:1;fill-rule:nonzero;stroke:none"
       x="0"
       y="0"
       id="tspan43302">147,152,210</tspan></text>
  <text
     xml:space="preserve"
     transform="matrix(0.79522667,0,0,0.79522667,397.5529,30.7634)"
     clip-path="none"
     id="text43303"><tspan
       style="font-variant:normal;font-weight:normal;font-size:9px;font-family:Carlito;writing-mode:lr-tb;fill:#000000;fill-opacity:1;fill-rule:nonzero;stroke:none"
       x="0"
       dx="0 0 0 0 0 -0.0062500001"
       y="0"
       id="tspan43303">9398D2</tspan></text>
  <path
     d="M 5708.41,336.531 5572.85,472.09 H 5381.14 L 5245.58,336.531 V 144.82 L 5381.14,9.26172 h 191.71 L 5708.41,144.82"
     style="fill:#9a8ac4;fill-opacity:1;fill-rule:nonzero;stroke:none"
     transform="matrix(0.07952267,0,0,-0.07952267,-0.6974,69.08776)"
     clip-path="none"
     id="path43304" />
  <path
     d="M 5708.41,336.531 5572.85,472.09 H 5381.14 L 5245.58,336.531 V 144.82 L 5381.14,9.26172 h 191.71 L 5708.41,144.82 Z"
     style="fill:none;stroke:#9a8ac4;stroke-width:1;stroke-linecap:square;stroke-linejoin:bevel;stroke-miterlimit:3.239;stroke-dasharray:none;stroke-opacity:1"
     transform="matrix(0.07952267,0,0,-0.07952267,-0.6974,69.08776)"
     clip-path="none"
     id="path43305" />
  <text
     xml:space="preserve"
     transform="matrix(0.79522667,0,0,0.79522667,416.7322,49.03532)"
     clip-path="none"
     id="text43305"><tspan
       style="font-variant:normal;font-weight:normal;font-size:9px;font-family:Carlito;writing-mode:lr-tb;fill:#000000;fill-opacity:1;fill-rule:nonzero;stroke:none"
       x="0"
       y="0"
       id="tspan43305">155,138,196</tspan></text>
  <text
     xml:space="preserve"
     transform="matrix(0.79522667,0,0,0.79522667,423.4853,56.78878)"
     clip-path="none"
     id="text43306"><tspan
       style="font-variant:normal;font-weight:normal;font-size:9px;font-family:Carlito;writing-mode:lr-tb;fill:#000000;fill-opacity:1;fill-rule:nonzero;stroke:none"
       x="0"
       y="0"
       id="tspan43306">9B8AC4</tspan></text>
  <path
     d="M 6035.68,663.801 5900.12,799.359 H 5708.41 L 5572.85,663.801 V 472.09 l 135.56,-135.559 h 191.71 l 135.56,135.559"
     style="fill:#9d7db2;fill-opacity:1;fill-rule:nonzero;stroke:none"
     transform="matrix(0.07952267,0,0,-0.07952267,-0.6974,69.08776)"
     clip-path="none"
     id="path43307" />
  <path
     d="M 6035.68,663.801 5900.12,799.359 H 5708.41 L 5572.85,663.801 V 472.09 l 135.56,-135.559 h 191.71 l 135.56,135.559 z"
     style="fill:none;stroke:#9d7db2;stroke-width:1;stroke-linecap:square;stroke-linejoin:bevel;stroke-miterlimit:3.239;stroke-dasharray:none;stroke-opacity:1"
     transform="matrix(0.07952267,0,0,-0.07952267,-0.6974,69.08776)"
     clip-path="none"
     id="path43308" />
  <text
     xml:space="preserve"
     transform="matrix(0.79522667,0,0,0.79522667,442.7576,23.00994)"
     clip-path="none"
     id="text43308"><tspan
       style="font-variant:normal;font-weight:normal;font-size:9px;font-family:Carlito;writing-mode:lr-tb;fill:#000000;fill-opacity:1;fill-rule:nonzero;stroke:none"
       x="0"
       y="0"
       id="tspan43308">157,125,178</tspan></text>
  <text
     xml:space="preserve"
     transform="matrix(0.79522667,0,0,0.79522667,449.0884,30.7634)"
     clip-path="none"
     id="text43309"><tspan
       style="font-variant:normal;font-weight:normal;font-size:9px;font-family:Carlito;writing-mode:lr-tb;fill:#000000;fill-opacity:1;fill-rule:nonzero;stroke:none"
       x="0"
       dx="0 0 -0.0050781202 0 -0.0050781202 -0.0052734399"
       y="0"
       id="tspan43309">9D7DB2</tspan></text>
  <path
     d="M 6362.95,336.531 6227.39,472.09 H 6035.68 L 5900.12,336.531 V 144.82 L 6035.68,9.26172 h 191.71 L 6362.95,144.82"
     style="fill:#9a6f9e;fill-opacity:1;fill-rule:nonzero;stroke:none"
     transform="matrix(0.07952267,0,0,-0.07952267,-0.6974,69.08776)"
     clip-path="none"
     id="path43310" />
  <path
     d="M 6362.95,336.531 6227.39,472.09 H 6035.68 L 5900.12,336.531 V 144.82 L 6035.68,9.26172 h 191.71 L 6362.95,144.82 Z"
     style="fill:none;stroke:#9a6f9e;stroke-width:1;stroke-linecap:square;stroke-linejoin:bevel;stroke-miterlimit:3.239;stroke-dasharray:none;stroke-opacity:1"
     transform="matrix(0.07952267,0,0,-0.07952267,-0.6974,69.08776)"
     clip-path="none"
     id="path43311" />
  <text
     xml:space="preserve"
     transform="matrix(0.79522667,0,0,0.79522667,468.783,49.03532)"
     clip-path="none"
     id="text43311"><tspan
       style="font-variant:normal;font-weight:normal;font-size:9px;font-family:Carlito;writing-mode:lr-tb;fill:#000000;fill-opacity:1;fill-rule:nonzero;stroke:none"
       x="0"
       y="0"
       id="tspan43311">154,112,158</tspan></text>
  <text
     xml:space="preserve"
     transform="matrix(0.79522667,0,0,0.79522667,475.8279,56.78878)"
     clip-path="none"
     id="text43312"><tspan
       style="font-variant:normal;font-weight:normal;font-size:9px;font-family:Carlito;writing-mode:lr-tb;fill:#000000;fill-opacity:1;fill-rule:nonzero;stroke:none"
       x="0"
       y="0"
       id="tspan43312">9A709E</tspan></text>
  <path
     d="M 6690.23,663.801 6554.67,799.359 H 6362.95 L 6227.39,663.801 V 472.09 l 135.56,-135.559 h 191.72 l 135.56,135.559"
     style="fill:#906388;fill-opacity:1;fill-rule:nonzero;stroke:none"
     transform="matrix(0.07952267,0,0,-0.07952267,-0.6974,69.08776)"
     clip-path="none"
     id="path43313" />
  <path
     d="M 6690.23,663.801 6554.67,799.359 H 6362.95 L 6227.39,663.801 V 472.09 l 135.56,-135.559 h 191.72 l 135.56,135.559 z"
     style="fill:none;stroke:#906388;stroke-width:1;stroke-linecap:square;stroke-linejoin:bevel;stroke-miterlimit:3.239;stroke-dasharray:none;stroke-opacity:1"
     transform="matrix(0.07952267,0,0,-0.07952267,-0.6974,69.08776)"
     clip-path="none"
     id="path43314" />
  <text
     xml:space="preserve"
     transform="matrix(0.79522667,0,0,0.79522667,496.6222,23.00994)"
     clip-path="none"
     id="text43314"><tspan
       style="font-variant:normal;font-weight:normal;font-size:9px;font-family:Carlito;writing-mode:lr-tb;fill:#000000;fill-opacity:1;fill-rule:nonzero;stroke:none"
       x="0"
       y="0"
       id="tspan43314">144,99,136</tspan></text>
  <text
     xml:space="preserve"
     transform="matrix(0.79522667,0,0,0.79522667,502.0393,30.7634)"
     clip-path="none"
     id="text43315"><tspan
       style="font-variant:normal;font-weight:normal;font-size:9px;font-family:Carlito;writing-mode:lr-tb;fill:#000000;fill-opacity:1;fill-rule:nonzero;stroke:none"
       x="0"
       y="0"
       id="tspan43315">906388</tspan></text>
  <path
     d="M 7017.5,336.531 6881.94,472.09 H 6690.23 L 6554.67,336.531 V 144.82 L 6690.23,9.26172 h 191.71 L 7017.5,144.82"
     style="fill:#805670;fill-opacity:1;fill-rule:nonzero;stroke:none"
     transform="matrix(0.07952267,0,0,-0.07952267,-0.6974,69.08776)"
     clip-path="none"
     id="path43316" />
  <path
     d="M 7017.5,336.531 6881.94,472.09 H 6690.23 L 6554.67,336.531 V 144.82 L 6690.23,9.26172 h 191.71 L 7017.5,144.82 Z"
     style="fill:none;stroke:#805670;stroke-width:1;stroke-linecap:square;stroke-linejoin:bevel;stroke-miterlimit:3.239;stroke-dasharray:none;stroke-opacity:1"
     transform="matrix(0.07952267,0,0,-0.07952267,-0.6974,69.08776)"
     clip-path="none"
     id="path43317" />
  <text
     xml:space="preserve"
     transform="matrix(0.79522667,0,0,0.79522667,522.6476,49.03532)"
     clip-path="none"
     id="text43317"><tspan
       style="font-variant:normal;font-weight:normal;font-size:9px;font-family:Carlito;writing-mode:lr-tb;fill:#000000;fill-opacity:1;fill-rule:nonzero;stroke:none"
       x="0"
       y="0"
       id="tspan43317">128,87,112</tspan></text>
  <text
     xml:space="preserve"
     transform="matrix(0.79522667,0,0,0.79522667,528.0655,56.78878)"
     clip-path="none"
     id="text43318"><tspan
       style="font-variant:normal;font-weight:normal;font-size:9px;font-family:Carlito;writing-mode:lr-tb;fill:#000000;fill-opacity:1;fill-rule:nonzero;stroke:none"
       x="0"
       y="0"
       id="tspan43318">805770</tspan></text>
  <path
     d="M 7344.77,663.801 7209.21,799.359 H 7017.5 L 6881.94,663.801 V 472.09 L 7017.5,336.531 h 191.71 l 135.56,135.559"
     style="fill:#684957;fill-opacity:1;fill-rule:nonzero;stroke:none"
     transform="matrix(0.07952267,0,0,-0.07952267,-0.6974,69.08776)"
     clip-path="none"
     id="path43319" />
  <path
     d="M 7344.77,663.801 7209.21,799.359 H 7017.5 L 6881.94,663.801 V 472.09 L 7017.5,336.531 h 191.71 l 135.56,135.559 z"
     style="fill:none;stroke:#684957;stroke-width:1;stroke-linecap:square;stroke-linejoin:bevel;stroke-miterlimit:3.239;stroke-dasharray:none;stroke-opacity:1"
     transform="matrix(0.07952267,0,0,-0.07952267,-0.6974,69.08776)"
     clip-path="none"
     id="path43320" />
  <text
     xml:space="preserve"
     transform="matrix(0.79522667,0,0,0.79522667,550.4869,23.00994)"
     clip-path="none"
     id="text43320"><tspan
       style="font-variant:normal;font-weight:normal;font-size:9px;font-family:Carlito;writing-mode:lr-tb;fill:#000000;fill-opacity:1;fill-rule:nonzero;stroke:none"
       x="0"
       y="0"
       id="tspan43320">104,73,87</tspan></text>
  <text
     xml:space="preserve"
     transform="matrix(0.79522667,0,0,0.79522667,554.0909,30.7634)"
     clip-path="none"
     id="text43321"><tspan
       style="font-variant:normal;font-weight:normal;font-size:9px;font-family:Carlito;writing-mode:lr-tb;fill:#000000;fill-opacity:1;fill-rule:nonzero;stroke:none"
       x="0"
       y="0"
       id="tspan43321">684957</tspan></text>
  <path
     d="M 7672.04,336.531 7536.48,472.09 H 7344.77 L 7209.21,336.531 V 144.82 L 7344.77,9.26172 h 191.71 L 7672.04,144.82"
     style="fill:#46353a;fill-opacity:1;fill-rule:nonzero;stroke:none"
     transform="matrix(0.07952267,0,0,-0.07952267,-0.6974,69.08776)"
     clip-path="none"
     id="path43322" />
  <path
     d="M 7672.04,336.531 7536.48,472.09 H 7344.77 L 7209.21,336.531 V 144.82 L 7344.77,9.26172 h 191.71 L 7672.04,144.82 Z"
     style="fill:none;stroke:#46353a;stroke-width:1;stroke-linecap:square;stroke-linejoin:bevel;stroke-miterlimit:3.239;stroke-dasharray:none;stroke-opacity:1"
     transform="matrix(0.07952267,0,0,-0.07952267,-0.6974,69.08776)"
     clip-path="none"
     id="path43323" />
  <text
     xml:space="preserve"
     transform="matrix(0.79522667,0,0,0.79522667,578.327,49.03532)"
     clip-path="none"
     id="text43323"><tspan
       style="font-variant:normal;font-weight:normal;font-size:9px;font-family:Carlito;writing-mode:lr-tb;fill:#000000;fill-opacity:1;fill-rule:nonzero;stroke:none"
       x="0"
       y="0"
       id="tspan43323">70,53,58</tspan></text>
  <text
     xml:space="preserve"
     transform="matrix(0.79522667,0,0,0.79522667,579.861,56.78878)"
     clip-path="none"
     id="text43324"><tspan
       style="font-variant:normal;font-weight:normal;font-size:9px;font-family:Carlito;writing-mode:lr-tb;fill:#000000;fill-opacity:1;fill-rule:nonzero;stroke:none"
       x="0"
       y="0"
       id="tspan43324">46353A</tspan></text>
  <path
     d="m 8068.73,625.801 c 0,64.437 -25.6,126.25 -71.17,171.808 -45.57,45.571 -107.37,71.172 -171.81,71.172 -64.45,0 -126.25,-25.601 -171.82,-71.172 -45.57,-45.558 -71.17,-107.371 -71.17,-171.808 0,-64.449 25.6,-126.25 71.17,-171.821 45.57,-45.57 107.37,-71.171 171.82,-71.171 64.44,0 126.24,25.601 171.81,71.171 45.57,45.571 71.17,107.372 71.17,171.821"
     style="fill:#999999;fill-opacity:1;fill-rule:evenodd;stroke:none"
     transform="matrix(0.07952267,0,0,-0.07952267,-0.6974,69.08776)"
     clip-path="none"
     id="path43325" />
  <text
     xml:space="preserve"
     transform="matrix(0.79522667,0,0,0.79522667,603.5103,18.40947)"
     clip-path="none"
     id="text43326"><tspan
       style="font-variant:normal;font-weight:normal;font-size:9px;font-family:Carlito;writing-mode:lr-tb;fill:#000000;fill-opacity:1;fill-rule:nonzero;stroke:none"
       x="0"
       y="0"
       id="tspan43326">153,153,153</tspan></text>
  <text
     xml:space="preserve"
     transform="matrix(0.79522667,0,0,0.79522667,610.742,26.16293)"
     clip-path="none"
     id="text43327"><tspan
       style="font-variant:normal;font-weight:normal;font-size:9px;font-family:Carlito;writing-mode:lr-tb;fill:#000000;fill-opacity:1;fill-rule:nonzero;stroke:none"
       x="0"
       y="0"
       id="tspan43327">999999</tspan></text>
</svg>
