<?xml version="1.0" encoding="UTF-8" standalone="no"?>
<!-- Created with Inkscape (http://www.inkscape.org/) -->

<svg
   version="1.1"
   id="svg1"
   width="639.81787"
   height="71.204315"
   viewBox="0 0 639.81787 71.204314"
   sodipodi:docname="light.svg"
   inkscape:version="1.4.1 (1:1.4.1+202503302257+93de688d07)"
   xmlns:inkscape="http://www.inkscape.org/namespaces/inkscape"
   xmlns:sodipodi="http://sodipodi.sourceforge.net/DTD/sodipodi-0.dtd"
   xmlns="http://www.w3.org/2000/svg"
   xmlns:svg="http://www.w3.org/2000/svg">
  <defs
     id="defs1">
    <clipPath
       clipPathUnits="userSpaceOnUse"
       id="clipPath27618">
      <path
         d="M 0,0 H 5040 V 579.82 H 0 Z"
         transform="translate(2.6146525e-4)"
         id="path27618" />
    </clipPath>
    <clipPath
       clipPathUnits="userSpaceOnUse"
       id="clipPath27619">
      <path
         d="M 0,0 H 5040 V 579.82 H 0 Z"
         transform="translate(2.6146525e-4)"
         id="path27619" />
    </clipPath>
    <clipPath
       clipPathUnits="userSpaceOnUse"
       id="clipPath27627">
      <path
         d="M 0,0 H 5040 V 579.82 H 0 Z"
         transform="translate(2.6146525e-4)"
         id="path27627" />
    </clipPath>
    <clipPath
       clipPathUnits="userSpaceOnUse"
       id="clipPath27628">
      <path
         d="M 0,0 H 5040 V 579.82 H 0 Z"
         transform="translate(2.6146525e-4)"
         id="path27628" />
    </clipPath>
    <clipPath
       clipPathUnits="userSpaceOnUse"
       id="clipPath27636">
      <path
         d="M 0,0 H 5040 V 579.82 H 0 Z"
         transform="translate(2.6146525e-4)"
         id="path27636" />
    </clipPath>
    <clipPath
       clipPathUnits="userSpaceOnUse"
       id="clipPath27637">
      <path
         d="M 0,0 H 5040 V 579.82 H 0 Z"
         transform="translate(2.6146525e-4)"
         id="path27637" />
    </clipPath>
    <clipPath
       clipPathUnits="userSpaceOnUse"
       id="clipPath27645">
      <path
         d="M 0,0 H 5040 V 579.82 H 0 Z"
         transform="translate(2.6146525e-4)"
         id="path27645" />
    </clipPath>
    <clipPath
       clipPathUnits="userSpaceOnUse"
       id="clipPath27646">
      <path
         d="M 0,0 H 5040 V 579.82 H 0 Z"
         transform="translate(2.6146525e-4)"
         id="path27646" />
    </clipPath>
    <clipPath
       clipPathUnits="userSpaceOnUse"
       id="clipPath27654">
      <path
         d="M 0,0 H 5040 V 579.82 H 0 Z"
         transform="translate(2.6146525e-4)"
         id="path27654" />
    </clipPath>
    <clipPath
       clipPathUnits="userSpaceOnUse"
       id="clipPath27655">
      <path
         d="M 0,0 H 5040 V 579.82 H 0 Z"
         transform="translate(2.6146525e-4)"
         id="path27655" />
    </clipPath>
    <clipPath
       clipPathUnits="userSpaceOnUse"
       id="clipPath27663">
      <path
         d="M 0,0 H 5040 V 579.82 H 0 Z"
         transform="translate(2.6146525e-4)"
         id="path27663" />
    </clipPath>
    <clipPath
       clipPathUnits="userSpaceOnUse"
       id="clipPath27664">
      <path
         d="M 0,0 H 5040 V 579.82 H 0 Z"
         transform="translate(2.6146525e-4)"
         id="path27664" />
    </clipPath>
    <clipPath
       clipPathUnits="userSpaceOnUse"
       id="clipPath27672">
      <path
         d="M 0,0 H 5040 V 579.82 H 0 Z"
         transform="translate(2.6146525e-4)"
         id="path27672" />
    </clipPath>
    <clipPath
       clipPathUnits="userSpaceOnUse"
       id="clipPath27673">
      <path
         d="M 0,0 H 5040 V 579.82 H 0 Z"
         transform="translate(2.6146525e-4)"
         id="path27673" />
    </clipPath>
    <clipPath
       clipPathUnits="userSpaceOnUse"
       id="clipPath27681">
      <path
         d="M 0,0 H 5040 V 579.82 H 0 Z"
         transform="translate(2.6146525e-4)"
         id="path27681" />
    </clipPath>
    <clipPath
       clipPathUnits="userSpaceOnUse"
       id="clipPath27682">
      <path
         d="M 0,0 H 5040 V 579.82 H 0 Z"
         transform="translate(2.6146525e-4)"
         id="path27682" />
    </clipPath>
    <clipPath
       clipPathUnits="userSpaceOnUse"
       id="clipPath27690">
      <path
         d="M 0,0 H 5040 V 579.82 H 0 Z"
         transform="translate(2.6146525e-4)"
         id="path27690" />
    </clipPath>
    <clipPath
       clipPathUnits="userSpaceOnUse"
       id="clipPath27691">
      <path
         d="M 0,0 H 5040 V 579.82 H 0 Z"
         transform="translate(2.6146525e-4)"
         id="path27691" />
    </clipPath>
  </defs>
  <sodipodi:namedview
     id="namedview1"
     pagecolor="#ffffff"
     bordercolor="#666666"
     borderopacity="1.0"
     inkscape:showpageshadow="2"
     inkscape:pageopacity="0.0"
     inkscape:pagecheckerboard="0"
     inkscape:deskcolor="#d1d1d1"
     inkscape:zoom="2.4975857"
     inkscape:cx="448.23286"
     inkscape:cy="35.434219"
     inkscape:window-width="1680"
     inkscape:window-height="1013"
     inkscape:window-x="1920"
     inkscape:window-y="0"
     inkscape:window-maximized="1"
     inkscape:current-layer="svg1">
    <inkscape:page
       x="0"
       y="0"
       width="639.81787"
       height="71.204315"
       id="page2"
       margin="0"
       bleed="0" />
  </sodipodi:namedview>
  <g
     id="g18">
    <path
       d="M 568.672,405.379 405.379,568.672 H 174.441 L 11.1484,405.379 V 174.441 L 174.441,11.1484 H 405.379 L 568.672,174.441"
       style="fill:#77aadd;fill-opacity:1;fill-rule:nonzero;stroke:none"
       transform="matrix(0.12748667,0,0,-0.12748667,-1.3579,72.56185)"
       clip-path="none"
       id="path27699" />
    <text
       xml:space="preserve"
       transform="matrix(1.2748667,0,0,1.2748667,6.5593,26.4336)"
       clip-path="none"
       id="text27700"><tspan
         style="font-variant:normal;font-weight:normal;font-size:9px;font-family:Carlito;writing-mode:lr-tb;fill:#000000;fill-opacity:1;fill-rule:nonzero;stroke:none"
         x="0"
         y="0"
         id="tspan27700">119,170,221</tspan></text>
    <text
       xml:space="preserve"
       transform="matrix(1.2748667,0,0,1.2748667,16.1003,39.27393)"
       clip-path="none"
       id="text27701"><tspan
         style="font-variant:normal;font-weight:normal;font-size:9px;font-family:Carlito;writing-mode:lr-tb;fill:#000000;fill-opacity:1;fill-rule:nonzero;stroke:none"
         x="0"
         dx="0 0 0 0 0 -0.0062500001"
         y="0"
         id="tspan27701">77AADD</tspan></text>
    <text
       xml:space="preserve"
       transform="matrix(1.2748667,0,0,1.2748667,13.8295,50.71828)"
       clip-path="none"
       id="text27702"><tspan
         style="font-variant:normal;font-weight:normal;font-size:9px;font-family:Carlito;writing-mode:lr-tb;fill:#000000;fill-opacity:1;fill-rule:nonzero;stroke:none"
         x="0"
         dx="0 0 0 0 0.0066406201 2.032227 0.0054687499 0 0.0054687499"
         y="0"
         id="tspan27702">lightblue</tspan></text>
  </g>
  <g
     id="g19">
    <path
       d="M 1126.19,405.379 962.898,568.672 H 731.969 L 568.672,405.379 V 174.441 L 731.969,11.1484 H 962.898 L 1126.19,174.441"
       style="fill:#99ddff;fill-opacity:1;fill-rule:nonzero;stroke:none"
       transform="matrix(0.12748667,0,0,-0.12748667,-1.3579,72.56185)"
       clip-path="none"
       id="path27703" />
    <text
       xml:space="preserve"
       transform="matrix(1.2748667,0,0,1.2748667,77.6355,26.4336)"
       clip-path="none"
       id="text27704"><tspan
         style="font-variant:normal;font-weight:normal;font-size:9px;font-family:Carlito;writing-mode:lr-tb;fill:#000000;fill-opacity:1;fill-rule:nonzero;stroke:none"
         x="0"
         y="0"
         id="tspan27704">153,221,255</tspan></text>
    <text
       xml:space="preserve"
       transform="matrix(1.2748667,0,0,1.2748667,88.5317,39.27393)"
       clip-path="none"
       id="text27705"><tspan
         style="font-variant:normal;font-weight:normal;font-size:9px;font-family:Carlito;writing-mode:lr-tb;fill:#000000;fill-opacity:1;fill-rule:nonzero;stroke:none"
         x="0"
         dx="0 0 0 -0.0062500001 -0.0050781202"
         y="0"
         id="tspan27705">99DDFF</tspan></text>
    <text
       xml:space="preserve"
       transform="matrix(1.2748667,0,0,1.2748667,84.3181,50.71828)"
       clip-path="none"
       id="text27706"><tspan
         style="font-variant:normal;font-weight:normal;font-size:9px;font-family:Carlito;writing-mode:lr-tb;fill:#000000;fill-opacity:1;fill-rule:nonzero;stroke:none"
         x="0"
         dx="0 0 0 0 0.0066406201 2.032227 0.0064453101"
         y="0"
         id="tspan27706">lightcyan</tspan></text>
  </g>
  <g
     id="g20">
    <path
       d="m 1683.72,405.379 -163.3,163.293 H 1289.49 L 1126.19,405.379 V 174.441 l 163.3,-163.2926 h 230.93 l 163.3,163.2926"
       style="fill:#44bb99;fill-opacity:1;fill-rule:nonzero;stroke:none"
       transform="matrix(0.12748667,0,0,-0.12748667,-1.3579,72.56185)"
       clip-path="none"
       id="path27707" />
    <text
       xml:space="preserve"
       transform="matrix(1.2748667,0,0,1.2748667,151.621,26.4336)"
       clip-path="none"
       id="text27708"><tspan
         style="font-variant:normal;font-weight:normal;font-size:9px;font-family:Carlito;writing-mode:lr-tb;fill:#000000;fill-opacity:1;fill-rule:nonzero;stroke:none"
         x="0"
         y="0"
         id="tspan27708">68,187,153</tspan></text>
    <text
       xml:space="preserve"
       transform="matrix(1.2748667,0,0,1.2748667,159.8873,39.27393)"
       clip-path="none"
       id="text27709"><tspan
         style="font-variant:normal;font-weight:normal;font-size:9px;font-family:Carlito;writing-mode:lr-tb;fill:#000000;fill-opacity:1;fill-rule:nonzero;stroke:none"
         x="0"
         dx="0 0 0 0 -0.0056640599"
         y="0"
         id="tspan27709">44BB99</tspan></text>
    <text
       xml:space="preserve"
       transform="matrix(1.2748667,0,0,1.2748667,166.9194,51.71281)"
       clip-path="none"
       id="text27710"><tspan
         style="font-variant:normal;font-weight:normal;font-size:9px;font-family:Carlito;writing-mode:lr-tb;fill:#000000;fill-opacity:1;fill-rule:nonzero;stroke:none"
         x="0"
         dx="0 0 0 0.0054687499"
         y="0"
         id="tspan27710">mint</tspan></text>
  </g>
  <g
     id="g21">
    <path
       d="m 2241.24,405.379 -163.3,163.293 H 1847.01 L 1683.72,405.379 V 174.441 L 1847.01,11.1484 h 230.93 l 163.3,163.2926"
       style="fill:#bbcc33;fill-opacity:1;fill-rule:nonzero;stroke:none"
       transform="matrix(0.12748667,0,0,-0.12748667,-1.3579,72.56185)"
       clip-path="none"
       id="path27711" />
    <text
       xml:space="preserve"
       transform="matrix(1.2748667,0,0,1.2748667,222.6974,26.4336)"
       clip-path="none"
       id="text27712"><tspan
         style="font-variant:normal;font-weight:normal;font-size:9px;font-family:Carlito;writing-mode:lr-tb;fill:#000000;fill-opacity:1;fill-rule:nonzero;stroke:none"
         x="0"
         y="0"
         id="tspan27712">187,204,51</tspan></text>
    <text
       xml:space="preserve"
       transform="matrix(1.2748667,0,0,1.2748667,230.6653,39.27393)"
       clip-path="none"
       id="text27713"><tspan
         style="font-variant:normal;font-weight:normal;font-size:9px;font-family:Carlito;writing-mode:lr-tb;fill:#000000;fill-opacity:1;fill-rule:nonzero;stroke:none"
         x="0"
         dx="0 0 -0.0056640599"
         y="0"
         id="tspan27713">BBCC33</tspan></text>
    <text
       xml:space="preserve"
       transform="matrix(1.2748667,0,0,1.2748667,238.2049,50.71828)"
       clip-path="none"
       id="text27714"><tspan
         style="font-variant:normal;font-weight:normal;font-size:9px;font-family:Carlito;writing-mode:lr-tb;fill:#000000;fill-opacity:1;fill-rule:nonzero;stroke:none"
         x="0"
         dx="0 0.0054687499 0.0067382799"
         y="0"
         id="tspan27714">pear</tspan></text>
  </g>
  <g
     id="g22">
    <path
       d="M 2798.76,405.379 2635.47,568.672 H 2404.53 L 2241.24,405.379 V 174.441 L 2404.53,11.1484 h 230.94 l 163.29,163.2926"
       style="fill:#aaaa00;fill-opacity:1;fill-rule:nonzero;stroke:none"
       transform="matrix(0.12748667,0,0,-0.12748667,-1.3579,72.56185)"
       clip-path="none"
       id="path27715" />
    <text
       xml:space="preserve"
       transform="matrix(1.2748667,0,0,1.2748667,296.6817,26.4336)"
       clip-path="none"
       id="text27716"><tspan
         style="font-variant:normal;font-weight:normal;font-size:9px;font-family:Carlito;writing-mode:lr-tb;fill:#000000;fill-opacity:1;fill-rule:nonzero;stroke:none"
         x="0"
         y="0"
         id="tspan27716">170,170,0</tspan></text>
    <text
       xml:space="preserve"
       transform="matrix(1.2748667,0,0,1.2748667,300.8251,39.27393)"
       clip-path="none"
       id="text27717"><tspan
         style="font-variant:normal;font-weight:normal;font-size:9px;font-family:Carlito;writing-mode:lr-tb;fill:#000000;fill-opacity:1;fill-rule:nonzero;stroke:none"
         x="0"
         y="0"
         id="tspan27717">AAAA00</tspan></text>
    <text
       xml:space="preserve"
       transform="matrix(1.2748667,0,0,1.2748667,308.8032,51.71281)"
       clip-path="none"
       id="text27718"><tspan
         style="font-variant:normal;font-weight:normal;font-size:9px;font-family:Carlito;writing-mode:lr-tb;fill:#000000;fill-opacity:1;fill-rule:nonzero;stroke:none"
         x="0"
         y="0"
         id="tspan27718">olive</tspan></text>
  </g>
  <g
     id="g23">
    <path
       d="M 3356.28,405.379 3192.99,568.672 H 2962.06 L 2798.76,405.379 V 174.441 l 163.3,-163.2926 h 230.93 l 163.29,163.2926"
       style="fill:#eedd88;fill-opacity:1;fill-rule:nonzero;stroke:none"
       transform="matrix(0.12748667,0,0,-0.12748667,-1.3579,72.56185)"
       clip-path="none"
       id="path27719" />
    <text
       xml:space="preserve"
       transform="matrix(1.2748667,0,0,1.2748667,361.9422,26.4336)"
       clip-path="none"
       id="text27720"><tspan
         style="font-variant:normal;font-weight:normal;font-size:9px;font-family:Carlito;writing-mode:lr-tb;fill:#000000;fill-opacity:1;fill-rule:nonzero;stroke:none"
         x="0"
         y="0"
         id="tspan27720">238,221,136</tspan></text>
    <text
       xml:space="preserve"
       transform="matrix(1.2748667,0,0,1.2748667,372.5197,39.27393)"
       clip-path="none"
       id="text27721"><tspan
         style="font-variant:normal;font-weight:normal;font-size:9px;font-family:Carlito;writing-mode:lr-tb;fill:#000000;fill-opacity:1;fill-rule:nonzero;stroke:none"
         x="0"
         dx="0 0 0 -0.0062500001 -0.0050781202"
         y="0"
         id="tspan27721">EEDD88</tspan></text>
    <text
       xml:space="preserve"
       transform="matrix(1.2748667,0,0,1.2748667,364.2025,50.71828)"
       clip-path="none"
       id="text27722"><tspan
         style="font-variant:normal;font-weight:normal;font-size:9px;font-family:Carlito;writing-mode:lr-tb;fill:#000000;fill-opacity:1;fill-rule:nonzero;stroke:none"
         x="0"
         dx="0 0 0 0 0.0062500001 2.032614 0 0.0059570302"
         y="0"
         id="tspan27722">lightyellow</tspan></text>
  </g>
  <g
     id="g24">
    <path
       d="m 3913.81,405.379 -163.3,163.293 H 3519.58 L 3356.28,405.379 V 174.441 l 163.3,-163.2926 h 230.93 l 163.3,163.2926"
       style="fill:#ee8866;fill-opacity:1;fill-rule:nonzero;stroke:none"
       transform="matrix(0.12748667,0,0,-0.12748667,-1.3579,72.56185)"
       clip-path="none"
       id="path27723" />
    <text
       xml:space="preserve"
       transform="matrix(1.2748667,0,0,1.2748667,433.0185,26.4336)"
       clip-path="none"
       id="text27724"><tspan
         style="font-variant:normal;font-weight:normal;font-size:9px;font-family:Carlito;writing-mode:lr-tb;fill:#000000;fill-opacity:1;fill-rule:nonzero;stroke:none"
         x="0"
         y="0"
         id="tspan27724">238,136,102</tspan></text>
    <text
       xml:space="preserve"
       transform="matrix(1.2748667,0,0,1.2748667,444.8314,39.27393)"
       clip-path="none"
       id="text27725"><tspan
         style="font-variant:normal;font-weight:normal;font-size:9px;font-family:Carlito;writing-mode:lr-tb;fill:#000000;fill-opacity:1;fill-rule:nonzero;stroke:none"
         x="0"
         y="0"
         id="tspan27725">EE8866</tspan></text>
    <text
       xml:space="preserve"
       transform="matrix(1.2748667,0,0,1.2748667,445.7073,50.71828)"
       clip-path="none"
       id="text27726"><tspan
         style="font-variant:normal;font-weight:normal;font-size:9px;font-family:Carlito;writing-mode:lr-tb;fill:#000000;fill-opacity:1;fill-rule:nonzero;stroke:none"
         x="0"
         dx="0 0 0 0 0.0066406201"
         y="0"
         id="tspan27726">orange</tspan></text>
  </g>
  <g
     id="g25">
    <path
       d="m 4471.33,405.379 -163.3,163.293 H 4077.1 L 3913.81,405.379 V 174.441 L 4077.1,11.1484 h 230.93 l 163.3,163.2926"
       style="fill:#ffaabb;fill-opacity:1;fill-rule:nonzero;stroke:none"
       transform="matrix(0.12748667,0,0,-0.12748667,-1.3579,72.56185)"
       clip-path="none"
       id="path27727" />
    <text
       xml:space="preserve"
       transform="matrix(1.2748667,0,0,1.2748667,504.0949,26.4336)"
       clip-path="none"
       id="text27728"><tspan
         style="font-variant:normal;font-weight:normal;font-size:9px;font-family:Carlito;writing-mode:lr-tb;fill:#000000;fill-opacity:1;fill-rule:nonzero;stroke:none"
         x="0"
         y="0"
         id="tspan27728">255,170,187</tspan></text>
    <text
       xml:space="preserve"
       transform="matrix(1.2748667,0,0,1.2748667,514.9912,39.27393)"
       clip-path="none"
       id="text27729"><tspan
         style="font-variant:normal;font-weight:normal;font-size:9px;font-family:Carlito;writing-mode:lr-tb;fill:#000000;fill-opacity:1;fill-rule:nonzero;stroke:none"
         x="0"
         dx="0 0.0057617198 0 0 0 -0.0056640599"
         y="0"
         id="tspan27729">FFAABB</tspan></text>
    <text
       xml:space="preserve"
       transform="matrix(1.2748667,0,0,1.2748667,523.1784,50.71828)"
       clip-path="none"
       id="text27730"><tspan
         style="font-variant:normal;font-weight:normal;font-size:9px;font-family:Carlito;writing-mode:lr-tb;fill:#000000;fill-opacity:1;fill-rule:nonzero;stroke:none"
         x="0"
         dx="0 0.0054687499 0 0.0054687499"
         y="0"
         id="tspan27730">pink</tspan></text>
  </g>
  <g
     id="g26">
    <path
       d="M 5028.85,405.379 4865.56,568.672 H 4634.62 L 4471.33,405.379 V 174.441 L 4634.62,11.1484 h 230.94 l 163.29,163.2926"
       style="fill:#dddddd;fill-opacity:1;fill-rule:nonzero;stroke:none"
       transform="matrix(0.12748667,0,0,-0.12748667,-1.3579,72.56185)"
       clip-path="none"
       id="path27731" />
    <text
       xml:space="preserve"
       transform="matrix(1.2748667,0,0,1.2748667,575.1725,26.4336)"
       clip-path="none"
       id="text27732"><tspan
         style="font-variant:normal;font-weight:normal;font-size:9px;font-family:Carlito;writing-mode:lr-tb;fill:#000000;fill-opacity:1;fill-rule:nonzero;stroke:none"
         x="0"
         y="0"
         id="tspan27732">221,221,221</tspan></text>
    <text
       xml:space="preserve"
       transform="matrix(1.2748667,0,0,1.2748667,583.0601,39.27393)"
       clip-path="none"
       id="text27733"><tspan
         style="font-variant:normal;font-weight:normal;font-size:9px;font-family:Carlito;writing-mode:lr-tb;fill:#000000;fill-opacity:1;fill-rule:nonzero;stroke:none"
         x="0"
         dx="0 -0.0058593801 -0.0062500001 -0.0050781202 -0.0062500001 -0.0058593801"
         y="0"
         id="tspan27733">DDDDDD</tspan></text>
    <text
       xml:space="preserve"
       transform="matrix(1.2748667,0,0,1.2748667,582.8217,50.71828)"
       clip-path="none"
       id="text27734"><tspan
         style="font-variant:normal;font-weight:normal;font-size:9px;font-family:Carlito;writing-mode:lr-tb;fill:#000000;fill-opacity:1;fill-rule:nonzero;stroke:none"
         x="0"
         dx="0 0.0054687499 0 0 2.037987 0 0 0.0059570302"
         y="0"
         id="tspan27734">palegrey</tspan></text>
  </g>
</svg>
