<?xml version="1.0" encoding="UTF-8" standalone="no"?>
<!-- Created with Inkscape (http://www.inkscape.org/) -->

<svg
   version="1.1"
   id="svg1"
   width="659.23407"
   height="187.79393"
   viewBox="0 0 659.23407 187.79392"
   sodipodi:docname="medium-contrast.svg"
   inkscape:version="1.4.1 (1:1.4.1+202503302257+93de688d07)"
   xmlns:inkscape="http://www.inkscape.org/namespaces/inkscape"
   xmlns:sodipodi="http://sodipodi.sourceforge.net/DTD/sodipodi-0.dtd"
   xmlns="http://www.w3.org/2000/svg"
   xmlns:svg="http://www.w3.org/2000/svg">
  <defs
     id="defs1">
    <clipPath
       clipPathUnits="userSpaceOnUse"
       id="clipPath27282">
      <path
         d="M 0,719 H 4480 V 0 H 0 Z"
         transform="translate(-2.6083782e-4)"
         id="path27282" />
    </clipPath>
    <clipPath
       clipPathUnits="userSpaceOnUse"
       id="clipPath27283">
      <path
         d="M 0,719 H 4480 V 0 H 0 Z"
         transform="translate(-2.6083782e-4)"
         id="path27283" />
    </clipPath>
    <clipPath
       clipPathUnits="userSpaceOnUse"
       id="clipPath27284">
      <path
         d="M 0,719 H 4480 V 0 H 0 Z"
         transform="translate(-2.6083782e-4)"
         id="path27284" />
    </clipPath>
    <clipPath
       clipPathUnits="userSpaceOnUse"
       id="clipPath27285">
      <path
         d="M 0,719 H 4480 V 0 H 0 Z"
         transform="translate(-2.6083782e-4)"
         id="path27285" />
    </clipPath>
    <clipPath
       clipPathUnits="userSpaceOnUse"
       id="clipPath27286">
      <path
         d="M 0,719 H 4480 V 0 H 0 Z"
         transform="translate(-2.6083782e-4)"
         id="path27286" />
    </clipPath>
    <clipPath
       clipPathUnits="userSpaceOnUse"
       id="clipPath27287">
      <path
         d="M 0,719 H 4480 V 0 H 0 Z"
         transform="translate(-2.6083782e-4)"
         id="path27287" />
    </clipPath>
    <clipPath
       clipPathUnits="userSpaceOnUse"
       id="clipPath27295">
      <path
         d="M 0,0 H 4480 V 719 H 0 Z"
         transform="translate(-2.6083782e-4)"
         id="path27295" />
    </clipPath>
    <clipPath
       clipPathUnits="userSpaceOnUse"
       id="clipPath27296">
      <path
         d="M 0,0 H 4480 V 719 H 0 Z"
         transform="translate(-2.6083782e-4)"
         id="path27296" />
    </clipPath>
    <clipPath
       clipPathUnits="userSpaceOnUse"
       id="clipPath27297">
      <path
         d="M 0,0 H 4480 V 719 H 0 Z"
         transform="translate(-2.6083782e-4)"
         id="path27297" />
    </clipPath>
    <clipPath
       clipPathUnits="userSpaceOnUse"
       id="clipPath27305">
      <path
         d="M 0,0 H 4480 V 719 H 0 Z"
         transform="translate(-2.6083782e-4)"
         id="path27305" />
    </clipPath>
    <clipPath
       clipPathUnits="userSpaceOnUse"
       id="clipPath27306">
      <path
         d="M 0,0 H 4480 V 719 H 0 Z"
         transform="translate(-2.6083782e-4)"
         id="path27306" />
    </clipPath>
    <clipPath
       clipPathUnits="userSpaceOnUse"
       id="clipPath27307">
      <path
         d="M 0,0 H 4480 V 719 H 0 Z"
         transform="translate(-2.6083782e-4)"
         id="path27307" />
    </clipPath>
    <clipPath
       clipPathUnits="userSpaceOnUse"
       id="clipPath27315">
      <path
         d="M 0,0 H 4480 V 719 H 0 Z"
         transform="translate(-2.6083782e-4)"
         id="path27315" />
    </clipPath>
    <clipPath
       clipPathUnits="userSpaceOnUse"
       id="clipPath27316">
      <path
         d="M 0,0 H 4480 V 719 H 0 Z"
         transform="translate(-2.6083782e-4)"
         id="path27316" />
    </clipPath>
    <clipPath
       clipPathUnits="userSpaceOnUse"
       id="clipPath27317">
      <path
         d="M 0,0 H 4480 V 719 H 0 Z"
         transform="translate(-2.6083782e-4)"
         id="path27317" />
    </clipPath>
    <clipPath
       clipPathUnits="userSpaceOnUse"
       id="clipPath27325">
      <path
         d="M 0,0 H 4480 V 719 H 0 Z"
         transform="translate(-2.6083782e-4)"
         id="path27325" />
    </clipPath>
    <clipPath
       clipPathUnits="userSpaceOnUse"
       id="clipPath27326">
      <path
         d="M 0,0 H 4480 V 719 H 0 Z"
         transform="translate(-2.6083782e-4)"
         id="path27326" />
    </clipPath>
    <clipPath
       clipPathUnits="userSpaceOnUse"
       id="clipPath27327">
      <path
         d="M 0,0 H 4480 V 719 H 0 Z"
         transform="translate(-2.6083782e-4)"
         id="path27327" />
    </clipPath>
    <clipPath
       clipPathUnits="userSpaceOnUse"
       id="clipPath27335">
      <path
         d="M 0,0 H 4480 V 719 H 0 Z"
         transform="translate(-2.6083782e-4)"
         id="path27335" />
    </clipPath>
    <clipPath
       clipPathUnits="userSpaceOnUse"
       id="clipPath27336">
      <path
         d="M 0,0 H 4480 V 719 H 0 Z"
         transform="translate(-2.6083782e-4)"
         id="path27336" />
    </clipPath>
    <clipPath
       clipPathUnits="userSpaceOnUse"
       id="clipPath27337">
      <path
         d="M 0,0 H 4480 V 719 H 0 Z"
         transform="translate(-2.6083782e-4)"
         id="path27337" />
    </clipPath>
    <clipPath
       clipPathUnits="userSpaceOnUse"
       id="clipPath27345">
      <path
         d="M 0,0 H 4480 V 719 H 0 Z"
         transform="translate(-2.6083782e-4)"
         id="path27345" />
    </clipPath>
    <clipPath
       clipPathUnits="userSpaceOnUse"
       id="clipPath27346">
      <path
         d="M 0,0 H 4480 V 719 H 0 Z"
         transform="translate(-2.6083782e-4)"
         id="path27346" />
    </clipPath>
    <clipPath
       clipPathUnits="userSpaceOnUse"
       id="clipPath27347">
      <path
         d="M 0,0 H 4480 V 719 H 0 Z"
         transform="translate(-2.6083782e-4)"
         id="path27347" />
    </clipPath>
    <clipPath
       clipPathUnits="userSpaceOnUse"
       id="clipPath27355">
      <path
         d="M 0,0 H 4480 V 719 H 0 Z"
         transform="translate(-2.6083782e-4)"
         id="path27355" />
    </clipPath>
    <clipPath
       clipPathUnits="userSpaceOnUse"
       id="clipPath27356">
      <path
         d="M 0,0 H 4480 V 719 H 0 Z"
         transform="translate(-2.6083782e-4)"
         id="path27356" />
    </clipPath>
    <clipPath
       clipPathUnits="userSpaceOnUse"
       id="clipPath27357">
      <path
         d="M 0,0 H 4480 V 719 H 0 Z"
         transform="translate(-2.6083782e-4)"
         id="path27357" />
    </clipPath>
    <clipPath
       clipPathUnits="userSpaceOnUse"
       id="clipPath27365">
      <path
         d="M 0,0 H 4480 V 719 H 0 Z"
         transform="translate(-2.6083782e-4)"
         id="path27365" />
    </clipPath>
  </defs>
  <sodipodi:namedview
     id="namedview1"
     pagecolor="#ffffff"
     bordercolor="#666666"
     borderopacity="1.0"
     inkscape:showpageshadow="2"
     inkscape:pageopacity="0.0"
     inkscape:pagecheckerboard="0"
     inkscape:deskcolor="#d1d1d1"
     inkscape:zoom="4.3881545"
     inkscape:cx="10.368824"
     inkscape:cy="59.820136"
     inkscape:window-width="1680"
     inkscape:window-height="1013"
     inkscape:window-x="1920"
     inkscape:window-y="0"
     inkscape:window-maximized="1"
     inkscape:current-layer="svg1">
    <inkscape:page
       x="5.9075364e-07"
       y="8.3715825e-09"
       width="659.23407"
       height="187.79393"
       id="page2"
       margin="0"
       bleed="0" />
  </sodipodi:namedview>
  <g
     id="g28"
     transform="translate(86.660058,-0.42510523)">
    <g
       id="g35">
      <path
         d="M 1125.57,544.461 962.371,707.672 H 731.559 L 568.359,544.461 V 313.66 l 163.2,-163.211 H 962.371 L 1125.57,313.66"
         style="fill:#eecc66;fill-opacity:1;fill-rule:nonzero;stroke:none"
         transform="matrix(0.12779333,0,0,-0.12779333,-0.0015,91.3942)"
         clip-path="none"
         id="path27376" />
      <text
         xml:space="preserve"
         transform="matrix(1.2779333,0,0,1.2779333,79.1215,27.09115)"
         clip-path="none"
         id="text27377"><tspan
           style="font-variant:normal;font-weight:normal;font-size:9px;font-family:Carlito;writing-mode:lr-tb;fill:#000000;fill-opacity:1;fill-rule:nonzero;stroke:none"
           x="0"
           y="0"
           id="tspan27377">238,204,102</tspan></text>
      <text
         xml:space="preserve"
         transform="matrix(1.2779333,0,0,1.2779333,90.6639,39.9179)"
         clip-path="none"
         id="text27378"><tspan
           style="font-variant:normal;font-weight:normal;font-size:9px;font-family:Carlito;writing-mode:lr-tb;fill:#000000;fill-opacity:1;fill-rule:nonzero;stroke:none"
           x="0"
           y="0"
           id="tspan27378">EECC66</tspan></text>
      <text
         xml:space="preserve"
         transform="matrix(1.2779333,0,0,1.2779333,81.3889,52.21903)"
         clip-path="none"
         id="text27379"><tspan
           style="font-variant:normal;font-weight:normal;font-size:9px;font-family:Carlito;writing-mode:lr-tb;fill:#000000;fill-opacity:1;fill-rule:nonzero;stroke:none"
           x="0"
           dx="0 0 0 0 0.0062500001 2.032614 0 0.0063476502"
           y="0"
           id="tspan27379">lightyellow</tspan></text>
      <path
         d="m 568.359,11.1484 h 557.211 v 139.301 H 568.359 Z"
         style="fill:#cfcfcf;fill-opacity:1;fill-rule:nonzero;stroke:#cfcfcf;stroke-width:1;stroke-linecap:round;stroke-linejoin:bevel;stroke-miterlimit:3.239;stroke-dasharray:none;stroke-opacity:1"
         transform="matrix(0.12779333,0,0,-0.12779333,-0.0015,91.3942)"
         clip-path="none"
         id="path27380" />
    </g>
    <g
       id="g34">
      <path
         d="m 1682.79,544.461 -163.21,163.211 h -230.8 L 1125.57,544.461 V 313.66 l 163.21,-163.211 h 230.8 l 163.21,163.211"
         style="fill:#ee99aa;fill-opacity:1;fill-rule:nonzero;stroke:none"
         transform="matrix(0.12779333,0,0,-0.12779333,-0.0015,91.3942)"
         clip-path="none"
         id="path27381" />
      <text
         xml:space="preserve"
         transform="matrix(1.2779333,0,0,1.2779333,150.3307,27.09115)"
         clip-path="none"
         id="text27382"><tspan
           style="font-variant:normal;font-weight:normal;font-size:9px;font-family:Carlito;writing-mode:lr-tb;fill:#000000;fill-opacity:1;fill-rule:nonzero;stroke:none"
           x="0"
           y="0"
           id="tspan27382">238,153,170</tspan></text>
      <text
         xml:space="preserve"
         transform="matrix(1.2779333,0,0,1.2779333,161.3529,39.9179)"
         clip-path="none"
         id="text27383"><tspan
           style="font-variant:normal;font-weight:normal;font-size:9px;font-family:Carlito;writing-mode:lr-tb;fill:#000000;fill-opacity:1;fill-rule:nonzero;stroke:none"
           x="0"
           y="0"
           id="tspan27383">EE99AA</tspan></text>
      <text
         xml:space="preserve"
         transform="matrix(1.2779333,0,0,1.2779333,159.9548,52.21903)"
         clip-path="none"
         id="text27384"><tspan
           style="font-variant:normal;font-weight:normal;font-size:9px;font-family:Carlito;writing-mode:lr-tb;fill:#000000;fill-opacity:1;fill-rule:nonzero;stroke:none"
           x="0"
           dx="0 0 0 0 0.0066406201 2.032227 0 0.0071289102"
           y="0"
           id="tspan27384">lightred</tspan></text>
      <path
         d="m 1125.57,11.1484 h 557.219 v 139.301 H 1125.57 Z"
         style="fill:#b1b1b1;fill-opacity:1;fill-rule:nonzero;stroke:#b1b1b1;stroke-width:1;stroke-linecap:round;stroke-linejoin:bevel;stroke-miterlimit:3.239;stroke-dasharray:none;stroke-opacity:1"
         transform="matrix(0.12779333,0,0,-0.12779333,-0.0015,91.3942)"
         clip-path="none"
         id="path27385" />
    </g>
    <g
       id="g33">
      <path
         d="M 2240,544.461 2076.8,707.672 H 1845.99 L 1682.79,544.461 V 313.66 l 163.2,-163.211 H 2076.8 L 2240,313.66"
         style="fill:#6699cc;fill-opacity:1;fill-rule:nonzero;stroke:none"
         transform="matrix(0.12779333,0,0,-0.12779333,-0.0015,91.3942)"
         clip-path="none"
         id="path27386" />
      <text
         xml:space="preserve"
         transform="matrix(1.2779333,0,0,1.2779333,221.5384,27.09115)"
         clip-path="none"
         id="text27387"><tspan
           style="font-variant:normal;font-weight:normal;font-size:9px;font-family:Carlito;writing-mode:lr-tb;fill:#000000;fill-opacity:1;fill-rule:nonzero;stroke:none"
           x="0"
           y="0"
           id="tspan27387">102,153,204</tspan></text>
      <text
         xml:space="preserve"
         transform="matrix(1.2779333,0,0,1.2779333,232.8596,39.9179)"
         clip-path="none"
         id="text27388"><tspan
           style="font-variant:normal;font-weight:normal;font-size:9px;font-family:Carlito;writing-mode:lr-tb;fill:#000000;fill-opacity:1;fill-rule:nonzero;stroke:none"
           x="0"
           y="0"
           id="tspan27388">6699CC</tspan></text>
      <text
         xml:space="preserve"
         transform="matrix(1.2779333,0,0,1.2779333,228.8265,52.21903)"
         clip-path="none"
         id="text27389"><tspan
           style="font-variant:normal;font-weight:normal;font-size:9px;font-family:Carlito;writing-mode:lr-tb;fill:#000000;fill-opacity:1;fill-rule:nonzero;stroke:none"
           x="0"
           dx="0 0 0 0 0.0066406201 2.032227 0.0054687499 0 0.0058593801"
           y="0"
           id="tspan27389">lightblue</tspan></text>
      <path
         d="m 1682.79,11.1484 h 557.211 v 139.301 H 1682.79 Z"
         style="fill:#959595;fill-opacity:1;fill-rule:nonzero;stroke:#959595;stroke-width:1;stroke-linecap:round;stroke-linejoin:bevel;stroke-miterlimit:3.239;stroke-dasharray:none;stroke-opacity:1"
         transform="matrix(0.12779333,0,0,-0.12779333,-0.0015,91.3942)"
         clip-path="none"
         id="path27390" />
    </g>
    <g
       id="g32">
      <path
         d="m 2797.21,544.461 -163.2,163.211 H 2403.2 L 2240,544.461 V 313.66 l 163.2,-163.211 h 230.81 l 163.2,163.211"
         style="fill:#997700;fill-opacity:1;fill-rule:nonzero;stroke:none"
         transform="matrix(0.12779333,0,0,-0.12779333,-0.0015,91.3942)"
         clip-path="none"
         id="path27391" />
      <text
         xml:space="preserve"
         transform="matrix(1.2779333,0,0,1.2779333,298.5774,27.09115)"
         clip-path="none"
         id="text27392"><tspan
           style="font-variant:normal;font-weight:normal;font-size:9px;font-family:Carlito;writing-mode:lr-tb;fill:#000000;fill-opacity:1;fill-rule:nonzero;stroke:none"
           x="0"
           y="0"
           id="tspan27392">153,119,0</tspan></text>
      <text
         xml:space="preserve"
         transform="matrix(1.2779333,0,0,1.2779333,304.3677,39.9179)"
         clip-path="none"
         id="text27393"><tspan
           style="font-variant:normal;font-weight:normal;font-size:9px;font-family:Carlito;writing-mode:lr-tb;fill:#000000;fill-opacity:1;fill-rule:nonzero;stroke:none"
           x="0"
           y="0"
           id="tspan27393">997700</tspan></text>
      <text
         xml:space="preserve"
         transform="matrix(1.2779333,0,0,1.2779333,294.9033,52.21903)"
         clip-path="none"
         id="text27394"><tspan
           style="font-variant:normal;font-weight:normal;font-size:9px;font-family:Carlito;writing-mode:lr-tb;fill:#000000;fill-opacity:1;fill-rule:nonzero;stroke:none"
           x="0"
           dx="0 0.0054687499 0 0 2.0325241 0.00517578 0.0063476502"
           y="0"
           id="tspan27394">darkyellow</tspan></text>
      <path
         d="m 2240,11.1484 h 557.211 v 139.301 H 2240 Z"
         style="fill:#7b7b7b;fill-opacity:1;fill-rule:nonzero;stroke:#7b7b7b;stroke-width:1;stroke-linecap:round;stroke-linejoin:bevel;stroke-miterlimit:3.239;stroke-dasharray:none;stroke-opacity:1"
         transform="matrix(0.12779333,0,0,-0.12779333,-0.0015,91.3942)"
         clip-path="none"
         id="path27395" />
    </g>
    <g
       id="g31">
      <path
         d="m 3354.43,544.461 -163.21,163.211 h -230.8 L 2797.21,544.461 V 313.66 l 163.21,-163.211 h 230.8 l 163.21,163.211"
         style="fill:#994455;fill-opacity:1;fill-rule:nonzero;stroke:none"
         clip-path="none"
         id="path27396"
         transform="matrix(0.12779333,0,0,-0.12779333,-0.0015,91.3942)" />
      <text
         xml:space="preserve"
         transform="matrix(1.2779333,0,0,1.2779333,369.7851,27.09115)"
         clip-path="none"
         id="text27397"><tspan
           style="font-variant:normal;font-weight:normal;font-size:9px;font-family:Carlito;writing-mode:lr-tb;fill:#000000;fill-opacity:1;fill-rule:nonzero;stroke:none"
           x="0"
           y="0"
           id="tspan27397">153,68,85</tspan></text>
      <text
         xml:space="preserve"
         transform="matrix(1.2779333,0,0,1.2779333,375.5767,39.9179)"
         clip-path="none"
         id="text27398"><tspan
           style="font-variant:normal;font-weight:normal;font-size:9px;font-family:Carlito;writing-mode:lr-tb;fill:#000000;fill-opacity:1;fill-rule:nonzero;stroke:none"
           x="0"
           y="0"
           id="tspan27398">994455</tspan></text>
      <text
         xml:space="preserve"
         transform="matrix(1.2779333,0,0,1.2779333,373.4694,53.17748)"
         clip-path="none"
         id="text27399"><tspan
           style="font-variant:normal;font-weight:normal;font-size:9px;font-family:Carlito;writing-mode:lr-tb;fill:#000000;fill-opacity:1;fill-rule:nonzero;stroke:none"
           x="0"
           dx="0 0.0054687499 0 0 2.0329111 0 0.0071289102"
           y="0"
           id="tspan27399">darkred</tspan></text>
      <path
         d="m 2797.21,11.1484 h 557.219 v 139.301 H 2797.21 Z"
         style="fill:#5f5f5f;fill-opacity:1;fill-rule:nonzero;stroke:#5f5f5f;stroke-width:1;stroke-linecap:round;stroke-linejoin:bevel;stroke-miterlimit:3.239;stroke-dasharray:none;stroke-opacity:1"
         transform="matrix(0.12779333,0,0,-0.12779333,-0.0015,91.3942)"
         clip-path="none"
         id="path27400" />
    </g>
    <g
       id="g30">
      <path
         d="m 3911.64,544.461 -163.2,163.211 H 3517.63 L 3354.43,544.461 V 313.66 l 163.2,-163.211 h 230.81 l 163.2,163.211"
         style="fill:#004488;fill-opacity:1;fill-rule:nonzero;stroke:none"
         transform="matrix(0.12779333,0,0,-0.12779333,-0.0015,91.3942)"
         clip-path="none"
         id="path27401" />
      <text
         xml:space="preserve"
         transform="matrix(1.2779333,0,0,1.2779333,443.9091,27.09115)"
         clip-path="none"
         id="text27402"><tspan
           style="font-variant:normal;font-weight:normal;font-size:9px;font-family:Carlito;writing-mode:lr-tb;fill:#000000;fill-opacity:1;fill-rule:nonzero;stroke:none"
           x="0"
           y="0"
           id="tspan27402">0,68,136</tspan></text>
      <text
         xml:space="preserve"
         transform="matrix(1.2779333,0,0,1.2779333,446.7844,39.9179)"
         clip-path="none"
         id="text27403"><tspan
           style="font-variant:normal;font-weight:normal;font-size:9px;font-family:Carlito;writing-mode:lr-tb;fill:#000000;fill-opacity:1;fill-rule:nonzero;stroke:none"
           x="0"
           y="0"
           id="tspan27403">004488</tspan></text>
      <text
         xml:space="preserve"
         transform="matrix(1.2779333,0,0,1.2779333,442.341,53.17748)"
         clip-path="none"
         id="text27404"><tspan
           style="font-variant:normal;font-weight:normal;font-size:9px;font-family:Carlito;writing-mode:lr-tb;fill:#000000;fill-opacity:1;fill-rule:nonzero;stroke:none"
           x="0"
           dx="0 0.0054687499 0 0 2.0329111 0.0062500001 0 0.0066406201"
           y="0"
           id="tspan27404">darkblue</tspan></text>
      <path
         d="m 3354.43,11.1484 h 557.211 v 139.301 H 3354.43 Z"
         style="fill:#454545;fill-opacity:1;fill-rule:nonzero;stroke:#454545;stroke-width:1;stroke-linecap:round;stroke-linejoin:bevel;stroke-miterlimit:3.239;stroke-dasharray:none;stroke-opacity:1"
         transform="matrix(0.12779333,0,0,-0.12779333,-0.0015,91.3942)"
         clip-path="none"
         id="path27405" />
    </g>
    <g
       id="g29">
      <path
         d="m 4468.86,544.461 -163.21,163.211 h -230.8 L 3911.64,544.461 V 313.66 l 163.21,-163.211 h 230.8 l 163.21,163.211"
         style="fill:#000000;fill-opacity:1;fill-rule:nonzero;stroke:none"
         transform="matrix(0.12779333,0,0,-0.12779333,-0.0015,91.3942)"
         clip-path="none"
         id="path27406" />
      <text
         xml:space="preserve"
         transform="matrix(1.2779333,0,0,1.2779333,523.863,27.09115)"
         clip-path="none"
         id="text27407"><tspan
           style="font-variant:normal;font-weight:normal;font-size:9px;font-family:Carlito;writing-mode:lr-tb;fill:#ffffff;fill-opacity:1;fill-rule:nonzero;stroke:none"
           x="0"
           y="0"
           id="tspan27407">0,0,0</tspan></text>
      <text
         xml:space="preserve"
         transform="matrix(1.2779333,0,0,1.2779333,517.9921,39.9179)"
         clip-path="none"
         id="text27408"><tspan
           style="font-variant:normal;font-weight:normal;font-size:9px;font-family:Carlito;writing-mode:lr-tb;fill:#ffffff;fill-opacity:1;fill-rule:nonzero;stroke:none"
           x="0"
           y="0"
           id="tspan27408">000000</tspan></text>
      <text
         xml:space="preserve"
         transform="matrix(1.2779333,0,0,1.2779333,523.3339,53.17748)"
         clip-path="none"
         id="text27409"><tspan
           style="font-variant:normal;font-weight:normal;font-size:9px;font-family:Carlito;writing-mode:lr-tb;fill:#ffffff;fill-opacity:1;fill-rule:nonzero;stroke:none"
           x="0"
           dx="0 0.0054687499 0 0 0.0072265598"
           y="0"
           id="tspan27409">black</tspan></text>
      <path
         d="m 3911.64,11.1484 h 557.219 v 139.301 H 3911.64 Z"
         style="fill:#000000;fill-opacity:1;fill-rule:nonzero;stroke:#000000;stroke-width:1;stroke-linecap:round;stroke-linejoin:bevel;stroke-miterlimit:3.239;stroke-dasharray:none;stroke-opacity:1"
         transform="matrix(0.12779333,0,0,-0.12779333,-0.0015,91.3942)"
         clip-path="none"
         id="path27410" />
    </g>
    <g
       id="g36">
      <path
         d="M 568.359,544.461 405.148,707.672 H 174.352 L 11.1406,544.461 V 313.66 L 174.352,150.449 H 405.148 L 568.359,313.66 v 230.801"
         style="fill:none;stroke:#000000;stroke-width:8.34681;stroke-linecap:round;stroke-linejoin:round;stroke-miterlimit:3.239;stroke-dasharray:none;stroke-opacity:1"
         transform="matrix(0.12779333,0,0,-0.12779333,-0.0015,91.3942)"
         clip-path="none"
         id="path27369" />
      <path
         d="M 568.359,150.449 H 11.1406 V 11.1484 H 568.359 V 150.449"
         style="fill:none;stroke:#000000;stroke-width:7.30346;stroke-linecap:round;stroke-linejoin:round;stroke-miterlimit:3.239;stroke-dasharray:none;stroke-opacity:1"
         transform="matrix(0.12779333,0,0,-0.12779333,-0.0015,91.3942)"
         clip-path="none"
         id="path27370" />
      <text
         xml:space="preserve"
         transform="matrix(1.2779333,0,0,1.2779333,7.9142,27.09115)"
         clip-path="none"
         id="text27372"><tspan
           style="font-variant:normal;font-weight:normal;font-size:9px;font-family:Carlito;writing-mode:lr-tb;fill:#000000;fill-opacity:1;fill-rule:nonzero;stroke:none"
           x="0"
           y="0"
           id="tspan27372">255,255,255</tspan></text>
      <text
         xml:space="preserve"
         transform="matrix(1.2779333,0,0,1.2779333,21.1522,39.9179)"
         clip-path="none"
         id="text27373"><tspan
           style="font-variant:normal;font-weight:normal;font-size:9px;font-family:Carlito;writing-mode:lr-tb;fill:#000000;fill-opacity:1;fill-rule:nonzero;stroke:none"
           x="0"
           dx="0 0.0057617198 0 0.0057617198 0 0.0057617198"
           y="0"
           id="tspan27373">FFFFFF</tspan></text>
      <text
         xml:space="preserve"
         transform="matrix(1.2779333,0,0,1.2779333,23.778,53.17748)"
         clip-path="none"
         id="text27374"><tspan
           style="font-variant:normal;font-weight:normal;font-size:9px;font-family:Carlito;writing-mode:lr-tb;fill:#000000;fill-opacity:1;fill-rule:nonzero;stroke:none"
           x="0"
           dx="0 0 0.0054687499"
           y="0"
           id="tspan27374">white</tspan></text>
    </g>
  </g>
  <g
     id="g27435"
     transform="translate(-3278.7521,-763.96291)">
    <path
       d="M 0,300 H 1200 V 600 H 0 Z"
       style="fill:#eecc66;fill-opacity:1;fill-rule:nonzero;stroke:#eecc66;stroke-width:1;stroke-linecap:square;stroke-linejoin:bevel;stroke-miterlimit:3.239;stroke-dasharray:none;stroke-opacity:1"
       transform="matrix(0.15902667,0,0,-0.15902667,3365.4107,951.67733)"
       clip-path="none"
       id="path27424" />
    <path
       d="M 1200,300 H 2400 V 600 H 1200 Z"
       style="fill:#ee99aa;fill-opacity:1;fill-rule:nonzero;stroke:#ee99aa;stroke-width:1;stroke-linecap:square;stroke-linejoin:bevel;stroke-miterlimit:3.239;stroke-dasharray:none;stroke-opacity:1"
       transform="matrix(0.15902667,0,0,-0.15902667,3365.4107,951.67733)"
       clip-path="none"
       id="path27425" />
    <path
       d="M 2400,300 H 3600 V 600 H 2400 Z"
       style="fill:#6699cc;fill-opacity:1;fill-rule:nonzero;stroke:#6699cc;stroke-width:1;stroke-linecap:square;stroke-linejoin:bevel;stroke-miterlimit:3.239;stroke-dasharray:none;stroke-opacity:1"
       transform="matrix(0.15902667,0,0,-0.15902667,3365.4107,951.67733)"
       clip-path="none"
       id="path27426" />
    <path
       d="m 175.738,300 h 848.523 V 512.129 H 175.738 Z"
       style="fill:#997700;fill-opacity:1;fill-rule:nonzero;stroke:#997700;stroke-width:1;stroke-linecap:square;stroke-linejoin:bevel;stroke-miterlimit:3.239;stroke-dasharray:none;stroke-opacity:1"
       transform="matrix(0.15902667,0,0,-0.15902667,3365.4107,951.67733)"
       clip-path="none"
       id="path27427" />
    <path
       d="m 1375.74,300 h 848.523 V 512.129 H 1375.74 Z"
       style="fill:#994455;fill-opacity:1;fill-rule:nonzero;stroke:#994455;stroke-width:1;stroke-linecap:square;stroke-linejoin:bevel;stroke-miterlimit:3.239;stroke-dasharray:none;stroke-opacity:1"
       transform="matrix(0.15902667,0,0,-0.15902667,3365.4107,951.67733)"
       clip-path="none"
       id="path27428" />
    <path
       d="m 2575.74,300 h 848.523 V 512.129 H 2575.74 Z"
       style="fill:#004488;fill-opacity:1;fill-rule:nonzero;stroke:#004488;stroke-width:1;stroke-linecap:square;stroke-linejoin:bevel;stroke-miterlimit:3.239;stroke-dasharray:none;stroke-opacity:1"
       transform="matrix(0.15902667,0,0,-0.15902667,3365.4107,951.67733)"
       clip-path="none"
       id="path27429" />
    <path
       d="M 0,0 H 1200 V 300 H 0 Z"
       style="fill:#cfcfcf;fill-opacity:1;fill-rule:nonzero;stroke:#cfcfcf;stroke-width:1;stroke-linecap:square;stroke-linejoin:bevel;stroke-miterlimit:3.239;stroke-dasharray:none;stroke-opacity:1"
       transform="matrix(0.15902667,0,0,-0.15902667,3365.4107,951.67733)"
       clip-path="none"
       id="path27430" />
    <path
       d="M 1200,0 H 2400 V 300 H 1200 Z"
       style="fill:#b1b1b1;fill-opacity:1;fill-rule:nonzero;stroke:#b1b1b1;stroke-width:1;stroke-linecap:square;stroke-linejoin:bevel;stroke-miterlimit:3.239;stroke-dasharray:none;stroke-opacity:1"
       transform="matrix(0.15902667,0,0,-0.15902667,3365.4107,951.67733)"
       clip-path="none"
       id="path27431" />
    <path
       d="M 2400,0 H 3600 V 300 H 2400 Z"
       style="fill:#959595;fill-opacity:1;fill-rule:nonzero;stroke:#959595;stroke-width:1;stroke-linecap:square;stroke-linejoin:bevel;stroke-miterlimit:3.239;stroke-dasharray:none;stroke-opacity:1"
       transform="matrix(0.15902667,0,0,-0.15902667,3365.4107,951.67733)"
       clip-path="none"
       id="path27432" />
    <path
       d="m 175.738,87.8711 h 848.523 v 212.129 H 175.738 Z"
       style="fill:#7b7b7b;fill-opacity:1;fill-rule:nonzero;stroke:#7b7b7b;stroke-width:1;stroke-linecap:square;stroke-linejoin:bevel;stroke-miterlimit:3.239;stroke-dasharray:none;stroke-opacity:1"
       transform="matrix(0.15902667,0,0,-0.15902667,3365.4107,951.67733)"
       clip-path="none"
       id="path27433" />
    <path
       d="m 1375.74,87.8711 h 848.523 v 212.129 H 1375.74 Z"
       style="fill:#5f5f5f;fill-opacity:1;fill-rule:nonzero;stroke:#5f5f5f;stroke-width:1;stroke-linecap:square;stroke-linejoin:bevel;stroke-miterlimit:3.239;stroke-dasharray:none;stroke-opacity:1"
       transform="matrix(0.15902667,0,0,-0.15902667,3365.4107,951.67733)"
       clip-path="none"
       id="path27434" />
    <path
       d="m 2575.74,87.8711 h 848.523 v 212.129 H 2575.74 Z"
       style="fill:#454545;fill-opacity:1;fill-rule:nonzero;stroke:#454545;stroke-width:1;stroke-linecap:square;stroke-linejoin:bevel;stroke-miterlimit:3.239;stroke-dasharray:none;stroke-opacity:1"
       transform="matrix(0.15902667,0,0,-0.15902667,3365.4107,951.67733)"
       clip-path="none"
       id="path27435" />
  </g>
  <text
     xml:space="preserve"
     clip-path="none"
     id="text1"
     x="106.57373"
     y="40.090504"
     style="font-size:15.3418px;text-align:end;text-anchor:end;stroke-width:1.27848"><tspan
       style="font-variant:normal;font-weight:normal;font-size:11.5063px;font-family:Carlito;text-align:end;writing-mode:lr-tb;text-anchor:end;fill:#000000;fill-opacity:1;fill-rule:nonzero;stroke:none;stroke-width:1.27848"
       x="79.678879"
       y="40.090504"
       id="tspan1">medium-contrast</tspan></text>
</svg>
