<?xml version="1.0" encoding="UTF-8" standalone="no"?>
<!-- Created with Inkscape (http://www.inkscape.org/) -->

<svg
   version="1.1"
   id="svg1"
   width="678.69501"
   height="65.403946"
   viewBox="0 0 678.695 65.403945"
   sodipodi:docname="muted.svg"
   inkscape:version="1.4.1 (1:1.4.1+202503302257+93de688d07)"
   xmlns:inkscape="http://www.inkscape.org/namespaces/inkscape"
   xmlns:sodipodi="http://sodipodi.sourceforge.net/DTD/sodipodi-0.dtd"
   xmlns="http://www.w3.org/2000/svg"
   xmlns:svg="http://www.w3.org/2000/svg">
  <defs
     id="defs1">
    <clipPath
       clipPathUnits="userSpaceOnUse"
       id="clipPath27147">
      <path
         d="M 0,0 V 592 H 5600 V 0 Z"
         transform="translate(0,2.9052202e-5)"
         id="path27147" />
    </clipPath>
    <clipPath
       clipPathUnits="userSpaceOnUse"
       id="clipPath27148">
      <path
         d="M 0,0 V 592 H 5600 V 0 Z"
         transform="translate(0,2.9052202e-5)"
         id="path27148" />
    </clipPath>
    <clipPath
       clipPathUnits="userSpaceOnUse"
       id="clipPath27156">
      <path
         d="M 0,0 V 592 H 5600 V 0 Z"
         transform="translate(0,2.9052202e-5)"
         id="path27156" />
    </clipPath>
    <clipPath
       clipPathUnits="userSpaceOnUse"
       id="clipPath27157">
      <path
         d="M 0,0 V 592 H 5600 V 0 Z"
         transform="translate(0,2.9052202e-5)"
         id="path27157" />
    </clipPath>
    <clipPath
       clipPathUnits="userSpaceOnUse"
       id="clipPath27165">
      <path
         d="M 0,0 V 592 H 5600 V 0 Z"
         transform="translate(0,2.9052202e-5)"
         id="path27165" />
    </clipPath>
    <clipPath
       clipPathUnits="userSpaceOnUse"
       id="clipPath27166">
      <path
         d="M 0,0 V 592 H 5600 V 0 Z"
         transform="translate(0,2.9052202e-5)"
         id="path27166" />
    </clipPath>
    <clipPath
       clipPathUnits="userSpaceOnUse"
       id="clipPath27174">
      <path
         d="M 0,0 V 592 H 5600 V 0 Z"
         transform="translate(0,2.9052202e-5)"
         id="path27174" />
    </clipPath>
    <clipPath
       clipPathUnits="userSpaceOnUse"
       id="clipPath27175">
      <path
         d="M 0,0 V 592 H 5600 V 0 Z"
         transform="translate(0,2.9052202e-5)"
         id="path27175" />
    </clipPath>
    <clipPath
       clipPathUnits="userSpaceOnUse"
       id="clipPath27183">
      <path
         d="M 0,0 V 592 H 5600 V 0 Z"
         transform="translate(0,2.9052202e-5)"
         id="path27183" />
    </clipPath>
    <clipPath
       clipPathUnits="userSpaceOnUse"
       id="clipPath27184">
      <path
         d="M 0,0 V 592 H 5600 V 0 Z"
         transform="translate(0,2.9052202e-5)"
         id="path27184" />
    </clipPath>
    <clipPath
       clipPathUnits="userSpaceOnUse"
       id="clipPath27192">
      <path
         d="M 0,0 V 592 H 5600 V 0 Z"
         transform="translate(0,2.9052202e-5)"
         id="path27192" />
    </clipPath>
    <clipPath
       clipPathUnits="userSpaceOnUse"
       id="clipPath27193">
      <path
         d="M 0,0 V 592 H 5600 V 0 Z"
         transform="translate(0,2.9052202e-5)"
         id="path27193" />
    </clipPath>
    <clipPath
       clipPathUnits="userSpaceOnUse"
       id="clipPath27201">
      <path
         d="M 0,0 V 592 H 5600 V 0 Z"
         transform="translate(0,2.9052202e-5)"
         id="path27201" />
    </clipPath>
    <clipPath
       clipPathUnits="userSpaceOnUse"
       id="clipPath27202">
      <path
         d="M 0,0 V 592 H 5600 V 0 Z"
         transform="translate(0,2.9052202e-5)"
         id="path27202" />
    </clipPath>
    <clipPath
       clipPathUnits="userSpaceOnUse"
       id="clipPath27210">
      <path
         d="M 0,0 V 592 H 5600 V 0 Z"
         transform="translate(0,2.9052202e-5)"
         id="path27210" />
    </clipPath>
    <clipPath
       clipPathUnits="userSpaceOnUse"
       id="clipPath27211">
      <path
         d="M 0,0 V 592 H 5600 V 0 Z"
         transform="translate(0,2.9052202e-5)"
         id="path27211" />
    </clipPath>
    <clipPath
       clipPathUnits="userSpaceOnUse"
       id="clipPath27219">
      <path
         d="M 0,0 V 592 H 5600 V 0 Z"
         transform="translate(0,2.9052202e-5)"
         id="path27219" />
    </clipPath>
    <clipPath
       clipPathUnits="userSpaceOnUse"
       id="clipPath27220">
      <path
         d="M 0,0 V 592 H 5600 V 0 Z"
         transform="translate(0,2.9052202e-5)"
         id="path27220" />
    </clipPath>
    <clipPath
       clipPathUnits="userSpaceOnUse"
       id="clipPath27228">
      <path
         d="M 0,0 V 592 H 5600 V 0 Z"
         transform="translate(0,2.9052202e-5)"
         id="path27228" />
    </clipPath>
  </defs>
  <sodipodi:namedview
     id="namedview1"
     pagecolor="#ffffff"
     bordercolor="#666666"
     borderopacity="1.0"
     inkscape:showpageshadow="2"
     inkscape:pageopacity="0.0"
     inkscape:pagecheckerboard="0"
     inkscape:deskcolor="#d1d1d1"
     inkscape:zoom="3.530635"
     inkscape:cx="35.262779"
     inkscape:cy="42.910128"
     inkscape:window-width="1680"
     inkscape:window-height="1013"
     inkscape:window-x="1920"
     inkscape:window-y="0"
     inkscape:window-maximized="1"
     inkscape:current-layer="svg1">
    <inkscape:page
       x="0"
       y="0"
       width="678.69501"
       height="65.403946"
       id="page2"
       margin="0"
       bleed="0" />
  </sodipodi:namedview>
  <text
     xml:space="preserve"
     clip-path="none"
     id="text1"
     x="56.806736"
     y="36.654438"
     style="font-size:15.3418px;text-align:end;text-anchor:end;stroke-width:1.27848"><tspan
       style="font-variant:normal;font-weight:normal;font-size:11.5063px;font-family:Carlito;text-align:end;writing-mode:lr-tb;text-anchor:end;fill:#000000;fill-opacity:1;fill-rule:nonzero;stroke:none;stroke-width:1.27848"
       x="29.911886"
       y="36.654438"
       id="tspan1">muted</tspan></text>
  <g
     id="g28"
     transform="translate(38.609551,1.2928e-5)">
    <path
       d="M 553.762,408.32 394.75,567.328 H 169.871 L 10.8594,408.32 V 183.441 L 169.871,24.4297 H 394.75 L 553.762,183.441"
       style="fill:#332288;fill-opacity:1;fill-rule:nonzero;stroke:none"
       transform="matrix(0.114736,0,0,-0.114736,-1.1901,66.6499)"
       clip-path="none"
       id="path27236" />
    <text
       xml:space="preserve"
       transform="matrix(1.14736,0,0,1.14736,10.2974,24.47191)"
       clip-path="none"
       id="text27237"
       style="fill:#ffffff;fill-opacity:1"><tspan
         style="font-variant:normal;font-weight:normal;font-size:9px;font-family:Carlito;writing-mode:lr-tb;fill:#ffffff;fill-opacity:1;fill-rule:nonzero;stroke:none"
         x="0"
         y="0"
         id="tspan27237">51,34,136</tspan></text>
    <text
       xml:space="preserve"
       transform="matrix(1.14736,0,0,1.14736,15.496,35.71374)"
       clip-path="none"
       id="text27238"
       style="fill:#ffffff;fill-opacity:1"><tspan
         style="font-variant:normal;font-weight:normal;font-size:9px;font-family:Carlito;writing-mode:lr-tb;fill:#ffffff;fill-opacity:1;fill-rule:nonzero;stroke:none"
         x="0"
         y="0"
         id="tspan27238">332288</tspan></text>
    <text
       xml:space="preserve"
       transform="matrix(1.14736,0,0,1.14736,18.2487,46.47116)"
       clip-path="none"
       id="text27239"
       style="fill:#ffffff;fill-opacity:1"><tspan
         style="font-variant:normal;font-weight:normal;font-size:9px;font-family:Carlito;writing-mode:lr-tb;fill:#ffffff;fill-opacity:1;fill-rule:nonzero;stroke:none"
         x="0"
         dx="0 0 0.0066406201 0.0054687499"
         y="0"
         id="tspan27239">indigo</tspan></text>
  </g>
  <g
     id="g27"
     transform="translate(38.609551,1.2928e-5)">
    <path
       d="M 1096.66,408.32 937.641,567.328 H 712.77 L 553.762,408.32 V 183.441 L 712.77,24.4297 H 937.641 L 1096.66,183.441"
       style="fill:#88ccee;fill-opacity:1;fill-rule:nonzero;stroke:none"
       transform="matrix(0.114736,0,0,-0.114736,-1.1901,66.6499)"
       clip-path="none"
       id="path27240" />
    <text
       xml:space="preserve"
       transform="matrix(1.14736,0,0,1.14736,67.3522,24.47191)"
       clip-path="none"
       id="text27241"><tspan
         style="font-variant:normal;font-weight:normal;font-size:9px;font-family:Carlito;writing-mode:lr-tb;fill:#000000;fill-opacity:1;fill-rule:nonzero;stroke:none"
         x="0"
         y="0"
         id="tspan27241">136,204,238</tspan></text>
    <text
       xml:space="preserve"
       transform="matrix(1.14736,0,0,1.14736,77.7151,35.71374)"
       clip-path="none"
       id="text27242"><tspan
         style="font-variant:normal;font-weight:normal;font-size:9px;font-family:Carlito;writing-mode:lr-tb;fill:#000000;fill-opacity:1;fill-rule:nonzero;stroke:none"
         x="0"
         y="0"
         id="tspan27242">88CCEE</tspan></text>
    <text
       xml:space="preserve"
       transform="matrix(1.14736,0,0,1.14736,83.7742,45.75406)"
       clip-path="none"
       id="text27243"><tspan
         style="font-variant:normal;font-weight:normal;font-size:9px;font-family:Carlito;writing-mode:lr-tb;fill:#000000;fill-opacity:1;fill-rule:nonzero;stroke:none"
         x="0"
         dx="0 0.0064453101 0.00517578"
         y="0"
         id="tspan27243">cyan</tspan></text>
  </g>
  <g
     id="g26"
     transform="translate(38.609551,1.2928e-5)">
    <path
       d="M 1639.55,408.32 1480.54,567.328 H 1255.67 L 1096.66,408.32 V 183.441 L 1255.67,24.4297 h 224.87 l 159.01,159.0113"
       style="fill:#44aa99;fill-opacity:1;fill-rule:nonzero;stroke:none"
       transform="matrix(0.114736,0,0,-0.114736,-1.1901,66.6499)"
       clip-path="none"
       id="path27244" />
    <text
       xml:space="preserve"
       transform="matrix(1.14736,0,0,1.14736,132.2593,24.47191)"
       clip-path="none"
       id="text27245"><tspan
         style="font-variant:normal;font-weight:normal;font-size:9px;font-family:Carlito;writing-mode:lr-tb;fill:#000000;fill-opacity:1;fill-rule:nonzero;stroke:none"
         x="0"
         y="0"
         id="tspan27245">68,170,153</tspan></text>
    <text
       xml:space="preserve"
       transform="matrix(1.14736,0,0,1.14736,139.3408,35.71374)"
       clip-path="none"
       id="text27246"><tspan
         style="font-variant:normal;font-weight:normal;font-size:9px;font-family:Carlito;writing-mode:lr-tb;fill:#000000;fill-opacity:1;fill-rule:nonzero;stroke:none"
         x="0"
         y="0"
         id="tspan27246">44AA99</tspan></text>
    <text
       xml:space="preserve"
       transform="matrix(1.14736,0,0,1.14736,147.821,47.33168)"
       clip-path="none"
       id="text27247"><tspan
         style="font-variant:normal;font-weight:normal;font-size:9px;font-family:Carlito;writing-mode:lr-tb;fill:#000000;fill-opacity:1;fill-rule:nonzero;stroke:none"
         x="0"
         dx="0 0 0.0059570302"
         y="0"
         id="tspan27247">teal</tspan></text>
  </g>
  <g
     id="g25"
     transform="translate(38.609551,1.2928e-5)">
    <path
       d="M 2182.45,408.32 2023.44,567.328 H 1798.57 L 1639.55,408.32 V 183.441 L 1798.57,24.4297 h 224.87 l 159.01,159.0113"
       style="fill:#117733;fill-opacity:1;fill-rule:nonzero;stroke:none"
       transform="matrix(0.114736,0,0,-0.114736,-1.1901,66.6499)"
       clip-path="none"
       id="path27248" />
    <text
       xml:space="preserve"
       transform="matrix(1.14736,0,0,1.14736,197.1678,24.47191)"
       clip-path="none"
       id="text27249"><tspan
         style="font-variant:normal;font-weight:normal;font-size:9px;font-family:Carlito;writing-mode:lr-tb;fill:#000000;fill-opacity:1;fill-rule:nonzero;stroke:none"
         x="0"
         y="0"
         id="tspan27249">17,119,51</tspan></text>
    <text
       xml:space="preserve"
       transform="matrix(1.14736,0,0,1.14736,202.3665,35.71374)"
       clip-path="none"
       id="text27250"><tspan
         style="font-variant:normal;font-weight:normal;font-size:9px;font-family:Carlito;writing-mode:lr-tb;fill:#000000;fill-opacity:1;fill-rule:nonzero;stroke:none"
         x="0"
         y="0"
         id="tspan27250">117733</tspan></text>
    <text
       xml:space="preserve"
       transform="matrix(1.14736,0,0,1.14736,205.9784,45.75406)"
       clip-path="none"
       id="text27251"><tspan
         style="font-variant:normal;font-weight:normal;font-size:9px;font-family:Carlito;writing-mode:lr-tb;fill:#000000;fill-opacity:1;fill-rule:nonzero;stroke:none"
         x="0"
         dx="0 0 0 0.0059570302 0.0071289102"
         y="0"
         id="tspan27251">green</tspan></text>
  </g>
  <g
     id="g24"
     transform="translate(38.609551,1.2928e-5)">
    <path
       d="M 2725.35,408.32 2566.34,567.328 H 2341.46 L 2182.45,408.32 V 183.441 L 2341.46,24.4297 h 224.88 l 159.01,159.0113"
       style="fill:#999933;fill-opacity:1;fill-rule:nonzero;stroke:none"
       transform="matrix(0.114736,0,0,-0.114736,-1.1901,66.6499)"
       clip-path="none"
       id="path27252" />
    <text
       xml:space="preserve"
       transform="matrix(1.14736,0,0,1.14736,256.8397,24.47191)"
       clip-path="none"
       id="text27253"><tspan
         style="font-variant:normal;font-weight:normal;font-size:9px;font-family:Carlito;writing-mode:lr-tb;fill:#000000;fill-opacity:1;fill-rule:nonzero;stroke:none"
         x="0"
         y="0"
         id="tspan27253">153,153,51</tspan></text>
    <text
       xml:space="preserve"
       transform="matrix(1.14736,0,0,1.14736,264.6567,35.71374)"
       clip-path="none"
       id="text27254"><tspan
         style="font-variant:normal;font-weight:normal;font-size:9px;font-family:Carlito;writing-mode:lr-tb;fill:#000000;fill-opacity:1;fill-rule:nonzero;stroke:none"
         x="0"
         y="0"
         id="tspan27254">999933</tspan></text>
    <text
       xml:space="preserve"
       transform="matrix(1.14736,0,0,1.14736,270.3659,47.33168)"
       clip-path="none"
       id="text27255"><tspan
         style="font-variant:normal;font-weight:normal;font-size:9px;font-family:Carlito;writing-mode:lr-tb;fill:#000000;fill-opacity:1;fill-rule:nonzero;stroke:none"
         x="0"
         y="0"
         id="tspan27255">olive</tspan></text>
  </g>
  <g
     id="g23"
     transform="translate(38.609551,1.2928e-5)">
    <path
       d="M 3268.25,408.32 3109.24,567.328 H 2884.36 L 2725.35,408.32 V 183.441 L 2884.36,24.4297 h 224.88 l 159.01,159.0113"
       style="fill:#ddcc77;fill-opacity:1;fill-rule:nonzero;stroke:none"
       transform="matrix(0.114736,0,0,-0.114736,-1.1901,66.6499)"
       clip-path="none"
       id="path27256" />
    <text
       xml:space="preserve"
       transform="matrix(1.14736,0,0,1.14736,316.5127,24.47191)"
       clip-path="none"
       id="text27257"><tspan
         style="font-variant:normal;font-weight:normal;font-size:9px;font-family:Carlito;writing-mode:lr-tb;fill:#000000;fill-opacity:1;fill-rule:nonzero;stroke:none"
         x="0"
         y="0"
         id="tspan27257">221,204,119</tspan></text>
    <text
       xml:space="preserve"
       transform="matrix(1.14736,0,0,1.14736,325.5654,35.71374)"
       clip-path="none"
       id="text27258"><tspan
         style="font-variant:normal;font-weight:normal;font-size:9px;font-family:Carlito;writing-mode:lr-tb;fill:#000000;fill-opacity:1;fill-rule:nonzero;stroke:none"
         x="0"
         dx="0 -0.0062500001 -0.0058593801"
         y="0"
         id="tspan27258">DDCC77</tspan></text>
    <text
       xml:space="preserve"
       transform="matrix(1.14736,0,0,1.14736,332.7284,47.33168)"
       clip-path="none"
       id="text27259"><tspan
         style="font-variant:normal;font-weight:normal;font-size:9px;font-family:Carlito;writing-mode:lr-tb;fill:#000000;fill-opacity:1;fill-rule:nonzero;stroke:none"
         x="0"
         dx="0 0 0 0.0054687499"
         y="0"
         id="tspan27259">sand</tspan></text>
  </g>
  <g
     id="g22"
     transform="translate(38.609551,1.2928e-5)">
    <path
       d="M 3811.15,408.32 3652.14,567.328 H 3427.26 L 3268.25,408.32 V 183.441 L 3427.26,24.4297 h 224.88 l 159.01,159.0113"
       style="fill:#cc6677;fill-opacity:1;fill-rule:nonzero;stroke:none"
       transform="matrix(0.114736,0,0,-0.114736,-1.1901,66.6499)"
       clip-path="none"
       id="path27260" />
    <text
       xml:space="preserve"
       transform="matrix(1.14736,0,0,1.14736,378.8029,24.47191)"
       clip-path="none"
       id="text27261"><tspan
         style="font-variant:normal;font-weight:normal;font-size:9px;font-family:Carlito;writing-mode:lr-tb;fill:#000000;fill-opacity:1;fill-rule:nonzero;stroke:none"
         x="0"
         y="0"
         id="tspan27261">204,102,119</tspan></text>
    <text
       xml:space="preserve"
       transform="matrix(1.14736,0,0,1.14736,388.9674,35.71374)"
       clip-path="none"
       id="text27262"><tspan
         style="font-variant:normal;font-weight:normal;font-size:9px;font-family:Carlito;writing-mode:lr-tb;fill:#000000;fill-opacity:1;fill-rule:nonzero;stroke:none"
         x="0"
         y="0"
         id="tspan27262">CC6677</tspan></text>
    <text
       xml:space="preserve"
       transform="matrix(1.14736,0,0,1.14736,395.8251,46.61458)"
       clip-path="none"
       id="text27263"><tspan
         style="font-variant:normal;font-weight:normal;font-size:9px;font-family:Carlito;writing-mode:lr-tb;fill:#000000;fill-opacity:1;fill-rule:nonzero;stroke:none"
         x="0"
         dx="0 0 0 -0.00517578"
         y="0"
         id="tspan27263">rose</tspan></text>
  </g>
  <g
     id="g21"
     transform="translate(38.609551,1.2928e-5)">
    <path
       d="M 4354.05,408.32 4195.04,567.328 H 3970.16 L 3811.15,408.32 V 183.441 L 3970.16,24.4297 h 224.88 l 159.01,159.0113"
       style="fill:#882255;fill-opacity:1;fill-rule:nonzero;stroke:none"
       transform="matrix(0.114736,0,0,-0.114736,-1.1901,66.6499)"
       clip-path="none"
       id="path27264" />
    <text
       xml:space="preserve"
       transform="matrix(1.14736,0,0,1.14736,446.3273,24.47191)"
       clip-path="none"
       id="text27265"><tspan
         style="font-variant:normal;font-weight:normal;font-size:9px;font-family:Carlito;writing-mode:lr-tb;fill:#000000;fill-opacity:1;fill-rule:nonzero;stroke:none"
         x="0"
         y="0"
         id="tspan27265">136,34,85</tspan></text>
    <text
       xml:space="preserve"
       transform="matrix(1.14736,0,0,1.14736,451.526,35.71374)"
       clip-path="none"
       id="text27266"><tspan
         style="font-variant:normal;font-weight:normal;font-size:9px;font-family:Carlito;writing-mode:lr-tb;fill:#000000;fill-opacity:1;fill-rule:nonzero;stroke:none"
         x="0"
         y="0"
         id="tspan27266">882255</tspan></text>
    <text
       xml:space="preserve"
       transform="matrix(1.14736,0,0,1.14736,457.0655,47.33168)"
       clip-path="none"
       id="text27267"><tspan
         style="font-variant:normal;font-weight:normal;font-size:9px;font-family:Carlito;writing-mode:lr-tb;fill:#000000;fill-opacity:1;fill-rule:nonzero;stroke:none"
         x="0"
         dx="0 0 0 0.0054687499"
         y="0"
         id="tspan27267">wine</tspan></text>
  </g>
  <g
     id="g20"
     transform="translate(38.609551,1.2928e-5)">
    <path
       d="M 4896.95,408.32 4737.93,567.328 H 4513.06 L 4354.05,408.32 V 183.441 L 4513.06,24.4297 h 224.87 l 159.02,159.0113"
       style="fill:#aa4499;fill-opacity:1;fill-rule:nonzero;stroke:none"
       transform="matrix(0.114736,0,0,-0.114736,-1.1901,66.6499)"
       clip-path="none"
       id="path27268" />
    <text
       xml:space="preserve"
       transform="matrix(1.14736,0,0,1.14736,506.0004,24.47191)"
       clip-path="none"
       id="text27269"><tspan
         style="font-variant:normal;font-weight:normal;font-size:9px;font-family:Carlito;writing-mode:lr-tb;fill:#000000;fill-opacity:1;fill-rule:nonzero;stroke:none"
         x="0"
         y="0"
         id="tspan27269">170,68,153</tspan></text>
    <text
       xml:space="preserve"
       transform="matrix(1.14736,0,0,1.14736,513.0819,35.71374)"
       clip-path="none"
       id="text27270"><tspan
         style="font-variant:normal;font-weight:normal;font-size:9px;font-family:Carlito;writing-mode:lr-tb;fill:#000000;fill-opacity:1;fill-rule:nonzero;stroke:none"
         x="0"
         y="0"
         id="tspan27270">AA4499</tspan></text>
    <text
       xml:space="preserve"
       transform="matrix(1.14736,0,0,1.14736,515.8149,46.47116)"
       clip-path="none"
       id="text27271"><tspan
         style="font-variant:normal;font-weight:normal;font-size:9px;font-family:Carlito;writing-mode:lr-tb;fill:#000000;fill-opacity:1;fill-rule:nonzero;stroke:none"
         x="0"
         dx="0 0.0054687499 0.0066406201 0 0.0066406201"
         y="0"
         id="tspan27271">purple</tspan></text>
  </g>
  <g
     id="g19"
     transform="translate(38.609551,1.2928e-5)">
    <path
       d="m 5589.14,295.879 c 0,75.59 -30.03,148.09 -83.48,201.543 -53.45,53.449 -125.95,83.476 -201.54,83.476 -75.59,0 -148.09,-30.027 -201.54,-83.476 -53.45,-53.453 -83.48,-125.953 -83.48,-201.543 0,-75.59 30.03,-148.09 83.48,-201.5392 53.45,-53.4492 125.95,-83.4804 201.54,-83.4804 75.59,0 148.09,30.0312 201.54,83.4804 53.45,53.4492 83.48,125.9492 83.48,201.5392"
       style="fill:#dddddd;fill-opacity:1;fill-rule:evenodd;stroke:none"
       transform="matrix(0.114736,0,0,-0.114736,-1.1901,66.6499)"
       clip-path="none"
       id="path27272" />
    <text
       xml:space="preserve"
       transform="matrix(1.14736,0,0,1.14736,581.2454,24.47191)"
       clip-path="none"
       id="text27273"><tspan
         style="font-variant:normal;font-weight:normal;font-size:9px;font-family:Carlito;writing-mode:lr-tb;fill:#000000;fill-opacity:1;fill-rule:nonzero;stroke:none"
         x="0"
         y="0"
         id="tspan27273">221,221,221</tspan></text>
    <text
       xml:space="preserve"
       transform="matrix(1.14736,0,0,1.14736,588.3441,35.71374)"
       clip-path="none"
       id="text27274"><tspan
         style="font-variant:normal;font-weight:normal;font-size:9px;font-family:Carlito;writing-mode:lr-tb;fill:#000000;fill-opacity:1;fill-rule:nonzero;stroke:none"
         x="0"
         dx="0 -0.0062500001 -0.0058593801 -0.0050781202 -0.0062500001 -0.0062500001"
         y="0"
         id="tspan27274">DDDDDD</tspan></text>
    <text
       xml:space="preserve"
       transform="matrix(1.14736,0,0,1.14736,588.1296,46.47116)"
       clip-path="none"
       id="text27275"><tspan
         style="font-variant:normal;font-weight:normal;font-size:9px;font-family:Carlito;writing-mode:lr-tb;fill:#000000;fill-opacity:1;fill-rule:nonzero;stroke:none"
         x="0"
         dx="0 0.0054687499 0 0 2.037987 0 0 0.0059570302"
         y="0"
         id="tspan27275">palegrey</tspan></text>
  </g>
</svg>
