<?xml version="1.0" encoding="UTF-8" standalone="no"?>
<!-- Created with Inkscape (http://www.inkscape.org/) -->

<svg
   version="1.1"
   id="svg1"
   width="427.76855"
   height="147.04135"
   viewBox="0 0 427.76855 147.04135"
   sodipodi:docname="pale-dark.svg"
   inkscape:version="1.4.1 (1:1.4.1+202503302257+93de688d07)"
   xmlns:inkscape="http://www.inkscape.org/namespaces/inkscape"
   xmlns:sodipodi="http://sodipodi.sourceforge.net/DTD/sodipodi-0.dtd"
   xmlns="http://www.w3.org/2000/svg"
   xmlns:svg="http://www.w3.org/2000/svg">
  <defs
     id="defs1">
    <clipPath
       clipPathUnits="userSpaceOnUse"
       id="clipPath27450">
      <path
         d="M 0,0 H 3360 V 578.539 H 0 Z"
         transform="translate(2.6016733e-4,2.6016732e-5)"
         id="path27450" />
    </clipPath>
    <clipPath
       clipPathUnits="userSpaceOnUse"
       id="clipPath27451">
      <path
         d="M 0,0 H 3360 V 578.539 H 0 Z"
         transform="translate(2.6016733e-4,2.6016732e-5)"
         id="path27451" />
    </clipPath>
    <clipPath
       clipPathUnits="userSpaceOnUse"
       id="clipPath27459">
      <path
         d="M 0,0 H 3360 V 578.539 H 0 Z"
         transform="translate(2.6016733e-4,2.6016732e-5)"
         id="path27459" />
    </clipPath>
    <clipPath
       clipPathUnits="userSpaceOnUse"
       id="clipPath27460">
      <path
         d="M 0,0 H 3360 V 578.539 H 0 Z"
         transform="translate(2.6016733e-4,2.6016732e-5)"
         id="path27460" />
    </clipPath>
    <clipPath
       clipPathUnits="userSpaceOnUse"
       id="clipPath27468">
      <path
         d="M 0,0 H 3360 V 578.539 H 0 Z"
         transform="translate(2.6016733e-4,2.6016732e-5)"
         id="path27468" />
    </clipPath>
    <clipPath
       clipPathUnits="userSpaceOnUse"
       id="clipPath27469">
      <path
         d="M 0,0 H 3360 V 578.539 H 0 Z"
         transform="translate(2.6016733e-4,2.6016732e-5)"
         id="path27469" />
    </clipPath>
    <clipPath
       clipPathUnits="userSpaceOnUse"
       id="clipPath27477">
      <path
         d="M 0,0 H 3360 V 578.539 H 0 Z"
         transform="translate(2.6016733e-4,2.6016732e-5)"
         id="path27477" />
    </clipPath>
    <clipPath
       clipPathUnits="userSpaceOnUse"
       id="clipPath27478">
      <path
         d="M 0,0 H 3360 V 578.539 H 0 Z"
         transform="translate(2.6016733e-4,2.6016732e-5)"
         id="path27478" />
    </clipPath>
    <clipPath
       clipPathUnits="userSpaceOnUse"
       id="clipPath27486">
      <path
         d="M 0,0 H 3360 V 578.539 H 0 Z"
         transform="translate(2.6016733e-4,2.6016732e-5)"
         id="path27486" />
    </clipPath>
    <clipPath
       clipPathUnits="userSpaceOnUse"
       id="clipPath27487">
      <path
         d="M 0,0 H 3360 V 578.539 H 0 Z"
         transform="translate(2.6016733e-4,2.6016732e-5)"
         id="path27487" />
    </clipPath>
    <clipPath
       clipPathUnits="userSpaceOnUse"
       id="clipPath27495">
      <path
         d="M 0,0 H 3360 V 578.539 H 0 Z"
         transform="translate(2.6016733e-4,2.6016732e-5)"
         id="path27495" />
    </clipPath>
    <clipPath
       clipPathUnits="userSpaceOnUse"
       id="clipPath27496">
      <path
         d="M 0,0 H 3360 V 578.539 H 0 Z"
         transform="translate(2.6016733e-4,2.6016732e-5)"
         id="path27496" />
    </clipPath>
    <clipPath
       clipPathUnits="userSpaceOnUse"
       id="clipPath27529">
      <path
         d="M 0,0 H 3360 V 578.539 H 0 Z"
         transform="translate(2.6016733e-4,2.6016733e-5)"
         id="path27529" />
    </clipPath>
    <clipPath
       clipPathUnits="userSpaceOnUse"
       id="clipPath27530">
      <path
         d="M 0,0 H 3360 V 578.539 H 0 Z"
         transform="translate(2.6016733e-4,2.6016733e-5)"
         id="path27530" />
    </clipPath>
    <clipPath
       clipPathUnits="userSpaceOnUse"
       id="clipPath27538">
      <path
         d="M 0,0 H 3360 V 578.539 H 0 Z"
         transform="translate(2.6016733e-4,2.6016733e-5)"
         id="path27538" />
    </clipPath>
    <clipPath
       clipPathUnits="userSpaceOnUse"
       id="clipPath27539">
      <path
         d="M 0,0 H 3360 V 578.539 H 0 Z"
         transform="translate(2.6016733e-4,2.6016733e-5)"
         id="path27539" />
    </clipPath>
    <clipPath
       clipPathUnits="userSpaceOnUse"
       id="clipPath27547">
      <path
         d="M 0,0 H 3360 V 578.539 H 0 Z"
         transform="translate(2.6016733e-4,2.6016733e-5)"
         id="path27547" />
    </clipPath>
    <clipPath
       clipPathUnits="userSpaceOnUse"
       id="clipPath27548">
      <path
         d="M 0,0 H 3360 V 578.539 H 0 Z"
         transform="translate(2.6016733e-4,2.6016733e-5)"
         id="path27548" />
    </clipPath>
    <clipPath
       clipPathUnits="userSpaceOnUse"
       id="clipPath27556">
      <path
         d="M 0,0 H 3360 V 578.539 H 0 Z"
         transform="translate(2.6016733e-4,2.6016733e-5)"
         id="path27556" />
    </clipPath>
    <clipPath
       clipPathUnits="userSpaceOnUse"
       id="clipPath27557">
      <path
         d="M 0,0 H 3360 V 578.539 H 0 Z"
         transform="translate(2.6016733e-4,2.6016733e-5)"
         id="path27557" />
    </clipPath>
    <clipPath
       clipPathUnits="userSpaceOnUse"
       id="clipPath27565">
      <path
         d="M 0,0 H 3360 V 578.539 H 0 Z"
         transform="translate(2.6016733e-4,2.6016733e-5)"
         id="path27565" />
    </clipPath>
    <clipPath
       clipPathUnits="userSpaceOnUse"
       id="clipPath27566">
      <path
         d="M 0,0 H 3360 V 578.539 H 0 Z"
         transform="translate(2.6016733e-4,2.6016733e-5)"
         id="path27566" />
    </clipPath>
    <clipPath
       clipPathUnits="userSpaceOnUse"
       id="clipPath27574">
      <path
         d="M 0,0 H 3360 V 578.539 H 0 Z"
         transform="translate(2.6016733e-4,2.6016733e-5)"
         id="path27574" />
    </clipPath>
    <clipPath
       clipPathUnits="userSpaceOnUse"
       id="clipPath27575">
      <path
         d="M 0,0 H 3360 V 578.539 H 0 Z"
         transform="translate(2.6016733e-4,2.6016733e-5)"
         id="path27575" />
    </clipPath>
  </defs>
  <sodipodi:namedview
     id="namedview1"
     pagecolor="#ffffff"
     bordercolor="#666666"
     borderopacity="1.0"
     inkscape:showpageshadow="2"
     inkscape:pageopacity="0.0"
     inkscape:pagecheckerboard="0"
     inkscape:deskcolor="#d1d1d1"
     inkscape:zoom="1.320757"
     inkscape:cx="196.47823"
     inkscape:cy="28.392808"
     inkscape:window-width="1680"
     inkscape:window-height="1013"
     inkscape:window-x="1920"
     inkscape:window-y="0"
     inkscape:window-maximized="1"
     inkscape:current-layer="svg1">
    <inkscape:page
       x="0"
       y="0"
       width="427.76855"
       height="147.04135"
       id="page2"
       margin="0"
       bleed="0" />
  </sodipodi:namedview>
  <g
     id="g27529"
     transform="translate(-4251.4757,-77.716523)">
    <g
       id="g34">
      <path
         d="M 567.422,404.48 404.48,567.41 H 174.059 L 11.1289,404.48 V 174.059 L 174.059,11.1211 H 404.48 L 567.422,174.059"
         style="fill:#bbccee;fill-opacity:1;fill-rule:nonzero;stroke:none"
         transform="matrix(0.12812267,0,0,-0.12812267,4250.1133,150.47867)"
         clip-path="none"
         id="path27504" />
      <text
         xml:space="preserve"
         transform="matrix(1.2812267,0,0,1.2812267,4257.9879,104.22895)"
         clip-path="none"
         id="text27505"><tspan
           style="font-variant:normal;font-weight:normal;font-size:9px;font-family:Carlito;writing-mode:lr-tb;fill:#000000;fill-opacity:1;fill-rule:nonzero;stroke:none"
           x="0"
           y="0"
           id="tspan27505">187,204,238</tspan></text>
      <text
         xml:space="preserve"
         transform="matrix(1.2812267,0,0,1.2812267,4269.138,117.10668)"
         clip-path="none"
         id="text27506"><tspan
           style="font-variant:normal;font-weight:normal;font-size:9px;font-family:Carlito;writing-mode:lr-tb;fill:#000000;fill-opacity:1;fill-rule:nonzero;stroke:none"
           x="0"
           dx="0 0 -0.0052734399"
           y="0"
           id="tspan27506">BBCCEE</tspan></text>
      <text
         xml:space="preserve"
         transform="matrix(1.2812267,0,0,1.2812267,4265.6251,128.57968)"
         clip-path="none"
         id="text27507"><tspan
           style="font-variant:normal;font-weight:normal;font-size:9px;font-family:Carlito;writing-mode:lr-tb;fill:#000000;fill-opacity:1;fill-rule:nonzero;stroke:none"
           x="0"
           dx="0 0.0054687499 0 0 2.037987 0.0054687499 0 0.0054687499"
           y="0"
           id="tspan27507">paleblue</tspan></text>
    </g>
    <g
       id="g33">
      <path
         d="M 1123.71,404.48 960.77,567.41 H 730.352 L 567.422,404.48 V 174.059 L 730.352,11.1211 H 960.77 l 162.94,162.9379"
         style="fill:#cceeff;fill-opacity:1;fill-rule:nonzero;stroke:none"
         transform="matrix(0.12812267,0,0,-0.12812267,4250.1133,150.47867)"
         clip-path="none"
         id="path27508" />
      <text
         xml:space="preserve"
         transform="matrix(1.2812267,0,0,1.2812267,4329.2611,104.22895)"
         clip-path="none"
         id="text27509"><tspan
           style="font-variant:normal;font-weight:normal;font-size:9px;font-family:Carlito;writing-mode:lr-tb;fill:#000000;fill-opacity:1;fill-rule:nonzero;stroke:none"
           x="0"
           y="0"
           id="tspan27509">204,238,255</tspan></text>
      <text
         xml:space="preserve"
         transform="matrix(1.2812267,0,0,1.2812267,4341.3727,117.10668)"
         clip-path="none"
         id="text27510"><tspan
           style="font-variant:normal;font-weight:normal;font-size:9px;font-family:Carlito;writing-mode:lr-tb;fill:#000000;fill-opacity:1;fill-rule:nonzero;stroke:none"
           x="0"
           dx="0 0 0 0 0 0.0057617198"
           y="0"
           id="tspan27510">CCEEFF</tspan></text>
      <text
         xml:space="preserve"
         transform="matrix(1.2812267,0,0,1.2812267,4336.3079,128.57968)"
         clip-path="none"
         id="text27511"><tspan
           style="font-variant:normal;font-weight:normal;font-size:9px;font-family:Carlito;writing-mode:lr-tb;fill:#000000;fill-opacity:1;fill-rule:nonzero;stroke:none"
           x="0"
           dx="0 0.0054687499 0 0 2.037987 0.0072265598"
           y="0"
           id="tspan27511">palecyan</tspan></text>
    </g>
    <g
       id="g32">
      <path
         d="M 1680,404.48 1517.07,567.41 H 1286.64 L 1123.71,404.48 V 174.059 L 1286.64,11.1211 h 230.43 L 1680,174.059"
         style="fill:#ccddaa;fill-opacity:1;fill-rule:nonzero;stroke:none"
         transform="matrix(0.12812267,0,0,-0.12812267,4250.1133,150.47867)"
         clip-path="none"
         id="path27512" />
      <text
         xml:space="preserve"
         transform="matrix(1.2812267,0,0,1.2812267,4400.5345,104.22895)"
         clip-path="none"
         id="text27513"><tspan
           style="font-variant:normal;font-weight:normal;font-size:9px;font-family:Carlito;writing-mode:lr-tb;fill:#000000;fill-opacity:1;fill-rule:nonzero;stroke:none"
           x="0"
           y="0"
           id="tspan27513">204,221,170</tspan></text>
      <text
         xml:space="preserve"
         transform="matrix(1.2812267,0,0,1.2812267,4409.8234,117.10668)"
         clip-path="none"
         id="text27514"><tspan
           style="font-variant:normal;font-weight:normal;font-size:9px;font-family:Carlito;writing-mode:lr-tb;fill:#000000;fill-opacity:1;fill-rule:nonzero;stroke:none"
           x="0"
           dx="0 0 0 -0.0062500001 -0.0058593801"
           y="0"
           id="tspan27514">CCDDAA</tspan></text>
      <text
         xml:space="preserve"
         transform="matrix(1.2812267,0,0,1.2812267,4404.9291,128.57968)"
         clip-path="none"
         id="text27515"><tspan
           style="font-variant:normal;font-weight:normal;font-size:9px;font-family:Carlito;writing-mode:lr-tb;fill:#000000;fill-opacity:1;fill-rule:nonzero;stroke:none"
           x="0"
           dx="0 0.0054687499 0 0 2.037987 0 0 0.0059570302 0.0071289102"
           y="0"
           id="tspan27515">palegreen</tspan></text>
    </g>
    <g
       id="g31">
      <path
         d="M 2236.29,404.48 2073.36,567.41 H 1842.93 L 1680,404.48 V 174.059 L 1842.93,11.1211 h 230.43 l 162.93,162.9379"
         style="fill:#eeeebb;fill-opacity:1;fill-rule:nonzero;stroke:none"
         transform="matrix(0.12812267,0,0,-0.12812267,4250.1133,150.47867)"
         clip-path="none"
         id="path27516" />
      <text
         xml:space="preserve"
         transform="matrix(1.2812267,0,0,1.2812267,4471.8078,104.22895)"
         clip-path="none"
         id="text27517"><tspan
           style="font-variant:normal;font-weight:normal;font-size:9px;font-family:Carlito;writing-mode:lr-tb;fill:#000000;fill-opacity:1;fill-rule:nonzero;stroke:none"
           x="0"
           y="0"
           id="tspan27517">238,238,187</tspan></text>
      <text
         xml:space="preserve"
         transform="matrix(1.2812267,0,0,1.2812267,4483.4798,117.10668)"
         clip-path="none"
         id="text27518"><tspan
           style="font-variant:normal;font-weight:normal;font-size:9px;font-family:Carlito;writing-mode:lr-tb;fill:#000000;fill-opacity:1;fill-rule:nonzero;stroke:none"
           x="0"
           y="0"
           id="tspan27518">EEEEBB</tspan></text>
      <text
         xml:space="preserve"
         transform="matrix(1.2812267,0,0,1.2812267,4474.4113,128.57968)"
         clip-path="none"
         id="text27519"><tspan
           style="font-variant:normal;font-weight:normal;font-size:9px;font-family:Carlito;writing-mode:lr-tb;fill:#000000;fill-opacity:1;fill-rule:nonzero;stroke:none"
           x="0"
           dx="0 0.0054687499 0 0 2.037987 0 0.0071289102"
           y="0"
           id="tspan27519">paleyellow</tspan></text>
    </g>
    <g
       id="g30">
      <path
         d="M 2792.58,404.48 2629.65,567.41 H 2399.23 L 2236.29,404.48 V 174.059 L 2399.23,11.1211 h 230.42 l 162.93,162.9379"
         style="fill:#ffcccc;fill-opacity:1;fill-rule:nonzero;stroke:none"
         transform="matrix(0.12812267,0,0,-0.12812267,4250.1133,150.47867)"
         clip-path="none"
         id="path27520" />
      <text
         xml:space="preserve"
         transform="matrix(1.2812267,0,0,1.2812267,4543.0812,104.22895)"
         clip-path="none"
         id="text27521"><tspan
           style="font-variant:normal;font-weight:normal;font-size:9px;font-family:Carlito;writing-mode:lr-tb;fill:#000000;fill-opacity:1;fill-rule:nonzero;stroke:none"
           x="0"
           y="0"
           id="tspan27521">255,204,204</tspan></text>
      <text
         xml:space="preserve"
         transform="matrix(1.2812267,0,0,1.2812267,4554.6724,117.10668)"
         clip-path="none"
         id="text27522"><tspan
           style="font-variant:normal;font-weight:normal;font-size:9px;font-family:Carlito;writing-mode:lr-tb;fill:#000000;fill-opacity:1;fill-rule:nonzero;stroke:none"
           x="0"
           dx="0 0.0057617198"
           y="0"
           id="tspan27522">FFCCCC</tspan></text>
      <text
         xml:space="preserve"
         transform="matrix(1.2812267,0,0,1.2812267,4553.0619,128.57968)"
         clip-path="none"
         id="text27523"><tspan
           style="font-variant:normal;font-weight:normal;font-size:9px;font-family:Carlito;writing-mode:lr-tb;fill:#000000;fill-opacity:1;fill-rule:nonzero;stroke:none"
           x="0"
           dx="0 0.0054687499 0 0 2.037987 0 0.0059570302"
           y="0"
           id="tspan27523">palered</tspan></text>
    </g>
    <g
       id="g29">
      <path
         d="M 3348.87,404.48 3185.94,567.41 H 2955.52 L 2792.58,404.48 V 174.059 L 2955.52,11.1211 h 230.42 l 162.93,162.9379"
         style="fill:#dddddd;fill-opacity:1;fill-rule:nonzero;stroke:none"
         transform="matrix(0.12812267,0,0,-0.12812267,4250.1133,150.47867)"
         clip-path="none"
         id="path27524" />
      <text
         xml:space="preserve"
         transform="matrix(1.2812267,0,0,1.2812267,4614.3558,104.22895)"
         clip-path="none"
         id="text27525"><tspan
           style="font-variant:normal;font-weight:normal;font-size:9px;font-family:Carlito;writing-mode:lr-tb;fill:#000000;fill-opacity:1;fill-rule:nonzero;stroke:none"
           x="0"
           y="0"
           id="tspan27525">221,221,221</tspan></text>
      <text
         xml:space="preserve"
         transform="matrix(1.2812267,0,0,1.2812267,4622.2828,117.10668)"
         clip-path="none"
         id="text27526"><tspan
           style="font-variant:normal;font-weight:normal;font-size:9px;font-family:Carlito;writing-mode:lr-tb;fill:#000000;fill-opacity:1;fill-rule:nonzero;stroke:none"
           x="0"
           dx="0 -0.0058593801 -0.0062500001 -0.0050781202 -0.0062500001 -0.0058593801"
           y="0"
           id="tspan27526">DDDDDD</tspan></text>
      <text
         xml:space="preserve"
         transform="matrix(1.2812267,0,0,1.2812267,4622.0432,128.57968)"
         clip-path="none"
         id="text27527"><tspan
           style="font-variant:normal;font-weight:normal;font-size:9px;font-family:Carlito;writing-mode:lr-tb;fill:#000000;fill-opacity:1;fill-rule:nonzero;stroke:none"
           x="0"
           dx="0 0.0054687499 0 0 2.037987 0 0 0.0059570302"
           y="0"
           id="tspan27527">palegrey</tspan></text>
    </g>
  </g>
  <g
     id="g27608"
     transform="translate(-4251.4757,-77.716523)">
    <g
       id="g28">
      <path
         d="M 567.422,404.48 404.48,567.41 H 174.059 L 11.1289,404.48 V 174.059 L 174.059,11.1211 H 404.48 L 567.422,174.059"
         style="fill:#222255;fill-opacity:1;fill-rule:nonzero;stroke:none"
         transform="matrix(0.12812267,0,0,-0.12812267,4250.1133,226.11867)"
         clip-path="none"
         id="path27583" />
      <text
         xml:space="preserve"
         transform="matrix(1.2812267,0,0,1.2812267,4266.7562,179.86895)"
         clip-path="none"
         id="text27584"><tspan
           style="font-variant:normal;font-weight:normal;font-size:9px;font-family:Carlito;writing-mode:lr-tb;fill:#ffffff;fill-opacity:1;fill-rule:nonzero;stroke:none"
           x="0"
           y="0"
           id="tspan27584">34,34,85</tspan></text>
      <text
         xml:space="preserve"
         transform="matrix(1.2812267,0,0,1.2812267,4269.639,192.74668)"
         clip-path="none"
         id="text27585"><tspan
           style="font-variant:normal;font-weight:normal;font-size:9px;font-family:Carlito;writing-mode:lr-tb;fill:#ffffff;fill-opacity:1;fill-rule:nonzero;stroke:none"
           x="0"
           y="0"
           id="tspan27585">222255</tspan></text>
      <text
         xml:space="preserve"
         transform="matrix(1.2812267,0,0,1.2812267,4265.1843,205.21917)"
         clip-path="none"
         id="text27586"><tspan
           style="font-variant:normal;font-weight:normal;font-size:9px;font-family:Carlito;writing-mode:lr-tb;fill:#ffffff;fill-opacity:1;fill-rule:nonzero;stroke:none"
           x="0"
           dx="0 0.0054687499 0 0 2.0325241 0.0066406201 0 0.0066406201"
           y="0"
           id="tspan27586">darkblue</tspan></text>
    </g>
    <g
       id="g27">
      <path
         d="M 1123.71,404.48 960.77,567.41 H 730.352 L 567.422,404.48 V 174.059 L 730.352,11.1211 H 960.77 l 162.94,162.9379"
         style="fill:#225555;fill-opacity:1;fill-rule:nonzero;stroke:none"
         transform="matrix(0.12812267,0,0,-0.12812267,4250.1133,226.11867)"
         clip-path="none"
         id="path27587" />
      <text
         xml:space="preserve"
         transform="matrix(1.2812267,0,0,1.2812267,4338.03,179.86895)"
         clip-path="none"
         id="text27588"><tspan
           style="font-variant:normal;font-weight:normal;font-size:9px;font-family:Carlito;writing-mode:lr-tb;fill:#ffffff;fill-opacity:1;fill-rule:nonzero;stroke:none"
           x="0"
           y="0"
           id="tspan27588">34,85,85</tspan></text>
      <text
         xml:space="preserve"
         transform="matrix(1.2812267,0,0,1.2812267,4340.9127,192.74668)"
         clip-path="none"
         id="text27589"><tspan
           style="font-variant:normal;font-weight:normal;font-size:9px;font-family:Carlito;writing-mode:lr-tb;fill:#ffffff;fill-opacity:1;fill-rule:nonzero;stroke:none"
           x="0"
           y="0"
           id="tspan27589">225555</tspan></text>
      <text
         xml:space="preserve"
         transform="matrix(1.2812267,0,0,1.2812267,4335.867,204.21968)"
         clip-path="none"
         id="text27590"><tspan
           style="font-variant:normal;font-weight:normal;font-size:9px;font-family:Carlito;writing-mode:lr-tb;fill:#ffffff;fill-opacity:1;fill-rule:nonzero;stroke:none"
           x="0"
           dx="0 0.0054687499 0 0 2.0325241 0.0072265598"
           y="0"
           id="tspan27590">darkcyan</tspan></text>
    </g>
    <g
       id="g26">
      <path
         d="M 1680,404.48 1517.07,567.41 H 1286.64 L 1123.71,404.48 V 174.059 L 1286.64,11.1211 h 230.43 L 1680,174.059"
         style="fill:#225522;fill-opacity:1;fill-rule:nonzero;stroke:none"
         transform="matrix(0.12812267,0,0,-0.12812267,4250.1133,226.11867)"
         clip-path="none"
         id="path27591" />
      <text
         xml:space="preserve"
         transform="matrix(1.2812267,0,0,1.2812267,4409.3032,179.86895)"
         clip-path="none"
         id="text27592"><tspan
           style="font-variant:normal;font-weight:normal;font-size:9px;font-family:Carlito;writing-mode:lr-tb;fill:#ffffff;fill-opacity:1;fill-rule:nonzero;stroke:none"
           x="0"
           y="0"
           id="tspan27592">34,85,34</tspan></text>
      <text
         xml:space="preserve"
         transform="matrix(1.2812267,0,0,1.2812267,4412.1859,192.74668)"
         clip-path="none"
         id="text27593"><tspan
           style="font-variant:normal;font-weight:normal;font-size:9px;font-family:Carlito;writing-mode:lr-tb;fill:#ffffff;fill-opacity:1;fill-rule:nonzero;stroke:none"
           x="0"
           y="0"
           id="tspan27593">225522</tspan></text>
      <text
         xml:space="preserve"
         transform="matrix(1.2812267,0,0,1.2812267,4404.4883,204.21968)"
         clip-path="none"
         id="text27594"><tspan
           style="font-variant:normal;font-weight:normal;font-size:9px;font-family:Carlito;writing-mode:lr-tb;fill:#ffffff;fill-opacity:1;fill-rule:nonzero;stroke:none"
           x="0"
           dx="0 0.0054687499 0 0 2.0325241 0 0 0.0059570302 0.0059570302"
           y="0"
           id="tspan27594">darkgreen</tspan></text>
    </g>
    <g
       id="g25">
      <path
         d="M 2236.29,404.48 2073.36,567.41 H 1842.93 L 1680,404.48 V 174.059 L 1842.93,11.1211 h 230.43 l 162.93,162.9379"
         style="fill:#666633;fill-opacity:1;fill-rule:nonzero;stroke:none"
         transform="matrix(0.12812267,0,0,-0.12812267,4250.1133,226.11867)"
         clip-path="none"
         id="path27595" />
      <text
         xml:space="preserve"
         transform="matrix(1.2812267,0,0,1.2812267,4474.7316,179.86895)"
         clip-path="none"
         id="text27596"><tspan
           style="font-variant:normal;font-weight:normal;font-size:9px;font-family:Carlito;writing-mode:lr-tb;fill:#ffffff;fill-opacity:1;fill-rule:nonzero;stroke:none"
           x="0"
           y="0"
           id="tspan27596">102,102,51</tspan></text>
      <text
         xml:space="preserve"
         transform="matrix(1.2812267,0,0,1.2812267,4483.4593,192.74668)"
         clip-path="none"
         id="text27597"><tspan
           style="font-variant:normal;font-weight:normal;font-size:9px;font-family:Carlito;writing-mode:lr-tb;fill:#ffffff;fill-opacity:1;fill-rule:nonzero;stroke:none"
           x="0"
           y="0"
           id="tspan27597">666633</tspan></text>
      <text
         xml:space="preserve"
         transform="matrix(1.2812267,0,0,1.2812267,4473.9705,204.21968)"
         clip-path="none"
         id="text27598"><tspan
           style="font-variant:normal;font-weight:normal;font-size:9px;font-family:Carlito;writing-mode:lr-tb;fill:#ffffff;fill-opacity:1;fill-rule:nonzero;stroke:none"
           x="0"
           dx="0 0.0054687499 0 0 2.0325241 0.0055664098 0.0059570302"
           y="0"
           id="tspan27598">darkyellow</tspan></text>
    </g>
    <g
       id="g24">
      <path
         d="M 2792.58,404.48 2629.65,567.41 H 2399.23 L 2236.29,404.48 V 174.059 L 2399.23,11.1211 h 230.42 l 162.93,162.9379"
         style="fill:#663333;fill-opacity:1;fill-rule:nonzero;stroke:none"
         transform="matrix(0.12812267,0,0,-0.12812267,4250.1133,226.11867)"
         clip-path="none"
         id="path27599" />
      <text
         xml:space="preserve"
         transform="matrix(1.2812267,0,0,1.2812267,4548.9274,179.86895)"
         clip-path="none"
         id="text27600"><tspan
           style="font-variant:normal;font-weight:normal;font-size:9px;font-family:Carlito;writing-mode:lr-tb;fill:#ffffff;fill-opacity:1;fill-rule:nonzero;stroke:none"
           x="0"
           y="0"
           id="tspan27600">102,51,51</tspan></text>
      <text
         xml:space="preserve"
         transform="matrix(1.2812267,0,0,1.2812267,4554.7327,192.74668)"
         clip-path="none"
         id="text27601"><tspan
           style="font-variant:normal;font-weight:normal;font-size:9px;font-family:Carlito;writing-mode:lr-tb;fill:#ffffff;fill-opacity:1;fill-rule:nonzero;stroke:none"
           x="0"
           y="0"
           id="tspan27601">663333</tspan></text>
      <text
         xml:space="preserve"
         transform="matrix(1.2812267,0,0,1.2812267,4552.6212,205.21917)"
         clip-path="none"
         id="text27602"><tspan
           style="font-variant:normal;font-weight:normal;font-size:9px;font-family:Carlito;writing-mode:lr-tb;fill:#ffffff;fill-opacity:1;fill-rule:nonzero;stroke:none"
           x="0"
           dx="0 0.0054687499 0 0 2.0325241 0 0.0071289102"
           y="0"
           id="tspan27602">darkred</tspan></text>
    </g>
    <g
       id="g23">
      <path
         d="M 3348.87,404.48 3185.94,567.41 H 2955.52 L 2792.58,404.48 V 174.059 L 2955.52,11.1211 h 230.42 l 162.93,162.9379"
         style="fill:#555555;fill-opacity:1;fill-rule:nonzero;stroke:none"
         transform="matrix(0.12812267,0,0,-0.12812267,4250.1133,226.11867)"
         clip-path="none"
         id="path27603" />
      <text
         xml:space="preserve"
         transform="matrix(1.2812267,0,0,1.2812267,4623.1233,179.86895)"
         clip-path="none"
         id="text27604"><tspan
           style="font-variant:normal;font-weight:normal;font-size:9px;font-family:Carlito;writing-mode:lr-tb;fill:#ffffff;fill-opacity:1;fill-rule:nonzero;stroke:none"
           x="0"
           y="0"
           id="tspan27604">85,85,85</tspan></text>
      <text
         xml:space="preserve"
         transform="matrix(1.2812267,0,0,1.2812267,4626.006,192.74668)"
         clip-path="none"
         id="text27605"><tspan
           style="font-variant:normal;font-weight:normal;font-size:9px;font-family:Carlito;writing-mode:lr-tb;fill:#ffffff;fill-opacity:1;fill-rule:nonzero;stroke:none"
           x="0"
           y="0"
           id="tspan27605">555555</tspan></text>
      <text
         xml:space="preserve"
         transform="matrix(1.2812267,0,0,1.2812267,4621.6024,204.21968)"
         clip-path="none"
         id="text27606"><tspan
           style="font-variant:normal;font-weight:normal;font-size:9px;font-family:Carlito;writing-mode:lr-tb;fill:#ffffff;fill-opacity:1;fill-rule:nonzero;stroke:none"
           x="0"
           dx="0 0.0054687499 0 0 2.0329111 0 0 0.0059570302"
           y="0"
           id="tspan27606">darkgrey</tspan></text>
    </g>
  </g>
</svg>
