<?xml version="1.0" encoding="UTF-8" standalone="no"?>
<!-- Created with Inkscape (http://www.inkscape.org/) -->

<svg
   version="1.1"
   id="svg1"
   width="640.08691"
   height="65.403992"
   viewBox="0 0 640.08691 65.403991"
   sodipodi:docname="PRGn.svg"
   inkscape:version="1.4.1 (1:1.4.1+202503302257+93de688d07)"
   xmlns:inkscape="http://www.inkscape.org/namespaces/inkscape"
   xmlns:sodipodi="http://sodipodi.sourceforge.net/DTD/sodipodi-0.dtd"
   xmlns="http://www.w3.org/2000/svg"
   xmlns:svg="http://www.w3.org/2000/svg">
  <sodipodi:namedview
     id="namedview1"
     pagecolor="#ffffff"
     bordercolor="#666666"
     borderopacity="1.0"
     inkscape:showpageshadow="2"
     inkscape:pageopacity="0.0"
     inkscape:pagecheckerboard="0"
     inkscape:deskcolor="#d1d1d1"
     inkscape:zoom="2.496536"
     inkscape:cx="256.15493"
     inkscape:cy="32.645234"
     inkscape:window-width="1680"
     inkscape:window-height="1013"
     inkscape:window-x="1920"
     inkscape:window-y="0"
     inkscape:window-maximized="1"
     inkscape:current-layer="svg1" />
  <defs
     id="defs1">
    <clipPath
       clipPathUnits="userSpaceOnUse"
       id="clipPath275">
      <path
         d="M 0,0 H 5600 V 591.762 H 0 Z"
         transform="translate(-2.9052201e-6)"
         id="path275" />
    </clipPath>
    <clipPath
       clipPathUnits="userSpaceOnUse"
       id="clipPath276">
      <path
         d="M 0,0 H 5600 V 591.762 H 0 Z"
         transform="translate(-2.9052201e-6)"
         id="path276" />
    </clipPath>
    <clipPath
       clipPathUnits="userSpaceOnUse"
       id="clipPath282">
      <path
         d="M 0,0 H 5600 V 591.762 H 0 Z"
         transform="translate(-2.9052201e-6)"
         id="path282" />
    </clipPath>
    <clipPath
       clipPathUnits="userSpaceOnUse"
       id="clipPath283">
      <path
         d="M 0,0 H 5600 V 591.762 H 0 Z"
         transform="translate(-2.9052201e-6)"
         id="path283" />
    </clipPath>
    <clipPath
       clipPathUnits="userSpaceOnUse"
       id="clipPath289">
      <path
         d="M 0,0 H 5600 V 591.762 H 0 Z"
         transform="translate(-2.9052201e-6)"
         id="path289" />
    </clipPath>
    <clipPath
       clipPathUnits="userSpaceOnUse"
       id="clipPath290">
      <path
         d="M 0,0 H 5600 V 591.762 H 0 Z"
         transform="translate(-2.9052201e-6)"
         id="path290" />
    </clipPath>
    <clipPath
       clipPathUnits="userSpaceOnUse"
       id="clipPath296">
      <path
         d="M 0,0 H 5600 V 591.762 H 0 Z"
         transform="translate(-2.9052201e-6)"
         id="path296" />
    </clipPath>
    <clipPath
       clipPathUnits="userSpaceOnUse"
       id="clipPath297">
      <path
         d="M 0,0 H 5600 V 591.762 H 0 Z"
         transform="translate(-2.9052201e-6)"
         id="path297" />
    </clipPath>
    <clipPath
       clipPathUnits="userSpaceOnUse"
       id="clipPath303">
      <path
         d="M 0,0 H 5600 V 591.762 H 0 Z"
         transform="translate(-2.9052201e-6)"
         id="path303" />
    </clipPath>
    <clipPath
       clipPathUnits="userSpaceOnUse"
       id="clipPath304">
      <path
         d="M 0,0 H 5600 V 591.762 H 0 Z"
         transform="translate(-2.9052201e-6)"
         id="path304" />
    </clipPath>
    <clipPath
       clipPathUnits="userSpaceOnUse"
       id="clipPath310">
      <path
         d="M 0,0 H 5600 V 591.762 H 0 Z"
         transform="translate(-2.9052201e-6)"
         id="path310" />
    </clipPath>
    <clipPath
       clipPathUnits="userSpaceOnUse"
       id="clipPath311">
      <path
         d="M 0,0 H 5600 V 591.762 H 0 Z"
         transform="translate(-2.9052201e-6)"
         id="path311" />
    </clipPath>
    <clipPath
       clipPathUnits="userSpaceOnUse"
       id="clipPath317">
      <path
         d="M 0,0 H 5600 V 591.762 H 0 Z"
         transform="translate(-2.9052201e-6)"
         id="path317" />
    </clipPath>
    <clipPath
       clipPathUnits="userSpaceOnUse"
       id="clipPath318">
      <path
         d="M 0,0 H 5600 V 591.762 H 0 Z"
         transform="translate(-2.9052201e-6)"
         id="path318" />
    </clipPath>
    <clipPath
       clipPathUnits="userSpaceOnUse"
       id="clipPath324">
      <path
         d="M 0,0 H 5600 V 591.762 H 0 Z"
         transform="translate(-2.9052201e-6)"
         id="path324" />
    </clipPath>
    <clipPath
       clipPathUnits="userSpaceOnUse"
       id="clipPath325">
      <path
         d="M 0,0 H 5600 V 591.762 H 0 Z"
         transform="translate(-2.9052201e-6)"
         id="path325" />
    </clipPath>
    <clipPath
       clipPathUnits="userSpaceOnUse"
       id="clipPath331">
      <path
         d="M 0,0 H 5600 V 591.762 H 0 Z"
         transform="translate(-2.9052201e-6)"
         id="path331" />
    </clipPath>
    <clipPath
       clipPathUnits="userSpaceOnUse"
       id="clipPath332">
      <path
         d="M 0,0 H 5600 V 591.762 H 0 Z"
         transform="translate(-2.9052201e-6)"
         id="path332" />
    </clipPath>
    <clipPath
       clipPathUnits="userSpaceOnUse"
       id="clipPath338">
      <path
         d="M 0,0 H 5600 V 591.762 H 0 Z"
         transform="translate(-2.9052201e-6)"
         id="path338" />
    </clipPath>
  </defs>
  <path
     d="M 553.762,408.32 394.75,567.328 H 169.871 L 10.8594,408.32 V 183.441 L 169.871,24.4297 H 394.75 L 553.762,183.441"
     style="fill:#762a83;fill-opacity:1;fill-rule:nonzero;stroke:none"
     transform="matrix(0.114736,0,0,-0.114736,-1.1886,66.64993)"
     clip-path="none"
     id="path344" />
  <text
     xml:space="preserve"
     transform="matrix(1.14736,0,0,1.14736,7.681479,29.25988)"
     clip-path="none"
     id="text345"><tspan
       style="font-variant:normal;font-weight:normal;font-size:9px;font-family:Carlito;writing-mode:lr-tb;fill:#000000;fill-opacity:1;fill-rule:nonzero;stroke:none"
       x="0"
       y="0"
       id="tspan345">118,42,131</tspan></text>
  <text
     xml:space="preserve"
     transform="matrix(1.14736,0,0,1.14736,15.130301,40.96295)"
     clip-path="none"
     id="text346"><tspan
       style="font-variant:normal;font-weight:normal;font-size:9px;font-family:Carlito;writing-mode:lr-tb;fill:#000000;fill-opacity:1;fill-rule:nonzero;stroke:none"
       x="0"
       y="0"
       id="tspan346">762A83</tspan></text>
  <path
     d="M 1096.66,408.32 937.641,567.328 H 712.77 L 553.762,408.32 V 183.441 L 712.77,24.4297 H 937.641 L 1096.66,183.441"
     style="fill:#9970ab;fill-opacity:1;fill-rule:nonzero;stroke:none"
     transform="matrix(0.114736,0,0,-0.114736,-1.1886,66.64993)"
     clip-path="none"
     id="path347" />
  <text
     xml:space="preserve"
     transform="matrix(1.14736,0,0,1.14736,67.353653,29.25988)"
     clip-path="none"
     id="text348"><tspan
       style="font-variant:normal;font-weight:normal;font-size:9px;font-family:Carlito;writing-mode:lr-tb;fill:#000000;fill-opacity:1;fill-rule:nonzero;stroke:none"
       x="0"
       y="0"
       id="tspan348">153,112,171</tspan></text>
  <text
     xml:space="preserve"
     transform="matrix(1.14736,0,0,1.14736,77.232083,40.96295)"
     clip-path="none"
     id="text349"><tspan
       style="font-variant:normal;font-weight:normal;font-size:9px;font-family:Carlito;writing-mode:lr-tb;fill:#000000;fill-opacity:1;fill-rule:nonzero;stroke:none"
       x="0"
       y="0"
       id="tspan349">9970AB</tspan></text>
  <path
     d="M 1639.55,408.32 1480.54,567.328 H 1255.67 L 1096.66,408.32 V 183.441 L 1255.67,24.4297 h 224.87 l 159.01,159.0113"
     style="fill:#c2a5cf;fill-opacity:1;fill-rule:nonzero;stroke:none"
     transform="matrix(0.114736,0,0,-0.114736,-1.1886,66.64993)"
     clip-path="none"
     id="path350" />
  <text
     xml:space="preserve"
     transform="matrix(1.14736,0,0,1.14736,129.64371,29.25988)"
     clip-path="none"
     id="text351"><tspan
       style="font-variant:normal;font-weight:normal;font-size:9px;font-family:Carlito;writing-mode:lr-tb;fill:#000000;fill-opacity:1;fill-rule:nonzero;stroke:none"
       x="0"
       y="0"
       id="tspan351">194,165,207</tspan></text>
  <text
     xml:space="preserve"
     transform="matrix(1.14736,0,0,1.14736,139.68311,40.96295)"
     clip-path="none"
     id="text352"><tspan
       style="font-variant:normal;font-weight:normal;font-size:9px;font-family:Carlito;writing-mode:lr-tb;fill:#000000;fill-opacity:1;fill-rule:nonzero;stroke:none"
       x="0"
       y="0"
       id="tspan352">C2A5CF</tspan></text>
  <path
     d="M 2182.45,408.32 2023.44,567.328 H 1798.57 L 1639.55,408.32 V 183.441 L 1798.57,24.4297 h 224.87 l 159.01,159.0113"
     style="fill:#e7d4e8;fill-opacity:1;fill-rule:nonzero;stroke:none"
     transform="matrix(0.114736,0,0,-0.114736,-1.1886,66.64993)"
     clip-path="none"
     id="path353" />
  <text
     xml:space="preserve"
     transform="matrix(1.14736,0,0,1.14736,191.93388,29.25988)"
     clip-path="none"
     id="text354"><tspan
       style="font-variant:normal;font-weight:normal;font-size:9px;font-family:Carlito;writing-mode:lr-tb;fill:#000000;fill-opacity:1;fill-rule:nonzero;stroke:none"
       x="0"
       y="0"
       id="tspan354">231,212,232</tspan></text>
  <text
     xml:space="preserve"
     transform="matrix(1.14736,0,0,1.14736,202.00885,40.96295)"
     clip-path="none"
     id="text355"><tspan
       style="font-variant:normal;font-weight:normal;font-size:9px;font-family:Carlito;writing-mode:lr-tb;fill:#000000;fill-opacity:1;fill-rule:nonzero;stroke:none"
       x="0"
       dx="0 0 0 -0.0062500001"
       y="0"
       id="tspan355">E7D4E8</tspan></text>
  <path
     d="M 2725.35,408.32 2566.34,567.328 H 2341.46 L 2182.45,408.32 V 183.441 L 2341.46,24.4297 h 224.88 l 159.01,159.0113"
     style="fill:#f7f7f7;fill-opacity:1;fill-rule:nonzero;stroke:none"
     transform="matrix(0.114736,0,0,-0.114736,-1.1886,66.64993)"
     clip-path="none"
     id="path356" />
  <text
     xml:space="preserve"
     transform="matrix(1.14736,0,0,1.14736,254.22406,29.25988)"
     clip-path="none"
     id="text357"><tspan
       style="font-variant:normal;font-weight:normal;font-size:9px;font-family:Carlito;writing-mode:lr-tb;fill:#000000;fill-opacity:1;fill-rule:nonzero;stroke:none"
       x="0"
       y="0"
       id="tspan357">247,247,247</tspan></text>
  <text
     xml:space="preserve"
     transform="matrix(1.14736,0,0,1.14736,265.38443,40.96295)"
     clip-path="none"
     id="text358"><tspan
       style="font-variant:normal;font-weight:normal;font-size:9px;font-family:Carlito;writing-mode:lr-tb;fill:#000000;fill-opacity:1;fill-rule:nonzero;stroke:none"
       x="0"
       dx="0 0.0057617198 0 0.0057617198 0 0.00537109"
       y="0"
       id="tspan358">F7F7F7</tspan></text>
  <path
     d="M 3268.25,408.32 3109.24,567.328 H 2884.36 L 2725.35,408.32 V 183.441 L 2884.36,24.4297 h 224.88 l 159.01,159.0113"
     style="fill:#d9f0d3;fill-opacity:1;fill-rule:nonzero;stroke:none"
     transform="matrix(0.114736,0,0,-0.114736,-1.1886,66.64993)"
     clip-path="none"
     id="path359" />
  <text
     xml:space="preserve"
     transform="matrix(1.14736,0,0,1.14736,316.51423,29.25988)"
     clip-path="none"
     id="text360"><tspan
       style="font-variant:normal;font-weight:normal;font-size:9px;font-family:Carlito;writing-mode:lr-tb;fill:#000000;fill-opacity:1;fill-rule:nonzero;stroke:none"
       x="0"
       y="0"
       id="tspan360">217,240,211</tspan></text>
  <text
     xml:space="preserve"
     transform="matrix(1.14736,0,0,1.14736,326.07863,40.96295)"
     clip-path="none"
     id="text361"><tspan
       style="font-variant:normal;font-weight:normal;font-size:9px;font-family:Carlito;writing-mode:lr-tb;fill:#000000;fill-opacity:1;fill-rule:nonzero;stroke:none"
       x="0"
       dx="0 -0.0062500001 0 0 0 -0.0062500001"
       y="0"
       id="tspan361">D9F0D3</tspan></text>
  <path
     d="M 3811.15,408.32 3652.14,567.328 H 3427.26 L 3268.25,408.32 V 183.441 L 3427.26,24.4297 h 224.88 l 159.01,159.0113"
     style="fill:#acd39e;fill-opacity:1;fill-rule:nonzero;stroke:none"
     transform="matrix(0.114736,0,0,-0.114736,-1.1886,66.64993)"
     clip-path="none"
     id="path362" />
  <text
     xml:space="preserve"
     transform="matrix(1.14736,0,0,1.14736,378.80441,29.25988)"
     clip-path="none"
     id="text363"><tspan
       style="font-variant:normal;font-weight:normal;font-size:9px;font-family:Carlito;writing-mode:lr-tb;fill:#000000;fill-opacity:1;fill-rule:nonzero;stroke:none"
       x="0"
       y="0"
       id="tspan363">172,211,158</tspan></text>
  <text
     xml:space="preserve"
     transform="matrix(1.14736,0,0,1.14736,388.27931,40.96295)"
     clip-path="none"
     id="text364"><tspan
       style="font-variant:normal;font-weight:normal;font-size:9px;font-family:Carlito;writing-mode:lr-tb;fill:#000000;fill-opacity:1;fill-rule:nonzero;stroke:none"
       x="0"
       dx="0 0 0 -0.0058593801"
       y="0"
       id="tspan364">ACD39E</tspan></text>
  <path
     d="M 4354.05,408.32 4195.04,567.328 H 3970.16 L 3811.15,408.32 V 183.441 L 3970.16,24.4297 h 224.88 l 159.01,159.0113"
     style="fill:#5aae61;fill-opacity:1;fill-rule:nonzero;stroke:none"
     transform="matrix(0.114736,0,0,-0.114736,-1.1886,66.64993)"
     clip-path="none"
     id="path365" />
  <text
     xml:space="preserve"
     transform="matrix(1.14736,0,0,1.14736,446.32884,29.25988)"
     clip-path="none"
     id="text366"><tspan
       style="font-variant:normal;font-weight:normal;font-size:9px;font-family:Carlito;writing-mode:lr-tb;fill:#000000;fill-opacity:1;fill-rule:nonzero;stroke:none"
       x="0"
       y="0"
       id="tspan366">90,174,97</tspan></text>
  <text
     xml:space="preserve"
     transform="matrix(1.14736,0,0,1.14736,450.89189,40.96295)"
     clip-path="none"
     id="text367"><tspan
       style="font-variant:normal;font-weight:normal;font-size:9px;font-family:Carlito;writing-mode:lr-tb;fill:#000000;fill-opacity:1;fill-rule:nonzero;stroke:none"
       x="0"
       y="0"
       id="tspan367">5AAE61</tspan></text>
  <path
     d="M 4896.95,408.32 4737.93,567.328 H 4513.06 L 4354.05,408.32 V 183.441 L 4513.06,24.4297 h 224.87 l 159.02,159.0113"
     style="fill:#1b7837;fill-opacity:1;fill-rule:nonzero;stroke:none"
     transform="matrix(0.114736,0,0,-0.114736,-1.1886,66.64993)"
     clip-path="none"
     id="path368" />
  <text
     xml:space="preserve"
     transform="matrix(1.14736,0,0,1.14736,508.61901,29.25988)"
     clip-path="none"
     id="text369"><tspan
       style="font-variant:normal;font-weight:normal;font-size:9px;font-family:Carlito;writing-mode:lr-tb;fill:#000000;fill-opacity:1;fill-rule:nonzero;stroke:none"
       x="0"
       y="0"
       id="tspan369">27,120,55</tspan></text>
  <text
     xml:space="preserve"
     transform="matrix(1.14736,0,0,1.14736,513.62953,40.96295)"
     clip-path="none"
     id="text370"><tspan
       style="font-variant:normal;font-weight:normal;font-size:9px;font-family:Carlito;writing-mode:lr-tb;fill:#000000;fill-opacity:1;fill-rule:nonzero;stroke:none"
       x="0"
       y="0"
       id="tspan370">1B7837</tspan></text>
  <path
     d="m 5589.14,295.879 c 0,75.59 -30.03,148.09 -83.48,201.543 -53.45,53.449 -125.95,83.476 -201.54,83.476 -75.59,0 -148.09,-30.027 -201.54,-83.476 -53.45,-53.453 -83.48,-125.953 -83.48,-201.543 0,-75.59 30.03,-148.09 83.48,-201.5392 53.45,-53.4492 125.95,-83.4804 201.54,-83.4804 75.59,0 148.09,30.0312 201.54,83.4804 53.45,53.4492 83.48,125.9492 83.48,201.5392"
     style="fill:#ffee99;fill-opacity:1;fill-rule:evenodd;stroke:none"
     transform="matrix(0.114736,0,0,-0.114736,-1.1886,66.64993)"
     clip-path="none"
     id="path371" />
  <text
     xml:space="preserve"
     transform="matrix(1.14736,0,0,1.14736,581.2469,29.25988)"
     clip-path="none"
     id="text372"><tspan
       style="font-variant:normal;font-weight:normal;font-size:9px;font-family:Carlito;writing-mode:lr-tb;fill:#000000;fill-opacity:1;fill-rule:nonzero;stroke:none"
       x="0"
       y="0"
       id="tspan372">255,238,153</tspan></text>
  <text
     xml:space="preserve"
     transform="matrix(1.14736,0,0,1.14736,592.36138,40.96295)"
     clip-path="none"
     id="text373"><tspan
       style="font-variant:normal;font-weight:normal;font-size:9px;font-family:Carlito;writing-mode:lr-tb;fill:#000000;fill-opacity:1;fill-rule:nonzero;stroke:none"
       x="0"
       dx="0 0.0057617198"
       y="0"
       id="tspan373">FFEE99</tspan></text>
</svg>
