<?xml version="1.0" encoding="UTF-8" standalone="no"?>
<!-- Created with Inkscape (http://www.inkscape.org/) -->

<svg
   version="1.1"
   id="svg1"
   width="640.97906"
   height="55.740021"
   viewBox="0 0 640.97906 55.74002"
   sodipodi:docname="sunset.svg"
   inkscape:version="1.4.1 (1:1.4.1+202503302257+93de688d07)"
   xmlns:inkscape="http://www.inkscape.org/namespaces/inkscape"
   xmlns:sodipodi="http://sodipodi.sourceforge.net/DTD/sodipodi-0.dtd"
   xmlns="http://www.w3.org/2000/svg"
   xmlns:svg="http://www.w3.org/2000/svg">
  <sodipodi:namedview
     id="namedview1"
     pagecolor="#ffffff"
     bordercolor="#666666"
     borderopacity="1.0"
     inkscape:showpageshadow="2"
     inkscape:pageopacity="0.0"
     inkscape:pagecheckerboard="0"
     inkscape:deskcolor="#d1d1d1"
     inkscape:zoom="2.4930611"
     inkscape:cx="160.24477"
     inkscape:cy="59.966439"
     inkscape:window-width="1680"
     inkscape:window-height="1013"
     inkscape:window-x="1920"
     inkscape:window-y="0"
     inkscape:window-maximized="1"
     inkscape:current-layer="svg1" />
  <defs
     id="defs1">
    <clipPath
       clipPathUnits="userSpaceOnUse"
       id="clipPath46">
      <path
         d="M 0,0 V 595 H 6720 V 0 Z"
         transform="translate(-3.4861669e-6)"
         id="path46" />
    </clipPath>
    <clipPath
       clipPathUnits="userSpaceOnUse"
       id="clipPath47">
      <path
         d="M 0,0 V 595 H 6720 V 0 Z"
         transform="translate(-3.4861669e-6)"
         id="path47" />
    </clipPath>
    <clipPath
       clipPathUnits="userSpaceOnUse"
       id="clipPath53">
      <path
         d="M 0,0 V 595 H 6720 V 0 Z"
         transform="translate(-3.4861669e-6)"
         id="path53" />
    </clipPath>
    <clipPath
       clipPathUnits="userSpaceOnUse"
       id="clipPath54">
      <path
         d="M 0,0 V 595 H 6720 V 0 Z"
         transform="translate(-3.4861669e-6)"
         id="path54" />
    </clipPath>
    <clipPath
       clipPathUnits="userSpaceOnUse"
       id="clipPath60">
      <path
         d="M 0,0 V 595 H 6720 V 0 Z"
         transform="translate(-3.4861669e-6)"
         id="path60" />
    </clipPath>
    <clipPath
       clipPathUnits="userSpaceOnUse"
       id="clipPath61">
      <path
         d="M 0,0 V 595 H 6720 V 0 Z"
         transform="translate(-3.4861669e-6)"
         id="path61" />
    </clipPath>
    <clipPath
       clipPathUnits="userSpaceOnUse"
       id="clipPath67">
      <path
         d="M 0,0 V 595 H 6720 V 0 Z"
         transform="translate(-3.4861669e-6)"
         id="path67" />
    </clipPath>
    <clipPath
       clipPathUnits="userSpaceOnUse"
       id="clipPath68">
      <path
         d="M 0,0 V 595 H 6720 V 0 Z"
         transform="translate(-3.4861669e-6)"
         id="path68" />
    </clipPath>
    <clipPath
       clipPathUnits="userSpaceOnUse"
       id="clipPath74">
      <path
         d="M 0,0 V 595 H 6720 V 0 Z"
         transform="translate(-3.4861669e-6)"
         id="path74" />
    </clipPath>
    <clipPath
       clipPathUnits="userSpaceOnUse"
       id="clipPath75">
      <path
         d="M 0,0 V 595 H 6720 V 0 Z"
         transform="translate(-3.4861669e-6)"
         id="path75" />
    </clipPath>
    <clipPath
       clipPathUnits="userSpaceOnUse"
       id="clipPath81">
      <path
         d="M 0,0 V 595 H 6720 V 0 Z"
         transform="translate(-3.4861669e-6)"
         id="path81" />
    </clipPath>
    <clipPath
       clipPathUnits="userSpaceOnUse"
       id="clipPath82">
      <path
         d="M 0,0 V 595 H 6720 V 0 Z"
         transform="translate(-3.4861669e-6)"
         id="path82" />
    </clipPath>
    <clipPath
       clipPathUnits="userSpaceOnUse"
       id="clipPath88">
      <path
         d="M 0,0 V 595 H 6720 V 0 Z"
         transform="translate(-3.4861669e-6)"
         id="path88" />
    </clipPath>
    <clipPath
       clipPathUnits="userSpaceOnUse"
       id="clipPath89">
      <path
         d="M 0,0 V 595 H 6720 V 0 Z"
         transform="translate(-3.4861669e-6)"
         id="path89" />
    </clipPath>
    <clipPath
       clipPathUnits="userSpaceOnUse"
       id="clipPath95">
      <path
         d="M 0,0 V 595 H 6720 V 0 Z"
         transform="translate(-3.4861669e-6)"
         id="path95" />
    </clipPath>
    <clipPath
       clipPathUnits="userSpaceOnUse"
       id="clipPath96">
      <path
         d="M 0,0 V 595 H 6720 V 0 Z"
         transform="translate(-3.4861669e-6)"
         id="path96" />
    </clipPath>
    <clipPath
       clipPathUnits="userSpaceOnUse"
       id="clipPath102">
      <path
         d="M 0,0 V 595 H 6720 V 0 Z"
         transform="translate(-3.4861669e-6)"
         id="path102" />
    </clipPath>
    <clipPath
       clipPathUnits="userSpaceOnUse"
       id="clipPath103">
      <path
         d="M 0,0 V 595 H 6720 V 0 Z"
         transform="translate(-3.4861669e-6)"
         id="path103" />
    </clipPath>
    <clipPath
       clipPathUnits="userSpaceOnUse"
       id="clipPath109">
      <path
         d="M 0,0 V 595 H 6720 V 0 Z"
         transform="translate(-3.4861669e-6)"
         id="path109" />
    </clipPath>
    <clipPath
       clipPathUnits="userSpaceOnUse"
       id="clipPath110">
      <path
         d="M 0,0 V 595 H 6720 V 0 Z"
         transform="translate(-3.4861669e-6)"
         id="path110" />
    </clipPath>
    <clipPath
       clipPathUnits="userSpaceOnUse"
       id="clipPath116">
      <path
         d="M 0,0 V 595 H 6720 V 0 Z"
         transform="translate(-3.4861669e-6)"
         id="path116" />
    </clipPath>
    <clipPath
       clipPathUnits="userSpaceOnUse"
       id="clipPath117">
      <path
         d="M 0,0 V 595 H 6720 V 0 Z"
         transform="translate(-3.4861669e-6)"
         id="path117" />
    </clipPath>
    <clipPath
       clipPathUnits="userSpaceOnUse"
       id="clipPath123">
      <path
         d="M 0,0 V 595 H 6720 V 0 Z"
         transform="translate(-3.4861669e-6)"
         id="path123" />
    </clipPath>
    <clipPath
       clipPathUnits="userSpaceOnUse"
       id="clipPath124">
      <path
         d="M 0,0 V 595 H 6720 V 0 Z"
         transform="translate(-3.4861669e-6)"
         id="path124" />
    </clipPath>
  </defs>
  <path
     d="M 556.59,410.41 396.762,570.23 H 170.738 L 10.9102,410.41 V 184.379 L 170.738,24.5586 H 396.762 L 556.59,184.379"
     style="fill:#364b9a;fill-opacity:1;fill-rule:nonzero;stroke:none"
     transform="matrix(0.095616,0,0,-0.095616,-0.995385,56.30624)"
     clip-path="none"
     id="path130" />
  <text
     xml:space="preserve"
     transform="matrix(0.95616,0,0,0.95616,8.71528,25.00175)"
     clip-path="none"
     id="text131"><tspan
       style="font-variant:normal;font-weight:normal;font-size:9px;font-family:Carlito;writing-mode:lr-tb;fill:#000000;fill-opacity:1;fill-rule:nonzero;stroke:none"
       x="0"
       y="0"
       id="tspan131">54,75,154</tspan></text>
  <text
     xml:space="preserve"
     transform="matrix(0.95616,0,0,0.95616,12.585051,34.19208)"
     clip-path="none"
     id="text132"><tspan
       style="font-variant:normal;font-weight:normal;font-size:9px;font-family:Carlito;writing-mode:lr-tb;fill:#000000;fill-opacity:1;fill-rule:nonzero;stroke:none"
       x="0"
       dx="0 0 0 0 -0.0056640599"
       y="0"
       id="tspan132">364B9A</tspan></text>
  <path
     d="M 1102.27,410.41 942.441,570.23 H 716.41 L 556.59,410.41 V 184.379 L 716.41,24.5586 H 942.441 L 1102.27,184.379"
     style="fill:#4a7bb7;fill-opacity:1;fill-rule:nonzero;stroke:none"
     transform="matrix(0.095616,0,0,-0.095616,-0.995385,56.30624)"
     clip-path="none"
     id="path133" />
  <text
     xml:space="preserve"
     transform="matrix(0.95616,0,0,0.95616,58.710118,25.00175)"
     clip-path="none"
     id="text134"><tspan
       style="font-variant:normal;font-weight:normal;font-size:9px;font-family:Carlito;writing-mode:lr-tb;fill:#000000;fill-opacity:1;fill-rule:nonzero;stroke:none"
       x="0"
       y="0"
       id="tspan134">74,123,183</tspan></text>
  <text
     xml:space="preserve"
     transform="matrix(0.95616,0,0,0.95616,64.603888,34.19208)"
     clip-path="none"
     id="text135"><tspan
       style="font-variant:normal;font-weight:normal;font-size:9px;font-family:Carlito;writing-mode:lr-tb;fill:#000000;fill-opacity:1;fill-rule:nonzero;stroke:none"
       x="0"
       dx="0 0 0 0 0 -0.0056640599"
       y="0"
       id="tspan135">4A7BB7</tspan></text>
  <path
     d="M 1647.94,410.41 1488.12,570.23 H 1262.09 L 1102.27,410.41 V 184.379 L 1262.09,24.5586 h 226.03 l 159.82,159.8204"
     style="fill:#6ea6cd;fill-opacity:1;fill-rule:nonzero;stroke:none"
     transform="matrix(0.095616,0,0,-0.095616,-0.995385,56.30624)"
     clip-path="none"
     id="path136" />
  <text
     xml:space="preserve"
     transform="matrix(0.95616,0,0,0.95616,108.7039,25.00175)"
     clip-path="none"
     id="text137"><tspan
       style="font-variant:normal;font-weight:normal;font-size:9px;font-family:Carlito;writing-mode:lr-tb;fill:#000000;fill-opacity:1;fill-rule:nonzero;stroke:none"
       x="0"
       y="0"
       id="tspan137">110,166,205</tspan></text>
  <text
     xml:space="preserve"
     transform="matrix(0.95616,0,0,0.95616,116.59987,34.19208)"
     clip-path="none"
     id="text138"><tspan
       style="font-variant:normal;font-weight:normal;font-size:9px;font-family:Carlito;writing-mode:lr-tb;fill:#000000;fill-opacity:1;fill-rule:nonzero;stroke:none"
       x="0"
       y="0"
       id="tspan138">6EA6CD</tspan></text>
  <path
     d="M 2193.62,410.41 2033.79,570.23 H 1807.77 L 1647.94,410.41 V 184.379 L 1807.77,24.5586 h 226.02 l 159.83,159.8204"
     style="fill:#98cae1;fill-opacity:1;fill-rule:nonzero;stroke:none"
     transform="matrix(0.095616,0,0,-0.095616,-0.995385,56.30624)"
     clip-path="none"
     id="path139" />
  <text
     xml:space="preserve"
     transform="matrix(0.95616,0,0,0.95616,160.87964,25.00175)"
     clip-path="none"
     id="text140"><tspan
       style="font-variant:normal;font-weight:normal;font-size:9px;font-family:Carlito;writing-mode:lr-tb;fill:#000000;fill-opacity:1;fill-rule:nonzero;stroke:none"
       x="0"
       y="0"
       id="tspan140">152,202,225</tspan></text>
  <text
     xml:space="preserve"
     transform="matrix(0.95616,0,0,0.95616,169.23839,34.19208)"
     clip-path="none"
     id="text141"><tspan
       style="font-variant:normal;font-weight:normal;font-size:9px;font-family:Carlito;writing-mode:lr-tb;fill:#000000;fill-opacity:1;fill-rule:nonzero;stroke:none"
       x="0"
       y="0"
       id="tspan141">98CAE1</tspan></text>
  <path
     d="M 2739.29,410.41 2579.47,570.23 H 2353.44 L 2193.62,410.41 V 184.379 L 2353.44,24.5586 h 226.03 l 159.82,159.8204"
     style="fill:#c2e4ef;fill-opacity:1;fill-rule:nonzero;stroke:none"
     transform="matrix(0.095616,0,0,-0.095616,-0.995385,56.30624)"
     clip-path="none"
     id="path142" />
  <text
     xml:space="preserve"
     transform="matrix(0.95616,0,0,0.95616,213.05442,25.00175)"
     clip-path="none"
     id="text143"><tspan
       style="font-variant:normal;font-weight:normal;font-size:9px;font-family:Carlito;writing-mode:lr-tb;fill:#000000;fill-opacity:1;fill-rule:nonzero;stroke:none"
       x="0"
       y="0"
       id="tspan143">194,228,239</tspan></text>
  <text
     xml:space="preserve"
     transform="matrix(0.95616,0,0,0.95616,222.00408,34.19208)"
     clip-path="none"
     id="text144"><tspan
       style="font-variant:normal;font-weight:normal;font-size:9px;font-family:Carlito;writing-mode:lr-tb;fill:#000000;fill-opacity:1;fill-rule:nonzero;stroke:none"
       x="0"
       y="0"
       id="tspan144">C2E4EF</tspan></text>
  <path
     d="M 3284.97,410.41 3125.14,570.23 H 2899.12 L 2739.29,410.41 V 184.379 L 2899.12,24.5586 h 226.02 l 159.83,159.8204"
     style="fill:#eaeccc;fill-opacity:1;fill-rule:nonzero;stroke:none"
     transform="matrix(0.095616,0,0,-0.095616,-0.995385,56.30624)"
     clip-path="none"
     id="path145" />
  <text
     xml:space="preserve"
     transform="matrix(0.95616,0,0,0.95616,265.23016,25.00175)"
     clip-path="none"
     id="text146"><tspan
       style="font-variant:normal;font-weight:normal;font-size:9px;font-family:Carlito;writing-mode:lr-tb;fill:#000000;fill-opacity:1;fill-rule:nonzero;stroke:none"
       x="0"
       y="0"
       id="tspan146">234,236,204</tspan></text>
  <text
     xml:space="preserve"
     transform="matrix(0.95616,0,0,0.95616,273.4474,34.19208)"
     clip-path="none"
     id="text147"><tspan
       style="font-variant:normal;font-weight:normal;font-size:9px;font-family:Carlito;writing-mode:lr-tb;fill:#000000;fill-opacity:1;fill-rule:nonzero;stroke:none"
       x="0"
       y="0"
       id="tspan147">EAECCC</tspan></text>
  <path
     d="M 3830.65,410.41 3670.82,570.23 H 3444.79 L 3284.97,410.41 V 184.379 L 3444.79,24.5586 h 226.03 l 159.83,159.8204"
     style="fill:#feda8b;fill-opacity:1;fill-rule:nonzero;stroke:none"
     transform="matrix(0.095616,0,0,-0.095616,-0.995385,56.30624)"
     clip-path="none"
     id="path148" />
  <text
     xml:space="preserve"
     transform="matrix(0.95616,0,0,0.95616,317.4059,25.00175)"
     clip-path="none"
     id="text149"><tspan
       style="font-variant:normal;font-weight:normal;font-size:9px;font-family:Carlito;writing-mode:lr-tb;fill:#000000;fill-opacity:1;fill-rule:nonzero;stroke:none"
       x="0"
       y="0"
       id="tspan149">254,218,139</tspan></text>
  <text
     xml:space="preserve"
     transform="matrix(0.95616,0,0,0.95616,325.45772,34.19208)"
     clip-path="none"
     id="text150"><tspan
       style="font-variant:normal;font-weight:normal;font-size:9px;font-family:Carlito;writing-mode:lr-tb;fill:#000000;fill-opacity:1;fill-rule:nonzero;stroke:none"
       x="0"
       dx="0 0.0057617198 0 -0.0058593801"
       y="0"
       id="tspan150">FEDA8B</tspan></text>
  <path
     d="M 4376.32,410.41 4216.5,570.23 H 3990.47 L 3830.65,410.41 V 184.379 L 3990.47,24.5586 h 226.03 l 159.82,159.8204"
     style="fill:#fdb366;fill-opacity:1;fill-rule:nonzero;stroke:none"
     transform="matrix(0.095616,0,0,-0.095616,-0.995385,56.30624)"
     clip-path="none"
     id="path151" />
  <text
     xml:space="preserve"
     transform="matrix(0.95616,0,0,0.95616,369.58068,25.00175)"
     clip-path="none"
     id="text152"><tspan
       style="font-variant:normal;font-weight:normal;font-size:9px;font-family:Carlito;writing-mode:lr-tb;fill:#000000;fill-opacity:1;fill-rule:nonzero;stroke:none"
       x="0"
       y="0"
       id="tspan152">253,179,102</tspan></text>
  <text
     xml:space="preserve"
     transform="matrix(0.95616,0,0,0.95616,377.8572,34.19208)"
     clip-path="none"
     id="text153"><tspan
       style="font-variant:normal;font-weight:normal;font-size:9px;font-family:Carlito;writing-mode:lr-tb;fill:#000000;fill-opacity:1;fill-rule:nonzero;stroke:none"
       x="0"
       dx="0 0.0057617198 -0.0062500001 -0.0052734399"
       y="0"
       id="tspan153">FDB366</tspan></text>
  <path
     d="M 4922,410.41 4762.17,570.23 H 4536.15 L 4376.32,410.41 V 184.379 L 4536.15,24.5586 h 226.02 L 4922,184.379"
     style="fill:#f67e4b;fill-opacity:1;fill-rule:nonzero;stroke:none"
     transform="matrix(0.095616,0,0,-0.095616,-0.995385,56.30624)"
     clip-path="none"
     id="path154" />
  <text
     xml:space="preserve"
     transform="matrix(0.95616,0,0,0.95616,423.93742,25.00175)"
     clip-path="none"
     id="text155"><tspan
       style="font-variant:normal;font-weight:normal;font-size:9px;font-family:Carlito;writing-mode:lr-tb;fill:#000000;fill-opacity:1;fill-rule:nonzero;stroke:none"
       x="0"
       y="0"
       id="tspan155">246,126,75</tspan></text>
  <text
     xml:space="preserve"
     transform="matrix(0.95616,0,0,0.95616,430.57795,34.19208)"
     clip-path="none"
     id="text156"><tspan
       style="font-variant:normal;font-weight:normal;font-size:9px;font-family:Carlito;writing-mode:lr-tb;fill:#000000;fill-opacity:1;fill-rule:nonzero;stroke:none"
       x="0"
       dx="0 0.0057617198"
       y="0"
       id="tspan156">F67E4B</tspan></text>
  <path
     d="M 5467.67,410.41 5307.85,570.23 H 5081.82 L 4922,410.41 V 184.379 L 5081.82,24.5586 h 226.03 l 159.82,159.8204"
     style="fill:#dd3d2d;fill-opacity:1;fill-rule:nonzero;stroke:none"
     transform="matrix(0.095616,0,0,-0.095616,-0.995385,56.30624)"
     clip-path="none"
     id="path157" />
  <text
     xml:space="preserve"
     transform="matrix(0.95616,0,0,0.95616,478.29416,25.00175)"
     clip-path="none"
     id="text158"><tspan
       style="font-variant:normal;font-weight:normal;font-size:9px;font-family:Carlito;writing-mode:lr-tb;fill:#000000;fill-opacity:1;fill-rule:nonzero;stroke:none"
       x="0"
       y="0"
       id="tspan158">221,61,45</tspan></text>
  <text
     xml:space="preserve"
     transform="matrix(0.95616,0,0,0.95616,480.77444,34.19208)"
     clip-path="none"
     id="text159"><tspan
       style="font-variant:normal;font-weight:normal;font-size:9px;font-family:Carlito;writing-mode:lr-tb;fill:#000000;fill-opacity:1;fill-rule:nonzero;stroke:none"
       x="0"
       dx="0 -0.0062500001 -0.0058593801 0 -0.0062500001"
       y="0"
       id="tspan159">DD3D2D</tspan></text>
  <path
     d="M 6013.35,410.41 5853.52,570.23 H 5627.5 L 5467.67,410.41 V 184.379 L 5627.5,24.5586 h 226.02 l 159.83,159.8204"
     style="fill:#a50026;fill-opacity:1;fill-rule:nonzero;stroke:none"
     transform="matrix(0.095616,0,0,-0.095616,-0.995385,56.30624)"
     clip-path="none"
     id="path160" />
  <text
     xml:space="preserve"
     transform="matrix(0.95616,0,0,0.95616,532.6509,25.00175)"
     clip-path="none"
     id="text161"><tspan
       style="font-variant:normal;font-weight:normal;font-size:9px;font-family:Carlito;writing-mode:lr-tb;fill:#000000;fill-opacity:1;fill-rule:nonzero;stroke:none"
       x="0"
       y="0"
       id="tspan161">165,0,38</tspan></text>
  <text
     xml:space="preserve"
     transform="matrix(0.95616,0,0,0.95616,534.49533,34.19208)"
     clip-path="none"
     id="text162"><tspan
       style="font-variant:normal;font-weight:normal;font-size:9px;font-family:Carlito;writing-mode:lr-tb;fill:#000000;fill-opacity:1;fill-rule:nonzero;stroke:none"
       x="0"
       y="0"
       id="tspan162">A50026</tspan></text>
  <path
     d="m 6709.09,297.398 c 0,75.981 -30.19,148.84 -83.91,202.571 -53.73,53.722 -126.59,83.91 -202.57,83.91 -75.98,0 -148.85,-30.188 -202.58,-83.91 -53.72,-53.731 -83.9,-126.59 -83.9,-202.571 0,-75.976 30.18,-148.847 83.9,-202.5777 53.73,-53.7187 126.6,-83.8984 202.58,-83.8984 75.98,0 148.84,30.1797 202.57,83.8984 53.72,53.7307 83.91,126.6017 83.91,202.5777"
     style="fill:#ffffff;fill-opacity:1;fill-rule:evenodd;stroke:none"
     transform="matrix(0.095616,0,0,-0.095616,-0.995385,56.30624)"
     clip-path="none"
     id="path163" />
  <path
     d="m 6709.09,297.398 c 0,75.981 -30.19,148.84 -83.91,202.571 -53.73,53.722 -126.59,83.91 -202.57,83.91 -75.98,0 -148.85,-30.188 -202.58,-83.91 -53.72,-53.731 -83.9,-126.59 -83.9,-202.571 0,-75.976 30.18,-148.847 83.9,-202.5777 53.73,-53.7187 126.6,-83.8984 202.58,-83.8984 75.98,0 148.84,30.1797 202.57,83.8984 53.72,53.7307 83.91,126.6017 83.91,202.5777 z"
     style="fill:none;stroke:#000000;stroke-width:10;stroke-linecap:square;stroke-linejoin:miter;stroke-miterlimit:3.25;stroke-dasharray:none;stroke-opacity:1"
     transform="matrix(0.095616,0,0,-0.095616,-0.995385,56.30624)"
     clip-path="none"
     id="path164" />
  <text
     xml:space="preserve"
     transform="matrix(0.95616,0,0,0.95616,591.32566,25.00175)"
     clip-path="none"
     id="text164"><tspan
       style="font-variant:normal;font-weight:normal;font-size:9px;font-family:Carlito;writing-mode:lr-tb;fill:#000000;fill-opacity:1;fill-rule:nonzero;stroke:none"
       x="0"
       y="0"
       id="tspan164">255,255,255</tspan></text>
  <text
     xml:space="preserve"
     transform="matrix(0.95616,0,0,0.95616,601.23147,34.19208)"
     clip-path="none"
     id="text165"><tspan
       style="font-variant:normal;font-weight:normal;font-size:9px;font-family:Carlito;writing-mode:lr-tb;fill:#000000;fill-opacity:1;fill-rule:nonzero;stroke:none"
       x="0"
       dx="0 0.0057617198 0 0.0057617198 0 0.00537109"
       y="0"
       id="tspan165">FFFFFF</tspan></text>
</svg>
