<?xml version="1.0" encoding="UTF-8" standalone="no"?>
<!-- Created with Inkscape (http://www.inkscape.org/) -->

<svg
   version="1.1"
   id="svg1"
   width="498.4436"
   height="71.314697"
   viewBox="0 0 498.4436 71.314696"
   sodipodi:docname="vibrant.svg"
   inkscape:version="1.4.1 (1:1.4.1+202503302257+93de688d07)"
   xmlns:inkscape="http://www.inkscape.org/namespaces/inkscape"
   xmlns:sodipodi="http://sodipodi.sourceforge.net/DTD/sodipodi-0.dtd"
   xmlns="http://www.w3.org/2000/svg"
   xmlns:svg="http://www.w3.org/2000/svg">
  <defs
     id="defs1">
    <clipPath
       clipPathUnits="userSpaceOnUse"
       id="clipPath27049">
      <path
         d="M 0,0 H 3920 V 579.09 H 0 Z"
         transform="translate(2.6072628e-4)"
         id="path27049" />
    </clipPath>
    <clipPath
       clipPathUnits="userSpaceOnUse"
       id="clipPath27050">
      <path
         d="M 0,0 H 3920 V 579.09 H 0 Z"
         transform="translate(2.6072628e-4)"
         id="path27050" />
    </clipPath>
    <clipPath
       clipPathUnits="userSpaceOnUse"
       id="clipPath27058">
      <path
         d="M 0,0 H 3920 V 579.09 H 0 Z"
         transform="translate(2.6072628e-4)"
         id="path27058" />
    </clipPath>
    <clipPath
       clipPathUnits="userSpaceOnUse"
       id="clipPath27059">
      <path
         d="M 0,0 H 3920 V 579.09 H 0 Z"
         transform="translate(2.6072628e-4)"
         id="path27059" />
    </clipPath>
    <clipPath
       clipPathUnits="userSpaceOnUse"
       id="clipPath27067">
      <path
         d="M 0,0 H 3920 V 579.09 H 0 Z"
         transform="translate(2.6072628e-4)"
         id="path27067" />
    </clipPath>
    <clipPath
       clipPathUnits="userSpaceOnUse"
       id="clipPath27068">
      <path
         d="M 0,0 H 3920 V 579.09 H 0 Z"
         transform="translate(2.6072628e-4)"
         id="path27068" />
    </clipPath>
    <clipPath
       clipPathUnits="userSpaceOnUse"
       id="clipPath27076">
      <path
         d="M 0,0 H 3920 V 579.09 H 0 Z"
         transform="translate(2.6072628e-4)"
         id="path27076" />
    </clipPath>
    <clipPath
       clipPathUnits="userSpaceOnUse"
       id="clipPath27077">
      <path
         d="M 0,0 H 3920 V 579.09 H 0 Z"
         transform="translate(2.6072628e-4)"
         id="path27077" />
    </clipPath>
    <clipPath
       clipPathUnits="userSpaceOnUse"
       id="clipPath27085">
      <path
         d="M 0,0 H 3920 V 579.09 H 0 Z"
         transform="translate(2.6072628e-4)"
         id="path27085" />
    </clipPath>
    <clipPath
       clipPathUnits="userSpaceOnUse"
       id="clipPath27086">
      <path
         d="M 0,0 H 3920 V 579.09 H 0 Z"
         transform="translate(2.6072628e-4)"
         id="path27086" />
    </clipPath>
    <clipPath
       clipPathUnits="userSpaceOnUse"
       id="clipPath27094">
      <path
         d="M 0,0 H 3920 V 579.09 H 0 Z"
         transform="translate(2.6072628e-4)"
         id="path27094" />
    </clipPath>
    <clipPath
       clipPathUnits="userSpaceOnUse"
       id="clipPath27095">
      <path
         d="M 0,0 H 3920 V 579.09 H 0 Z"
         transform="translate(2.6072628e-4)"
         id="path27095" />
    </clipPath>
    <clipPath
       clipPathUnits="userSpaceOnUse"
       id="clipPath27103">
      <path
         d="M 0,0 H 3920 V 579.09 H 0 Z"
         transform="translate(2.6072628e-4)"
         id="path27103" />
    </clipPath>
    <clipPath
       clipPathUnits="userSpaceOnUse"
       id="clipPath27104">
      <path
         d="M 0,0 H 3920 V 579.09 H 0 Z"
         transform="translate(2.6072628e-4)"
         id="path27104" />
    </clipPath>
  </defs>
  <sodipodi:namedview
     id="namedview1"
     pagecolor="#ffffff"
     bordercolor="#666666"
     borderopacity="1.0"
     inkscape:showpageshadow="2"
     inkscape:pageopacity="0.0"
     inkscape:pagecheckerboard="0"
     inkscape:deskcolor="#d1d1d1"
     inkscape:zoom="9.0678795"
     inkscape:cx="47.475267"
     inkscape:cy="42.402416"
     inkscape:window-width="1680"
     inkscape:window-height="1013"
     inkscape:window-x="1920"
     inkscape:window-y="0"
     inkscape:window-maximized="1"
     inkscape:current-layer="svg1">
    <inkscape:page
       x="0"
       y="0"
       width="498.4436"
       height="71.314697"
       id="page2"
       margin="0"
       bleed="0" />
  </sodipodi:namedview>
  <g
     id="g20">
    <path
       d="M 567.949,404.871 404.871,567.949 H 174.219 L 11.1406,404.871 V 174.219 L 174.219,11.1406 H 404.871 L 567.949,174.219"
       style="fill:#0077bb;fill-opacity:1;fill-rule:nonzero;stroke:none"
       transform="matrix(0.127848,0,0,-0.127848,-1.3614,72.67508)"
       clip-path="none"
       id="path27112" />
    <text
       xml:space="preserve"
       transform="matrix(1.27848,0,0,1.27848,12.3643,26.47695)"
       clip-path="none"
       id="text27113"><tspan
         style="font-variant:normal;font-weight:normal;font-size:9px;font-family:Carlito;writing-mode:lr-tb;fill:#000000;fill-opacity:1;fill-rule:nonzero;stroke:none"
         x="0"
         y="0"
         id="tspan27113">0,119,187</tspan></text>
    <text
       xml:space="preserve"
       transform="matrix(1.27848,0,0,1.27848,17.738,39.34025)"
       clip-path="none"
       id="text27114"><tspan
         style="font-variant:normal;font-weight:normal;font-size:9px;font-family:Carlito;writing-mode:lr-tb;fill:#000000;fill-opacity:1;fill-rule:nonzero;stroke:none"
         x="0"
         y="0"
         id="tspan27114">0077BB</tspan></text>
    <text
       xml:space="preserve"
       transform="matrix(1.27848,0,0,1.27848,25.4188,51.79737)"
       clip-path="none"
       id="text27115"><tspan
         style="font-variant:normal;font-weight:normal;font-size:9px;font-family:Carlito;writing-mode:lr-tb;fill:#000000;fill-opacity:1;fill-rule:nonzero;stroke:none"
         x="0"
         dx="0 0.0054687499 0 0.0054687499"
         y="0"
         id="tspan27115">blue</tspan></text>
  </g>
  <g
     id="g19">
    <path
       d="M 1124.77,404.871 961.68,567.949 H 731.039 L 567.949,404.871 V 174.219 L 731.039,11.1406 H 961.68 l 163.09,163.0784"
       style="fill:#33bbee;fill-opacity:1;fill-rule:nonzero;stroke:none"
       transform="matrix(0.127848,0,0,-0.127848,-1.3614,72.67508)"
       clip-path="none"
       id="path27116" />
    <text
       xml:space="preserve"
       transform="matrix(1.27848,0,0,1.27848,80.6351,26.47695)"
       clip-path="none"
       id="text27117"><tspan
         style="font-variant:normal;font-weight:normal;font-size:9px;font-family:Carlito;writing-mode:lr-tb;fill:#000000;fill-opacity:1;fill-rule:nonzero;stroke:none"
         x="0"
         y="0"
         id="tspan27117">51,187,238</tspan></text>
    <text
       xml:space="preserve"
       transform="matrix(1.27848,0,0,1.27848,89.1461,39.34025)"
       clip-path="none"
       id="text27118"><tspan
         style="font-variant:normal;font-weight:normal;font-size:9px;font-family:Carlito;writing-mode:lr-tb;fill:#000000;fill-opacity:1;fill-rule:nonzero;stroke:none"
         x="0"
         dx="0 0 0 0 -0.0056640599"
         y="0"
         id="tspan27118">33BBEE</tspan></text>
    <text
       xml:space="preserve"
       transform="matrix(1.27848,0,0,1.27848,96.0179,50.80003)"
       clip-path="none"
       id="text27119"><tspan
         style="font-variant:normal;font-weight:normal;font-size:9px;font-family:Carlito;writing-mode:lr-tb;fill:#000000;fill-opacity:1;fill-rule:nonzero;stroke:none"
         x="0"
         dx="0 0.0064453101 0.00517578"
         y="0"
         id="tspan27119">cyan</tspan></text>
  </g>
  <g
     id="g18">
    <path
       d="M 1681.59,404.871 1518.5,567.949 H 1287.86 L 1124.77,404.871 V 174.219 L 1287.86,11.1406 h 230.64 l 163.09,163.0784"
       style="fill:#009988;fill-opacity:1;fill-rule:nonzero;stroke:none"
       transform="matrix(0.127848,0,0,-0.127848,-1.3614,72.67508)"
       clip-path="none"
       id="path27120" />
    <text
       xml:space="preserve"
       transform="matrix(1.27848,0,0,1.27848,154.7398,26.47695)"
       clip-path="none"
       id="text27121"><tspan
         style="font-variant:normal;font-weight:normal;font-size:9px;font-family:Carlito;writing-mode:lr-tb;fill:#000000;fill-opacity:1;fill-rule:nonzero;stroke:none"
         x="0"
         y="0"
         id="tspan27121">0,153,136</tspan></text>
    <text
       xml:space="preserve"
       transform="matrix(1.27848,0,0,1.27848,160.5338,39.34025)"
       clip-path="none"
       id="text27122"><tspan
         style="font-variant:normal;font-weight:normal;font-size:9px;font-family:Carlito;writing-mode:lr-tb;fill:#000000;fill-opacity:1;fill-rule:nonzero;stroke:none"
         x="0"
         y="0"
         id="tspan27122">009988</tspan></text>
    <text
       xml:space="preserve"
       transform="matrix(1.27848,0,0,1.27848,169.1636,51.79737)"
       clip-path="none"
       id="text27123"><tspan
         style="font-variant:normal;font-weight:normal;font-size:9px;font-family:Carlito;writing-mode:lr-tb;fill:#000000;fill-opacity:1;fill-rule:nonzero;stroke:none"
         x="0"
         dx="0 0 0.0059570302"
         y="0"
         id="tspan27123">teal</tspan></text>
  </g>
  <g
     id="g17">
    <path
       d="M 2238.41,404.871 2075.32,567.949 H 1844.68 L 1681.59,404.871 V 174.219 L 1844.68,11.1406 h 230.64 l 163.09,163.0784"
       style="fill:#ee7733;fill-opacity:1;fill-rule:nonzero;stroke:none"
       transform="matrix(0.127848,0,0,-0.127848,-1.3614,72.67508)"
       clip-path="none"
       id="path27124" />
    <text
       xml:space="preserve"
       transform="matrix(1.27848,0,0,1.27848,223.0119,26.47695)"
       clip-path="none"
       id="text27125"><tspan
         style="font-variant:normal;font-weight:normal;font-size:9px;font-family:Carlito;writing-mode:lr-tb;fill:#000000;fill-opacity:1;fill-rule:nonzero;stroke:none"
         x="0"
         y="0"
         id="tspan27125">238,119,51</tspan></text>
    <text
       xml:space="preserve"
       transform="matrix(1.27848,0,0,1.27848,231.9408,39.34025)"
       clip-path="none"
       id="text27126"><tspan
         style="font-variant:normal;font-weight:normal;font-size:9px;font-family:Carlito;writing-mode:lr-tb;fill:#000000;fill-opacity:1;fill-rule:nonzero;stroke:none"
         x="0"
         y="0"
         id="tspan27126">EE7733</tspan></text>
    <text
       xml:space="preserve"
       transform="matrix(1.27848,0,0,1.27848,232.8204,50.80003)"
       clip-path="none"
       id="text27127"><tspan
         style="font-variant:normal;font-weight:normal;font-size:9px;font-family:Carlito;writing-mode:lr-tb;fill:#000000;fill-opacity:1;fill-rule:nonzero;stroke:none"
         x="0"
         dx="0 0 0 0 0.0066406201"
         y="0"
         id="tspan27127">orange</tspan></text>
  </g>
  <g
     id="g16">
    <path
       d="M 2795.23,404.871 2632.14,567.949 H 2401.5 L 2238.41,404.871 V 174.219 L 2401.5,11.1406 h 230.64 l 163.09,163.0784"
       style="fill:#cc3311;fill-opacity:1;fill-rule:nonzero;stroke:none"
       transform="matrix(0.127848,0,0,-0.127848,-1.3614,72.67508)"
       clip-path="none"
       id="path27128" />
    <text
       xml:space="preserve"
       transform="matrix(1.27848,0,0,1.27848,297.1164,26.47695)"
       clip-path="none"
       id="text27129"><tspan
         style="font-variant:normal;font-weight:normal;font-size:9px;font-family:Carlito;writing-mode:lr-tb;fill:#000000;fill-opacity:1;fill-rule:nonzero;stroke:none"
         x="0"
         y="0"
         id="tspan27129">204,51,17</tspan></text>
    <text
       xml:space="preserve"
       transform="matrix(1.27848,0,0,1.27848,302.61,39.34025)"
       clip-path="none"
       id="text27130"><tspan
         style="font-variant:normal;font-weight:normal;font-size:9px;font-family:Carlito;writing-mode:lr-tb;fill:#000000;fill-opacity:1;fill-rule:nonzero;stroke:none"
         x="0"
         y="0"
         id="tspan27130">CC3311</tspan></text>
    <text
       xml:space="preserve"
       transform="matrix(1.27848,0,0,1.27848,312.508,51.79737)"
       clip-path="none"
       id="text27131"><tspan
         style="font-variant:normal;font-weight:normal;font-size:9px;font-family:Carlito;writing-mode:lr-tb;fill:#000000;fill-opacity:1;fill-rule:nonzero;stroke:none"
         x="0"
         dx="0 0 0.0059570302"
         y="0"
         id="tspan27131">red</tspan></text>
  </g>
  <g
     id="g15">
    <path
       d="M 3352.05,404.871 3188.96,567.949 H 2958.32 L 2795.23,404.871 V 174.219 L 2958.32,11.1406 h 230.64 l 163.09,163.0784"
       style="fill:#ee3377;fill-opacity:1;fill-rule:nonzero;stroke:none"
       transform="matrix(0.127848,0,0,-0.127848,-1.3614,72.67508)"
       clip-path="none"
       id="path27132" />
    <text
       xml:space="preserve"
       transform="matrix(1.27848,0,0,1.27848,365.3885,26.47695)"
       clip-path="none"
       id="text27133"><tspan
         style="font-variant:normal;font-weight:normal;font-size:9px;font-family:Carlito;writing-mode:lr-tb;fill:#000000;fill-opacity:1;fill-rule:nonzero;stroke:none"
         x="0"
         y="0"
         id="tspan27133">238,51,119</tspan></text>
    <text
       xml:space="preserve"
       transform="matrix(1.27848,0,0,1.27848,374.3174,39.34025)"
       clip-path="none"
       id="text27134"><tspan
         style="font-variant:normal;font-weight:normal;font-size:9px;font-family:Carlito;writing-mode:lr-tb;fill:#000000;fill-opacity:1;fill-rule:nonzero;stroke:none"
         x="0"
         y="0"
         id="tspan27134">EE3377</tspan></text>
    <text
       xml:space="preserve"
       transform="matrix(1.27848,0,0,1.27848,370.9614,50.80003)"
       clip-path="none"
       id="text27135"><tspan
         style="font-variant:normal;font-weight:normal;font-size:9px;font-family:Carlito;writing-mode:lr-tb;fill:#000000;fill-opacity:1;fill-rule:nonzero;stroke:none"
         x="0"
         dx="0 0 0 0 0.0071289102 0.0054687499"
         y="0"
         id="tspan27135">magenta</tspan></text>
  </g>
  <g
     id="g14">
    <path
       d="M 3908.86,404.871 3745.78,567.949 H 3515.13 L 3352.05,404.871 V 174.219 L 3515.13,11.1406 h 230.65 l 163.08,163.0784"
       style="fill:#bbbbbb;fill-opacity:1;fill-rule:nonzero;stroke:none"
       clip-path="none"
       id="path27136"
       transform="matrix(0.127848,0,0,-0.127848,-1.3614,72.67508)" />
    <text
       xml:space="preserve"
       clip-path="none"
       id="text27137"
       transform="matrix(1.27848,0,0,1.27848,433.6594,26.47695)"><tspan
         style="font-variant:normal;font-weight:normal;font-size:9px;font-family:Carlito;writing-mode:lr-tb;fill:#000000;fill-opacity:1;fill-rule:nonzero;stroke:none"
         x="0"
         y="0"
         id="tspan27137">187,187,187</tspan></text>
    <text
       xml:space="preserve"
       clip-path="none"
       id="text27138"
       transform="matrix(1.27848,0,0,1.27848,444.0278,39.34025)"><tspan
         style="font-variant:normal;font-weight:normal;font-size:9px;font-family:Carlito;writing-mode:lr-tb;fill:#000000;fill-opacity:1;fill-rule:nonzero;stroke:none"
         x="0"
         dx="0 0 -0.0052734399 0 -0.0056640599"
         y="0"
         id="tspan27138">BBBBBB</tspan></text>
    <text
       xml:space="preserve"
       clip-path="none"
       id="text27139"
       transform="matrix(1.27848,0,0,1.27848,452.5975,50.80003)"><tspan
         style="font-variant:normal;font-weight:normal;font-size:9px;font-family:Carlito;writing-mode:lr-tb;fill:#000000;fill-opacity:1;fill-rule:nonzero;stroke:none"
         x="0"
         dx="0 0 0 0.0059570302"
         y="0"
         id="tspan27139">grey</tspan></text>
  </g>
</svg>
