<?xml version="1.0" encoding="UTF-8" standalone="no"?>
<!-- Created with Inkscape (http://www.inkscape.org/) -->

<svg
   version="1.1"
   id="svg1"
   width="640.08691"
   height="65.403992"
   viewBox="0 0 640.08691 65.403991"
   sodipodi:docname="YlOrBr.svg"
   inkscape:version="1.4.1 (1:1.4.1+202503302257+93de688d07)"
   xmlns:inkscape="http://www.inkscape.org/namespaces/inkscape"
   xmlns:sodipodi="http://sodipodi.sourceforge.net/DTD/sodipodi-0.dtd"
   xmlns="http://www.w3.org/2000/svg"
   xmlns:svg="http://www.w3.org/2000/svg">
  <defs
     id="defs1">
    <clipPath
       clipPathUnits="userSpaceOnUse"
       id="clipPath42984">
      <path
         d="M 0,0 H 5600 V 591.762 H 0 Z"
         id="path42984" />
    </clipPath>
    <clipPath
       clipPathUnits="userSpaceOnUse"
       id="clipPath42985">
      <path
         d="M 0,0 H 5600 V 591.762 H 0 Z"
         id="path42985" />
    </clipPath>
    <clipPath
       clipPathUnits="userSpaceOnUse"
       id="clipPath42991">
      <path
         d="M 0,0 H 5600 V 591.762 H 0 Z"
         id="path42991" />
    </clipPath>
    <clipPath
       clipPathUnits="userSpaceOnUse"
       id="clipPath42992">
      <path
         d="M 0,0 H 5600 V 591.762 H 0 Z"
         id="path42992" />
    </clipPath>
    <clipPath
       clipPathUnits="userSpaceOnUse"
       id="clipPath42998">
      <path
         d="M 0,0 H 5600 V 591.762 H 0 Z"
         id="path42998" />
    </clipPath>
    <clipPath
       clipPathUnits="userSpaceOnUse"
       id="clipPath42999">
      <path
         d="M 0,0 H 5600 V 591.762 H 0 Z"
         id="path42999" />
    </clipPath>
    <clipPath
       clipPathUnits="userSpaceOnUse"
       id="clipPath43005">
      <path
         d="M 0,0 H 5600 V 591.762 H 0 Z"
         id="path43005" />
    </clipPath>
    <clipPath
       clipPathUnits="userSpaceOnUse"
       id="clipPath43006">
      <path
         d="M 0,0 H 5600 V 591.762 H 0 Z"
         id="path43006" />
    </clipPath>
    <clipPath
       clipPathUnits="userSpaceOnUse"
       id="clipPath43012">
      <path
         d="M 0,0 H 5600 V 591.762 H 0 Z"
         id="path43012" />
    </clipPath>
    <clipPath
       clipPathUnits="userSpaceOnUse"
       id="clipPath43013">
      <path
         d="M 0,0 H 5600 V 591.762 H 0 Z"
         id="path43013" />
    </clipPath>
    <clipPath
       clipPathUnits="userSpaceOnUse"
       id="clipPath43019">
      <path
         d="M 0,0 H 5600 V 591.762 H 0 Z"
         id="path43019" />
    </clipPath>
    <clipPath
       clipPathUnits="userSpaceOnUse"
       id="clipPath43020">
      <path
         d="M 0,0 H 5600 V 591.762 H 0 Z"
         id="path43020" />
    </clipPath>
    <clipPath
       clipPathUnits="userSpaceOnUse"
       id="clipPath43026">
      <path
         d="M 0,0 H 5600 V 591.762 H 0 Z"
         id="path43026" />
    </clipPath>
    <clipPath
       clipPathUnits="userSpaceOnUse"
       id="clipPath43027">
      <path
         d="M 0,0 H 5600 V 591.762 H 0 Z"
         id="path43027" />
    </clipPath>
    <clipPath
       clipPathUnits="userSpaceOnUse"
       id="clipPath43033">
      <path
         d="M 0,0 H 5600 V 591.762 H 0 Z"
         id="path43033" />
    </clipPath>
    <clipPath
       clipPathUnits="userSpaceOnUse"
       id="clipPath43034">
      <path
         d="M 0,0 H 5600 V 591.762 H 0 Z"
         id="path43034" />
    </clipPath>
    <clipPath
       clipPathUnits="userSpaceOnUse"
       id="clipPath43040">
      <path
         d="M 0,0 H 5600 V 591.762 H 0 Z"
         id="path43040" />
    </clipPath>
    <clipPath
       clipPathUnits="userSpaceOnUse"
       id="clipPath43041">
      <path
         d="M 0,0 H 5600 V 591.762 H 0 Z"
         id="path43041" />
    </clipPath>
    <clipPath
       clipPathUnits="userSpaceOnUse"
       id="clipPath43047">
      <path
         d="M 0,0 H 5600 V 591.762 H 0 Z"
         id="path43047" />
    </clipPath>
  </defs>
  <sodipodi:namedview
     id="namedview1"
     pagecolor="#ffffff"
     bordercolor="#666666"
     borderopacity="1.0"
     inkscape:showpageshadow="2"
     inkscape:pageopacity="0.0"
     inkscape:pagecheckerboard="0"
     inkscape:deskcolor="#d1d1d1"
     inkscape:zoom="1.7653175"
     inkscape:cx="264.82488"
     inkscape:cy="63.161443"
     inkscape:window-width="1680"
     inkscape:window-height="1013"
     inkscape:window-x="1920"
     inkscape:window-y="0"
     inkscape:window-maximized="1"
     inkscape:current-layer="svg1">
    <inkscape:page
       x="0"
       y="0"
       width="640.08691"
       height="65.403992"
       id="page2"
       margin="0"
       bleed="0" />
  </sodipodi:namedview>
  <g
     id="g28">
    <path
       d="M 553.762,408.32 394.75,567.328 H 169.871 L 10.8594,408.32 V 183.441 L 169.871,24.4297 H 394.75 L 553.762,183.441"
       style="fill:#ffffe5;fill-opacity:1;fill-rule:nonzero;stroke:none"
       transform="matrix(0.114736,0,0,-0.114736,-1.1896,66.64993)"
       clip-path="none"
       id="path43053" />
    <text
       xml:space="preserve"
       transform="matrix(1.14736,0,0,1.14736,5.0622,29.25988)"
       clip-path="none"
       id="text43054"><tspan
         style="font-variant:normal;font-weight:normal;font-size:9px;font-family:Carlito;writing-mode:lr-tb;fill:#000000;fill-opacity:1;fill-rule:nonzero;stroke:none"
         x="0"
         y="0"
         id="tspan43054">255,255,229</tspan></text>
    <text
       xml:space="preserve"
       transform="matrix(1.14736,0,0,1.14736,16.5635,40.96295)"
       clip-path="none"
       id="text43055"><tspan
         style="font-variant:normal;font-weight:normal;font-size:9px;font-family:Carlito;writing-mode:lr-tb;fill:#000000;fill-opacity:1;fill-rule:nonzero;stroke:none"
         x="0"
         dx="0 0.0057617198 0 0.0057617198"
         y="0"
         id="tspan43055">FFFFE5</tspan></text>
  </g>
  <g
     id="g27">
    <path
       d="M 1096.66,408.32 937.641,567.328 H 712.77 L 553.762,408.32 V 183.441 L 712.77,24.4297 H 937.641 L 1096.66,183.441"
       style="fill:#fff7bc;fill-opacity:1;fill-rule:nonzero;stroke:none"
       transform="matrix(0.114736,0,0,-0.114736,-1.1896,66.64993)"
       clip-path="none"
       id="path43056" />
    <text
       xml:space="preserve"
       transform="matrix(1.14736,0,0,1.14736,67.3527,29.25988)"
       clip-path="none"
       id="text43057"><tspan
         style="font-variant:normal;font-weight:normal;font-size:9px;font-family:Carlito;writing-mode:lr-tb;fill:#000000;fill-opacity:1;fill-rule:nonzero;stroke:none"
         x="0"
         y="0"
         id="tspan43057">255,247,188</tspan></text>
    <text
       xml:space="preserve"
       transform="matrix(1.14736,0,0,1.14736,78.1907,40.96295)"
       clip-path="none"
       id="text43058"><tspan
         style="font-variant:normal;font-weight:normal;font-size:9px;font-family:Carlito;writing-mode:lr-tb;fill:#000000;fill-opacity:1;fill-rule:nonzero;stroke:none"
         x="0"
         dx="0 0.0057617198 0 0.0057617198"
         y="0"
         id="tspan43058">FFF7BC</tspan></text>
  </g>
  <g
     id="g26">
    <path
       d="M 1639.55,408.32 1480.54,567.328 H 1255.67 L 1096.66,408.32 V 183.441 L 1255.67,24.4297 h 224.87 l 159.01,159.0113"
       style="fill:#fee391;fill-opacity:1;fill-rule:nonzero;stroke:none"
       transform="matrix(0.114736,0,0,-0.114736,-1.1896,66.64993)"
       clip-path="none"
       id="path43059" />
    <text
       xml:space="preserve"
       transform="matrix(1.14736,0,0,1.14736,129.6427,29.25988)"
       clip-path="none"
       id="text43060"><tspan
         style="font-variant:normal;font-weight:normal;font-size:9px;font-family:Carlito;writing-mode:lr-tb;fill:#000000;fill-opacity:1;fill-rule:nonzero;stroke:none"
         x="0"
         y="0"
         id="tspan43060">254,227,145</tspan></text>
    <text
       xml:space="preserve"
       transform="matrix(1.14736,0,0,1.14736,140.5162,40.96295)"
       clip-path="none"
       id="text43061"><tspan
         style="font-variant:normal;font-weight:normal;font-size:9px;font-family:Carlito;writing-mode:lr-tb;fill:#000000;fill-opacity:1;fill-rule:nonzero;stroke:none"
         x="0"
         dx="0 0.0057617198"
         y="0"
         id="tspan43061">FEE391</tspan></text>
  </g>
  <g
     id="g25">
    <path
       d="M 2182.45,408.32 2023.44,567.328 H 1798.57 L 1639.55,408.32 V 183.441 L 1798.57,24.4297 h 224.87 l 159.01,159.0113"
       style="fill:#fec44f;fill-opacity:1;fill-rule:nonzero;stroke:none"
       transform="matrix(0.114736,0,0,-0.114736,-1.1896,66.64993)"
       clip-path="none"
       id="path43062" />
    <text
       xml:space="preserve"
       transform="matrix(1.14736,0,0,1.14736,194.55,29.25988)"
       clip-path="none"
       id="text43063"><tspan
         style="font-variant:normal;font-weight:normal;font-size:9px;font-family:Carlito;writing-mode:lr-tb;fill:#000000;fill-opacity:1;fill-rule:nonzero;stroke:none"
         x="0"
         y="0"
         id="tspan43063">254,196,79</tspan></text>
    <text
       xml:space="preserve"
       transform="matrix(1.14736,0,0,1.14736,202.8145,40.96295)"
       clip-path="none"
       id="text43064"><tspan
         style="font-variant:normal;font-weight:normal;font-size:9px;font-family:Carlito;writing-mode:lr-tb;fill:#000000;fill-opacity:1;fill-rule:nonzero;stroke:none"
         x="0"
         dx="0 0.0057617198"
         y="0"
         id="tspan43064">FEC44F</tspan></text>
  </g>
  <g
     id="g24">
    <path
       d="M 2725.35,408.32 2566.34,567.328 H 2341.46 L 2182.45,408.32 V 183.441 L 2341.46,24.4297 h 224.88 l 159.01,159.0113"
       style="fill:#fb9a29;fill-opacity:1;fill-rule:nonzero;stroke:none"
       transform="matrix(0.114736,0,0,-0.114736,-1.1896,66.64993)"
       clip-path="none"
       id="path43065" />
    <text
       xml:space="preserve"
       transform="matrix(1.14736,0,0,1.14736,256.8402,29.25988)"
       clip-path="none"
       id="text43066"><tspan
         style="font-variant:normal;font-weight:normal;font-size:9px;font-family:Carlito;writing-mode:lr-tb;fill:#000000;fill-opacity:1;fill-rule:nonzero;stroke:none"
         x="0"
         y="0"
         id="tspan43066">251,154,41</tspan></text>
    <text
       xml:space="preserve"
       transform="matrix(1.14736,0,0,1.14736,264.3428,40.96295)"
       clip-path="none"
       id="text43067"><tspan
         style="font-variant:normal;font-weight:normal;font-size:9px;font-family:Carlito;writing-mode:lr-tb;fill:#000000;fill-opacity:1;fill-rule:nonzero;stroke:none"
         x="0"
         dx="0 0.0057617198 -0.0052734399"
         y="0"
         id="tspan43067">FB9A29</tspan></text>
  </g>
  <g
     id="g23">
    <path
       d="M 3268.25,408.32 3109.24,567.328 H 2884.36 L 2725.35,408.32 V 183.441 L 2884.36,24.4297 h 224.88 l 159.01,159.0113"
       style="fill:#ec7014;fill-opacity:1;fill-rule:nonzero;stroke:none"
       transform="matrix(0.114736,0,0,-0.114736,-1.1896,66.64993)"
       clip-path="none"
       id="path43068" />
    <text
       xml:space="preserve"
       transform="matrix(1.14736,0,0,1.14736,319.1304,29.25988)"
       clip-path="none"
       id="text43069"><tspan
         style="font-variant:normal;font-weight:normal;font-size:9px;font-family:Carlito;writing-mode:lr-tb;fill:#000000;fill-opacity:1;fill-rule:nonzero;stroke:none"
         x="0"
         y="0"
         id="tspan43069">236,112,20</tspan></text>
    <text
       xml:space="preserve"
       transform="matrix(1.14736,0,0,1.14736,326.9106,40.96295)"
       clip-path="none"
       id="text43070"><tspan
         style="font-variant:normal;font-weight:normal;font-size:9px;font-family:Carlito;writing-mode:lr-tb;fill:#000000;fill-opacity:1;fill-rule:nonzero;stroke:none"
         x="0"
         y="0"
         id="tspan43070">EC7014</tspan></text>
  </g>
  <g
     id="g22">
    <path
       d="M 3811.15,408.32 3652.14,567.328 H 3427.26 L 3268.25,408.32 V 183.441 L 3427.26,24.4297 h 224.88 l 159.01,159.0113"
       style="fill:#cc4c02;fill-opacity:1;fill-rule:nonzero;stroke:none"
       transform="matrix(0.114736,0,0,-0.114736,-1.1896,66.64993)"
       clip-path="none"
       id="path43071" />
    <text
       xml:space="preserve"
       transform="matrix(1.14736,0,0,1.14736,386.6548,29.25988)"
       clip-path="none"
       id="text43072"><tspan
         style="font-variant:normal;font-weight:normal;font-size:9px;font-family:Carlito;writing-mode:lr-tb;fill:#000000;fill-opacity:1;fill-rule:nonzero;stroke:none"
         x="0"
         y="0"
         id="tspan43072">204,76,2</tspan></text>
    <text
       xml:space="preserve"
       transform="matrix(1.14736,0,0,1.14736,388.8336,40.96295)"
       clip-path="none"
       id="text43073"><tspan
         style="font-variant:normal;font-weight:normal;font-size:9px;font-family:Carlito;writing-mode:lr-tb;fill:#000000;fill-opacity:1;fill-rule:nonzero;stroke:none"
         x="0"
         y="0"
         id="tspan43073">CC4C02</tspan></text>
  </g>
  <g
     id="g21">
    <path
       d="M 4354.05,408.32 4195.04,567.328 H 3970.16 L 3811.15,408.32 V 183.441 L 3970.16,24.4297 h 224.88 l 159.01,159.0113"
       style="fill:#993404;fill-opacity:1;fill-rule:nonzero;stroke:none"
       transform="matrix(0.114736,0,0,-0.114736,-1.1896,66.64993)"
       clip-path="none"
       id="path43074" />
    <text
       xml:space="preserve"
       transform="matrix(1.14736,0,0,1.14736,448.945,29.25988)"
       clip-path="none"
       id="text43075"><tspan
         style="font-variant:normal;font-weight:normal;font-size:9px;font-family:Carlito;writing-mode:lr-tb;fill:#000000;fill-opacity:1;fill-rule:nonzero;stroke:none"
         x="0"
         y="0"
         id="tspan43075">153,52,4</tspan></text>
    <text
       xml:space="preserve"
       transform="matrix(1.14736,0,0,1.14736,451.5265,40.96295)"
       clip-path="none"
       id="text43076"><tspan
         style="font-variant:normal;font-weight:normal;font-size:9px;font-family:Carlito;writing-mode:lr-tb;fill:#000000;fill-opacity:1;fill-rule:nonzero;stroke:none"
         x="0"
         y="0"
         id="tspan43076">993404</tspan></text>
  </g>
  <g
     id="g20">
    <path
       d="M 4896.95,408.32 4737.93,567.328 H 4513.06 L 4354.05,408.32 V 183.441 L 4513.06,24.4297 h 224.87 l 159.02,159.0113"
       style="fill:#662506;fill-opacity:1;fill-rule:nonzero;stroke:none"
       transform="matrix(0.114736,0,0,-0.114736,-1.1896,66.64993)"
       clip-path="none"
       id="path43077" />
    <text
       xml:space="preserve"
       transform="matrix(1.14736,0,0,1.14736,511.2351,29.25988)"
       clip-path="none"
       id="text43078"><tspan
         style="font-variant:normal;font-weight:normal;font-size:9px;font-family:Carlito;writing-mode:lr-tb;fill:#000000;fill-opacity:1;fill-rule:nonzero;stroke:none"
         x="0"
         y="0"
         id="tspan43078">102,37,6</tspan></text>
    <text
       xml:space="preserve"
       transform="matrix(1.14736,0,0,1.14736,513.8167,40.96295)"
       clip-path="none"
       id="text43079"><tspan
         style="font-variant:normal;font-weight:normal;font-size:9px;font-family:Carlito;writing-mode:lr-tb;fill:#000000;fill-opacity:1;fill-rule:nonzero;stroke:none"
         x="0"
         y="0"
         id="tspan43079">662506</tspan></text>
  </g>
  <g
     id="g19">
    <path
       d="m 5589.14,295.879 c 0,75.59 -30.03,148.09 -83.48,201.543 -53.45,53.449 -125.95,83.476 -201.54,83.476 -75.59,0 -148.09,-30.027 -201.54,-83.476 -53.45,-53.453 -83.48,-125.953 -83.48,-201.543 0,-75.59 30.03,-148.09 83.48,-201.5392 53.45,-53.4492 125.95,-83.4804 201.54,-83.4804 75.59,0 148.09,30.0312 201.54,83.4804 53.45,53.4492 83.48,125.9492 83.48,201.5392"
       style="fill:#888888;fill-opacity:1;fill-rule:evenodd;stroke:none"
       transform="matrix(0.114736,0,0,-0.114736,-1.1896,66.64993)"
       clip-path="none"
       id="path43080" />
    <text
       xml:space="preserve"
       transform="matrix(1.14736,0,0,1.14736,581.2459,29.25988)"
       clip-path="none"
       id="text43081"><tspan
         style="font-variant:normal;font-weight:normal;font-size:9px;font-family:Carlito;writing-mode:lr-tb;fill:#000000;fill-opacity:1;fill-rule:nonzero;stroke:none"
         x="0"
         y="0"
         id="tspan43081">136,136,136</tspan></text>
    <text
       xml:space="preserve"
       transform="matrix(1.14736,0,0,1.14736,591.68,40.96295)"
       clip-path="none"
       id="text43082"><tspan
         style="font-variant:normal;font-weight:normal;font-size:9px;font-family:Carlito;writing-mode:lr-tb;fill:#000000;fill-opacity:1;fill-rule:nonzero;stroke:none"
         x="0"
         y="0"
         id="tspan43082">888888</tspan></text>
  </g>
</svg>
